<svg width="2000" height="1044" viewBox="0 0 2000 1044" fill="none" xmlns="http://www.w3.org/2000/svg">
<g clip-path="url(#clip0_1_193)">
<path d="M1887.87 384.295H1884.66L1881.06 382.693L1880.26 381.893C1876.65 380.291 1879.46 377.489 1879.46 377.489L1883.06 373.887L1886.26 371.485C1887.46 371.084 1888.27 370.284 1889.47 369.883C1891.47 368.683 1893.47 367.882 1895.88 367.081C1898.28 365.88 1896.68 367.081 1899.08 365.48C1899.08 365.48 1899.88 365.48 1900.28 365.08C1900.28 365.08 1900.28 364.279 1899.88 363.879C1895.07 354.672 1890.27 344.264 1885.06 335.057C1883.86 333.456 1883.46 331.854 1882.26 330.653L1881.06 331.454L1871.05 337.859L1865.44 341.862L1863.84 342.663H1860.63L1856.63 341.862C1854.63 341.862 1853.82 338.66 1853.82 338.66V337.459V336.258L1855.03 334.656L1857.03 331.854L1861.03 327.851C1865.44 325.049 1869.44 320.646 1873.85 317.844C1873.85 317.844 1873.85 317.844 1874.65 317.443C1867.04 304.633 1859.03 292.224 1848.62 282.216C1847.82 283.017 1847.42 283.818 1846.62 284.618C1842.61 290.623 1836.2 295.827 1832.2 302.232L1827.79 304.633C1825.39 305.834 1823.79 304.633 1823.79 304.633C1822.19 304.633 1821.39 302.632 1821.39 302.632L1820.58 301.431L1819.78 297.828V295.026L1822.19 291.023C1824.59 288.621 1824.59 287.42 1826.59 284.618L1829.4 281.015C1831.4 278.213 1833.8 275.411 1835.8 273.009C1827.79 268.606 1816.18 263.802 1809.37 263.402C1804.97 263.402 1800.16 263.402 1796.16 265.804C1794.55 269.807 1793.35 274.21 1792.15 278.213C1790.95 283.817 1790.15 286.62 1789.75 291.023C1789.75 291.423 1789.35 293.825 1788.55 295.426C1787.75 299.83 1787.34 303.833 1786.54 308.236C1785.74 311.839 1784.94 315.442 1784.14 318.244C1783.34 321.446 1782.94 324.649 1782.14 327.851C1780.54 335.057 1778.93 342.262 1778.13 349.868C1778.13 353.071 1777.73 357.474 1777.33 360.276C1777.33 363.479 1776.13 367.482 1776.13 371.084C1776.53 377.89 1774.93 383.894 1775.33 390.299C1775.33 396.304 1776.93 403.91 1782.14 408.313C1784.54 410.314 1788.15 412.716 1790.55 413.917C1794.55 415.919 1799.36 416.719 1803.76 418.321C1807.37 419.521 1811.77 420.322 1816.18 420.322C1821.79 420.322 1828.19 416.719 1833.4 415.118C1847.02 411.115 1860.63 417.12 1873.05 419.521C1875.45 419.521 1877.85 420.322 1880.66 421.123C1884.66 419.922 1888.27 418.321 1890.27 416.319C1895.07 411.515 1903.48 402.709 1904.69 396.304C1905.49 390.299 1905.49 383.894 1904.69 377.489C1900.68 379.491 1897.08 381.893 1892.67 384.295C1891.47 385.095 1888.27 385.095 1888.27 385.095L1887.87 384.295Z" fill="#F3C300"/>
<path d="M1998.4 246.589C1998.4 246.589 1998 242.586 1996.8 240.985C1995.59 239.784 1991.59 237.382 1990.39 236.982C1982.38 234.58 1977.57 239.784 1977.57 239.784L1974.77 241.785C1974.77 241.785 1973.97 242.586 1973.57 242.986C1972.37 243.787 1971.57 244.187 1970.76 244.587C1969.16 245.388 1967.96 246.989 1966.76 248.19C1963.16 250.992 1958.35 254.195 1955.15 257.397C1950.34 262.201 1947.54 264.603 1942.33 267.405C1940.33 268.606 1938.73 270.207 1937.12 271.408C1935.52 272.609 1934.32 273.409 1932.32 274.21C1927.11 277.012 1922.31 279.814 1917.5 283.017C1914.3 285.419 1908.29 289.422 1904.69 293.025C1902.68 294.626 1901.08 296.227 1899.48 297.428C1897.88 298.629 1895.88 300.23 1894.27 301.431C1892.67 302.632 1890.67 303.833 1889.07 305.434C1887.46 307.035 1885.46 307.836 1883.86 309.037C1881.06 311.439 1878.25 313.84 1875.05 315.842C1875.05 315.842 1875.05 315.842 1874.25 316.242C1869.84 319.044 1865.84 323.448 1861.43 326.25L1857.43 330.253L1855.43 333.055L1854.23 334.656V335.857V337.058C1854.23 337.058 1855.03 339.86 1857.03 340.261C1857.03 340.261 1859.03 341.061 1861.03 341.061H1864.24L1865.84 340.261L1871.45 336.258L1881.46 329.853L1882.66 329.052L1895.47 321.046C1903.48 316.643 1907.89 311.839 1915.1 307.836L1916.7 307.035C1916.7 307.035 1920.7 305.434 1921.91 304.633C1929.12 301.031 1932.72 299.029 1938.73 294.626C1943.93 291.023 1949.94 287.02 1955.55 283.417C1958.75 281.416 1961.55 280.215 1964.36 278.213C1964.36 277.813 1965.16 277.413 1965.56 277.012L1985.18 265.003L1994.39 257.397C1994.39 257.397 1996.4 255.796 1997.2 255.396C2000.4 252.594 1999.6 249.391 1999.2 245.388L1998.4 246.589Z" fill="white"/>
<path d="M1904.29 195.75C1904.29 195.75 1901.48 192.948 1899.88 192.948C1896.28 192.147 1893.47 194.549 1891.07 196.15C1888.67 197.351 1885.86 198.952 1884.26 200.954C1883.06 202.555 1882.66 204.156 1881.46 205.758C1880.66 206.959 1879.86 208.159 1878.65 209.36C1877.85 210.962 1877.05 212.163 1875.85 213.363C1874.65 214.965 1874.25 216.166 1873.05 217.767C1871.45 219.768 1869.44 221.77 1868.64 223.771C1867.84 225.373 1866.64 226.974 1865.04 228.575C1861.03 233.379 1858.63 238.182 1854.63 243.386C1853.02 245.388 1851.02 247.79 1849.82 250.192C1849.02 251.393 1847.82 253.794 1847.02 254.995C1845.81 256.997 1844.61 258.598 1842.61 260.6C1841.01 262.201 1839.81 264.202 1838.61 266.604C1837 268.606 1836.6 269.807 1835 271.808C1835 271.808 1835 271.808 1835 272.209C1833 274.61 1830.6 277.813 1828.59 280.215L1825.79 283.817C1823.79 286.62 1824.19 287.821 1821.39 290.222L1819.38 294.225V297.028C1819.38 297.028 1818.18 299.429 1819.78 300.63L1820.58 301.831C1820.58 301.831 1821.79 303.833 1822.99 303.833C1822.99 303.833 1824.19 305.034 1826.99 303.833L1831.4 301.431C1835.4 295.026 1841.81 290.222 1845.81 283.817C1846.62 283.017 1847.42 282.216 1847.82 281.416C1851.02 277.012 1855.43 273.009 1858.23 268.205C1859.83 265.804 1861.83 263.002 1863.44 260.6C1867.84 255.396 1871.85 250.192 1876.65 244.988C1881.06 240.184 1885.46 234.98 1888.67 229.776C1891.47 225.773 1895.88 222.971 1898.68 219.368C1900.68 216.966 1902.68 214.164 1903.48 211.362C1904.69 207.759 1906.29 204.557 1905.49 200.554C1905.49 198.952 1905.49 197.351 1904.29 196.551V195.75Z" fill="white"/>
<path d="M1998.8 320.646C1998 318.244 1996 317.043 1993.19 317.443C1991.19 317.443 1988.39 318.644 1986.78 319.044C1984.78 319.845 1982.38 320.646 1980.38 321.847C1978.77 322.647 1977.17 323.848 1975.57 324.649C1971.57 326.65 1967.56 328.252 1964.36 330.653C1958.35 335.057 1951.94 337.859 1945.13 341.061C1939.53 343.863 1933.92 347.466 1928.71 351.069C1927.11 352.27 1925.11 353.471 1923.11 354.271C1913.1 358.675 1911.89 359.876 1906.29 362.278C1903.88 363.479 1902.28 363.879 1900.68 364.679C1900.68 364.679 1899.88 364.679 1899.48 365.08C1896.68 366.281 1898.68 365.08 1896.28 366.681C1893.87 367.882 1891.87 368.682 1889.87 369.483C1888.67 370.284 1887.87 370.684 1886.66 371.084C1886.66 371.084 1884.66 371.885 1883.46 373.486L1879.86 377.089C1879.86 377.089 1877.45 379.891 1880.66 381.492L1881.46 382.293C1881.46 382.293 1884.66 383.494 1885.06 383.494H1888.27C1888.27 383.494 1891.47 383.494 1892.67 382.693C1897.08 380.291 1900.68 377.89 1904.69 375.888C1907.49 374.287 1910.69 373.086 1914.7 371.485C1919.9 369.483 1925.91 367.482 1931.12 365.08C1939.93 360.676 1949.14 355.472 1958.35 352.27C1963.56 350.268 1969.96 347.867 1975.17 345.064C1979.58 342.262 1984.78 340.661 1989.99 338.659C1992.39 337.859 1993.59 337.058 1995.59 335.457C1997.2 333.856 1998.8 332.255 2000 330.253C2001.6 327.851 2000.8 322.647 2000 319.845L1998.8 320.646Z" fill="white"/>
<path d="M1933.92 439.136C1926.31 435.534 1916.3 433.132 1908.69 429.529C1899.88 425.926 1890.27 422.324 1880.66 419.922C1878.25 419.121 1875.85 418.721 1873.05 418.32C1860.63 416.319 1847.02 410.314 1833.4 413.917C1828.19 415.518 1821.79 418.721 1816.18 419.121C1811.77 419.121 1807.37 418.321 1803.76 417.12C1799.36 415.518 1794.55 414.718 1790.55 412.716C1787.75 411.115 1784.54 409.113 1782.14 407.112C1776.93 402.709 1775.73 395.103 1775.33 389.098C1774.93 382.293 1776.53 376.689 1776.13 369.883C1776.13 366.281 1777.33 362.278 1777.33 359.075C1777.33 356.273 1777.33 351.87 1778.13 348.667C1778.93 341.061 1780.14 333.856 1782.14 326.65C1782.94 323.448 1783.34 320.245 1784.14 317.043C1784.94 314.241 1785.74 310.638 1786.54 307.035C1787.75 302.632 1788.15 298.629 1788.55 294.225C1789.35 292.624 1789.75 290.222 1789.75 289.822C1790.15 285.819 1790.95 282.617 1792.15 277.012C1793.35 273.009 1794.55 268.606 1796.16 264.603C1796.96 263.001 1797.76 261 1798.56 259.399C1802.16 252.193 1804.57 243.386 1808.57 235.781C1808.57 235.781 1810.97 231.778 1811.37 230.577C1812.17 229.376 1812.98 227.775 1812.98 227.775C1812.98 227.775 1814.58 225.773 1816.18 223.371C1818.18 219.768 1818.18 220.969 1819.38 218.567C1820.18 218.167 1820.58 217.367 1820.99 216.566C1821.39 215.765 1822.19 214.965 1822.59 213.363C1822.59 210.962 1822.59 207.759 1821.39 205.758C1819.78 203.356 1817.38 199.753 1813.38 199.353C1810.17 199.353 1806.57 201.354 1804.17 202.955C1802.56 204.156 1801.36 204.957 1800.56 206.558C1796.56 210.561 1793.75 216.566 1792.55 220.969C1790.55 227.374 1788.15 233.779 1786.54 240.584C1784.94 247.39 1781.74 251.393 1779.74 258.198C1778.93 261.4 1776.93 265.804 1776.53 269.006C1776.13 271.808 1775.33 277.413 1775.33 279.814C1774.53 283.817 1772.93 293.425 1772.13 296.627C1770.93 305.034 1770.12 312.64 1767.32 321.046C1763.32 333.856 1758.51 348.267 1758.91 362.278C1759.31 375.488 1758.11 390.699 1762.11 403.109C1762.92 405.911 1764.12 408.313 1765.72 410.715C1766.12 411.916 1766.92 412.716 1767.72 413.917C1769.32 415.919 1769.72 416.719 1771.33 418.32C1772.53 419.521 1773.33 420.322 1774.53 421.523C1776.53 423.925 1779.74 425.126 1782.54 426.727C1785.34 428.728 1786.94 430.33 1790.15 431.531C1792.95 432.732 1795.75 433.532 1798.56 433.932C1801.76 434.333 1805.77 434.333 1808.97 433.932C1813.38 433.532 1817.78 432.331 1822.19 432.732C1825.39 432.732 1828.59 432.732 1832.2 432.732C1839.41 431.931 1846.62 428.328 1853.82 429.129C1862.23 429.929 1869.04 433.932 1877.45 436.735C1883.46 438.736 1887.87 439.937 1891.47 441.939C1895.07 444.34 1898.28 446.742 1901.48 448.744C1907.89 452.747 1914.3 457.15 1921.91 460.353C1925.91 462.354 1928.71 464.356 1931.52 465.957C1936.32 468.359 1943.13 469.96 1948.74 471.962C1951.94 473.163 1955.95 475.164 1958.75 473.163C1960.75 471.561 1961.95 468.359 1961.95 465.957C1964.76 450.745 1947.14 445.541 1935.12 439.537L1933.92 439.136Z" fill="white"/>
<path d="M1590.71 56.8435C1597.92 55.2423 1604.73 56.8435 1612.33 58.8451L1628.35 64.8497C1635.16 66.8512 1639.57 68.0521 1644.37 72.0552L1653.58 79.2607C1659.59 84.0644 1665.6 88.8681 1671.21 94.8727C1673.21 97.2745 1674.81 100.477 1676.41 103.279L1678.81 107.683C1684.02 117.29 1685.62 132.502 1685.62 132.502C1686.82 139.307 1685.62 142.509 1683.62 148.514L1680.82 156.52C1678.81 162.124 1677.21 167.729 1674.01 172.933C1669.6 180.138 1663.2 186.543 1658.39 190.946C1655.59 193.748 1651.18 195.75 1647.18 197.752L1638.77 202.155L1635.56 204.557L1628.75 208.96H1627.95H1636.76L1641.17 210.161C1644.77 210.962 1648.78 211.762 1652.78 210.962C1656.79 210.962 1660.79 208.96 1664.4 207.359L1674.01 204.156L1686.02 201.755C1695.63 198.952 1701.64 194.949 1705.65 188.144L1708.45 184.141C1713.26 176.936 1717.66 170.13 1719.66 161.324L1723.27 144.511V132.101L1723.67 120.893C1723.67 114.888 1723.67 109.284 1722.47 103.279L1721.67 100.477C1719.66 91.6702 1717.26 81.6626 1712.05 74.457C1705.65 65.25 1698.44 57.2439 1691.23 50.4386C1684.42 47.6365 1678.01 44.8343 1671.21 42.8328C1611.93 34.8267 1576.69 49.638 1558.27 75.658C1567.48 66.0506 1579.1 58.8451 1590.71 56.8435Z" fill="#F18A00"/>
<path d="M1742.89 117.69L1743.69 122.494L1744.49 126.497C1744.49 126.497 1744.09 138.106 1743.69 138.506C1742.89 143.31 1740.09 148.514 1737.68 153.718L1734.48 160.123C1732.48 164.926 1729.27 168.529 1726.07 172.132L1720.86 178.537L1714.46 184.942L1711.25 187.744L1706.45 192.548L1700.04 198.952L1696.03 201.354L1689.23 205.758C1684.42 210.161 1680.02 211.762 1673.61 214.164L1672.01 214.965C1657.99 219.768 1645.57 222.971 1632.36 223.771C1615.94 225.373 1597.12 223.771 1573.89 218.968C1571.49 218.567 1569.08 217.767 1566.68 216.566C1578.29 235.781 1595.91 250.592 1622.75 256.597C1702.44 261.4 1756.11 196.15 1758.11 134.503C1756.11 115.689 1749.3 100.077 1739.29 87.2668C1740.89 92.0705 1742.49 97.2745 1742.89 101.678V117.69Z" fill="#F18A00"/>
<path d="M1629.56 188.945C1639.57 184.942 1649.98 180.538 1656.79 171.331L1661.59 165.727C1665.2 162.124 1668.4 158.521 1670 154.518C1671.21 151.316 1670.4 146.913 1670 143.31V140.107C1668.8 128.098 1666.4 117.69 1662.8 108.483C1659.99 101.278 1655.99 96.8742 1651.18 90.8696L1642.37 80.8619L1640.77 79.2607C1634.76 74.0567 1626.75 67.6518 1618.74 68.0521L1601.92 69.6533C1594.31 70.8543 1587.91 76.0582 1581.5 80.8619L1575.89 85.2653C1570.28 89.2684 1564.68 94.8727 1561.87 99.6763L1554.67 112.086C1549.06 120.092 1547.46 130.5 1546.66 139.707C1545.85 149.314 1548.26 158.521 1553.46 164.926L1556.67 168.929C1559.47 172.932 1563.08 177.336 1567.08 179.738L1576.29 183.741L1587.91 190.546C1601.12 197.751 1613.94 194.949 1628.35 188.945H1629.56Z" fill="#F18A00"/>
<path d="M1601.12 2.00152L1581.5 8.00612L1569.08 14.411C1562.68 17.6135 1555.47 21.6165 1549.86 28.0215L1543.85 38.0291C1543.85 38.0291 1538.25 45.6349 1537.85 46.0353L1534.64 52.0399L1530.64 56.4432C1522.63 67.2515 1518.62 78.8604 1515.02 93.2715L1512.21 106.482V118.891C1511.01 128.498 1511.01 135.704 1512.21 142.109L1513.42 148.914L1515.42 160.523L1521.43 177.736C1523.43 182.94 1525.03 186.943 1529.44 190.946L1533.44 195.75C1535.44 198.552 1537.04 200.954 1540.25 202.555L1552.66 209.36C1557.07 212.163 1561.87 214.965 1567.08 216.966C1569.48 217.767 1571.89 218.567 1574.29 219.368C1597.52 224.172 1615.94 225.373 1632.76 224.172C1645.98 223.371 1658.79 220.169 1672.41 215.365L1674.01 214.564C1680.42 212.163 1684.42 210.962 1689.63 206.158L1696.44 201.755L1700.44 199.353L1706.85 192.948L1711.65 188.144L1714.86 185.342L1721.27 178.937L1726.47 172.532C1729.68 168.929 1732.88 164.926 1734.88 160.523L1738.09 154.118C1740.49 149.314 1743.29 144.11 1744.09 138.906L1744.89 126.897L1744.09 122.894L1743.29 118.09V102.078C1742.49 97.2745 1741.29 92.4708 1739.69 87.6672C1737.69 82.0629 1731.28 69.6534 1731.28 69.6534C1728.87 64.8497 1725.67 60.4463 1722.47 56.0429L1714.86 46.0353C1708.45 37.6288 1701.64 28.4218 1694.43 20.8159C1690.83 17.6135 1685.62 16.0123 1680.42 14.8113L1655.99 7.20551C1645.98 3.60275 1633.56 -1.58548e-05 1621.95 0.800598L1601.52 2.80213L1601.12 2.00152ZM1587.91 191.347L1576.29 184.541L1567.08 180.538C1563.08 178.136 1559.87 173.333 1556.67 169.73L1553.46 165.727C1548.26 159.322 1545.85 150.115 1546.66 140.508C1547.86 131.301 1549.06 120.893 1554.67 112.886L1561.87 100.477C1564.68 96.0736 1570.28 90.4693 1575.89 86.0659L1581.5 81.6626C1587.91 76.8589 1594.31 71.2546 1601.92 70.454L1618.74 68.8527C1627.15 68.8527 1634.76 74.8573 1640.77 80.0613C1640.77 80.0613 1641.97 81.2623 1642.37 81.6626C1642.37 81.6626 1650.78 91.6702 1651.18 91.6702C1655.99 97.2745 1659.59 101.678 1662.8 109.284C1666.4 118.491 1668.8 128.899 1669.6 140.908V144.11C1670.4 147.713 1671.21 152.117 1669.6 155.319C1668 159.322 1664.4 163.325 1661.19 166.528L1656.39 172.132C1649.58 180.939 1639.17 185.342 1629.15 189.745H1627.95C1613.14 196.551 1600.72 199.353 1587.5 192.147L1587.91 191.347ZM1723.67 121.293V144.911L1719.66 161.724C1718.06 170.13 1713.26 177.336 1708.45 184.541L1705.65 188.544C1701.64 194.949 1695.63 198.952 1686.02 202.155L1674.01 204.557L1664.4 207.759C1660.79 209.36 1657.19 210.962 1652.78 211.362C1648.78 212.163 1644.77 211.362 1641.17 210.561L1636.76 209.761H1627.95L1628.75 208.96L1635.56 204.557L1638.77 202.155L1647.18 197.752C1651.18 195.75 1655.59 193.748 1658.39 190.946C1663.2 186.543 1669.6 179.738 1674.01 172.933C1677.21 167.729 1678.81 162.124 1680.82 156.52L1683.62 148.514C1685.62 142.509 1686.82 139.707 1685.62 132.502C1685.62 132.502 1684.42 117.29 1678.81 107.683L1676.41 103.279C1674.81 100.077 1673.61 97.2745 1671.21 94.8727C1665.6 89.2684 1659.59 84.0644 1653.58 79.2607L1644.37 72.0552C1639.57 68.0521 1635.16 66.8512 1628.35 64.8497L1612.33 58.8451C1604.73 56.8435 1597.92 55.6426 1590.71 56.8435C1579.5 58.8451 1567.48 66.0506 1558.27 75.658C1553.46 80.8619 1549.06 86.8665 1546.26 92.8711C1540.65 104.48 1535.04 118.491 1537.04 132.902V136.905C1537.85 142.509 1538.25 147.713 1540.65 152.517C1542.25 155.719 1543.05 160.123 1543.85 163.725C1545.05 170.531 1547.86 176.936 1551.46 182.54L1545.85 177.336L1536.64 168.529C1531.84 163.725 1530.24 158.922 1527.43 152.117L1522.23 142.509L1520.62 140.508C1518.62 137.305 1518.62 132.902 1518.62 128.899V116.089C1519.82 107.683 1523.43 100.077 1526.63 92.8711L1529.44 86.4662C1531.84 80.862 1534.64 77.6595 1537.85 73.6564L1547.86 61.6472L1551.46 56.0429L1555.87 49.638C1558.67 46.4356 1562.68 43.6334 1566.28 40.8313L1570.68 37.6288L1584.7 28.0215C1593.51 23.2178 1602.32 18.8144 1613.54 18.4141H1629.15C1629.15 18.4141 1648.78 22.4172 1656.39 26.4202L1663.6 30.8236L1668.4 33.6257C1676.41 38.4294 1684.42 44.434 1691.63 51.2392C1698.84 58.0445 1706.05 66.0506 1712.45 75.2577C1717.66 82.4632 1720.06 92.4708 1722.07 101.278L1722.87 104.08C1724.47 110.084 1724.07 115.689 1724.07 121.693L1723.67 121.293Z" fill="white"/>
<path d="M1390.07 505.187C1375.65 505.187 1366.44 516.396 1366.04 534.009V665.71C1366.04 684.925 1362.44 696.934 1354.43 702.538L1345.21 709.343C1337.2 714.547 1333.6 721.753 1333.6 730.96C1333.6 746.172 1345.21 756.98 1361.63 756.98C1383.26 756.98 1405.29 736.965 1411.69 711.345C1414.1 702.538 1414.1 699.336 1414.1 677.719V534.409C1414.1 517.196 1404.89 505.587 1390.47 505.587L1390.07 505.187Z" fill="white"/>
<path d="M1482.98 505.187C1468.96 505.187 1459.35 516.396 1458.95 534.009V666.911C1458.95 684.124 1468.56 695.733 1482.98 695.733C1497.4 695.733 1506.61 684.524 1507.01 666.911V534.009C1507.01 516.796 1497 505.187 1482.98 505.187Z" fill="white"/>
<path d="M1023.23 505.187C972.767 505.187 933.12 547.62 933.12 602.462V665.71C933.12 683.323 943.132 695.333 957.949 695.333C972.767 695.333 981.978 683.724 982.379 665.71V600.86C982.379 575.641 1000 556.426 1023.23 556.426C1046.46 556.426 1062.88 575.641 1063.68 599.659V665.71C1063.68 683.323 1073.69 695.333 1088.11 695.333C1102.52 695.333 1112.13 683.724 1112.53 665.71V601.261C1112.53 547.62 1072.49 505.187 1023.23 505.187Z" fill="white"/>
<path d="M1637.16 505.187C1586.7 505.187 1547.06 547.62 1547.06 602.462V665.71C1547.06 683.323 1557.07 695.333 1571.89 695.333C1586.7 695.333 1595.92 683.724 1596.32 665.71V600.86C1596.32 575.641 1613.94 556.426 1637.16 556.426C1659.19 556.426 1676.81 575.641 1677.61 599.659V665.71C1677.61 683.323 1687.22 695.333 1702.04 695.333C1716.86 695.333 1726.07 683.724 1726.47 665.71V601.261C1726.47 547.62 1686.82 505.187 1637.16 505.187Z" fill="white"/>
<path d="M484.181 505.187C469.764 505.187 460.553 516.396 459.752 534.009V610.468C459.752 629.282 447.337 644.093 430.917 644.093C419.704 644.093 408.891 636.888 404.485 626.48C402.083 619.675 401.282 615.271 401.282 599.659V534.409C401.282 517.597 391.67 505.587 377.653 505.587C363.636 505.587 354.025 516.796 353.624 534.409V610.868C353.624 629.682 341.209 644.494 324.389 644.494C313.176 644.494 302.363 637.288 297.958 626.88C295.555 620.075 294.754 615.672 294.754 600.06V534.81C294.754 517.997 285.142 505.988 270.324 505.988C255.507 505.988 247.097 517.196 246.696 534.81V604.863C246.696 625.679 250.3 643.293 257.109 655.302C271.526 680.521 297.958 696.534 324.389 696.534C344.013 696.534 363.236 688.127 377.653 673.316C392.471 688.127 411.694 696.534 431.318 696.534C454.145 696.534 476.572 684.925 490.989 665.31C503.004 648.897 507.809 631.684 507.809 606.465V534.81C507.809 517.997 498.198 505.988 484.181 505.988V505.187Z" fill="white"/>
<path d="M735.282 627.281C745.695 667.712 780.136 696.534 820.585 696.534C871.045 696.534 910.693 654.101 910.693 599.259C910.693 548.02 869.844 505.187 820.985 505.187C780.136 505.187 745.294 535.21 734.882 575.641H704.846C694.433 535.61 659.191 505.587 618.342 505.587C569.483 505.587 529.035 548.82 529.035 600.86C529.035 652.9 568.682 697.334 617.942 697.334C659.592 697.334 693.632 668.112 704.445 627.681H735.282V627.281ZM820.985 557.627C843.412 557.627 861.834 577.242 861.834 600.06C861.834 625.679 844.213 645.294 820.585 645.294C796.956 645.294 780.136 625.679 780.136 601.261C780.136 576.842 798.558 557.627 820.985 557.627ZM617.942 645.695C595.515 645.695 577.493 626.08 577.493 601.661C577.493 577.242 595.915 558.027 618.342 558.027C640.769 558.027 659.191 577.643 659.191 600.46C659.191 626.08 641.57 645.294 617.942 645.294V645.695Z" fill="white"/>
<path d="M1254.31 707.342V680.922C1291.95 670.113 1318.78 636.087 1318.78 595.656C1318.78 545.218 1279.14 505.587 1228.27 505.587C1180.62 505.587 1140.97 546.419 1140.97 595.256C1140.97 636.087 1169 670.914 1206.25 681.322V707.342C1169 717.75 1141.37 752.977 1141.37 794.209C1141.37 843.446 1181.42 883.477 1229.88 883.477C1278.33 883.477 1319.18 843.847 1319.18 794.609C1319.18 752.977 1292.35 718.951 1254.31 708.143V707.342ZM1189.83 594.856C1189.83 572.439 1207.85 554.025 1229.08 554.025C1253.1 554.025 1271.13 571.638 1271.13 594.856C1271.13 618.074 1253.1 635.287 1230.28 635.287C1207.45 635.287 1189.83 616.873 1189.83 594.456V594.856ZM1230.68 834.239C1208.25 834.239 1189.83 815.825 1189.83 793.408C1189.83 770.991 1207.85 752.577 1229.08 752.577C1253.1 752.577 1271.13 770.19 1271.13 793.808C1271.13 816.225 1253.1 834.239 1230.28 834.239H1230.68Z" fill="white"/>
<path d="M217.061 438.336C211.854 434.333 208.651 431.531 208.651 431.531C199.84 424.725 192.231 419.521 183.821 412.716C182.219 411.515 179.415 408.313 178.214 407.112C175.411 405.11 173.008 403.109 170.605 401.107C168.202 399.106 165.399 397.505 162.595 395.503C160.593 393.902 158.991 391.9 157.389 390.299C153.384 387.097 149.379 383.894 145.775 380.692C141.37 377.089 137.365 374.287 133.36 371.084C129.355 367.482 125.351 363.479 121.746 360.276L118.542 357.474L117.341 361.077C115.739 366.281 115.739 371.885 115.739 377.489L114.938 390.699C110.132 422.324 98.9188 461.554 88.5063 499.583C112.135 493.979 124.95 487.574 150.581 479.968C165.399 475.564 176.612 468.759 190.629 463.155C205.847 456.75 215.859 455.949 230.276 448.344C227.874 446.742 225.871 445.141 223.869 443.54C221.866 441.939 219.864 439.937 218.262 438.736L217.061 438.336Z" fill="#00A0DF"/>
<path d="M100.12 248.991C110.132 239.383 104.526 226.574 101.322 216.966C82.4992 194.149 66.4799 199.353 52.4631 210.561C46.8564 219.368 37.6453 231.377 46.0554 243.787C63.2761 257.798 81.2977 257.397 100.521 248.991H100.12Z" fill="#CF3339"/>
<path d="M98.9188 338.259C100.921 345.865 102.523 353.471 102.523 353.871C102.523 359.075 102.523 364.279 102.523 369.483C102.523 371.485 102.523 373.086 102.523 375.488C102.523 377.489 101.722 379.891 101.722 381.492C100.521 389.498 98.9188 397.905 96.9164 405.911C95.7149 410.715 94.5135 415.919 92.9115 420.722C90.9091 427.127 90.1082 431.531 88.9067 435.534C87.7053 439.136 86.1034 443.54 84.5015 447.143C82.0986 454.348 80.0962 461.954 77.6933 469.56C74.8899 478.767 73.6885 488.775 71.6861 498.782C70.0842 506.388 66.0794 515.195 64.8779 522C63.6765 527.204 62.475 531.607 61.6741 535.61C61.6741 538.012 61.6741 540.014 61.6741 542.015C62.0745 542.015 64.4774 548.82 66.0794 549.621C68.8827 550.822 74.8899 545.618 75.2904 545.618C75.2904 544.817 76.4918 543.216 77.2928 540.414C77.6933 538.012 78.0938 534.409 78.8947 531.607C80.4967 526.003 82.8995 521.6 84.5015 516.396L87.3048 499.583C98.1178 461.954 108.931 422.724 113.737 390.699L114.537 377.489C114.537 371.885 114.538 366.281 116.139 361.077L117.341 357.474L120.545 360.276C124.149 363.479 128.154 367.882 132.159 371.084C136.163 374.287 140.168 377.089 144.574 380.692C148.178 383.894 152.183 387.097 156.187 390.299C157.789 391.9 159.792 393.902 161.394 395.503C163.797 397.505 166.6 399.106 169.403 401.107C171.806 403.109 174.61 405.11 177.012 407.112C178.614 408.313 181.418 411.115 182.619 412.716C191.43 419.521 199.039 424.725 207.449 431.531C207.449 431.531 210.653 434.333 215.859 438.336C217.461 439.537 219.864 441.538 221.466 443.14C223.468 444.741 225.871 446.342 227.874 447.943C228.274 448.344 229.075 448.744 229.876 449.544C231.077 450.345 232.279 451.946 233.08 453.147C234.682 453.948 235.883 454.748 237.485 455.949C241.089 458.752 245.094 463.155 248.298 465.557C250.3 467.158 252.303 467.558 253.905 469.159C257.109 471.561 259.111 473.163 259.111 473.563C259.912 473.563 262.315 473.563 264.317 473.563C266.72 473.163 268.322 471.962 268.322 471.962C269.924 471.161 271.926 466.758 272.327 463.956C272.327 462.354 270.324 459.952 270.725 459.952C268.723 457.951 267.121 456.35 265.118 454.348C262.715 452.347 258.711 449.544 256.308 447.143C250.3 442.339 244.293 436.735 237.085 431.13C234.682 429.129 230.677 427.127 228.274 425.126C221.866 420.322 216.26 415.518 209.852 410.715C203.044 405.911 196.636 400.707 190.629 395.903C181.418 389.098 172.607 383.494 164.998 378.29C162.595 376.288 160.593 374.687 158.19 373.086C154.185 370.284 149.78 368.282 146.175 365.48C144.974 365.08 144.574 364.279 143.773 363.479C142.972 363.078 141.77 362.278 140.969 361.877C137.365 359.475 134.161 356.673 130.557 353.471C128.955 352.27 127.753 351.069 126.151 349.868C124.149 347.867 122.147 345.465 120.144 343.063L115.739 334.656L111.334 326.65C113.737 325.85 116.139 324.649 118.542 323.848C122.547 322.247 125.751 321.046 130.557 318.644C135.362 316.242 140.969 314.641 145.775 312.239C150.581 309.837 154.185 306.235 158.59 303.432C164.598 299.83 170.605 295.827 176.612 291.023C181.017 287.821 185.423 285.419 191.43 280.215C196.236 276.212 201.442 270.207 205.847 265.403C211.053 260.199 214.257 255.796 219.063 250.192C220.264 248.59 223.068 246.589 224.67 244.988C233.881 233.779 243.092 221.77 249.9 209.761C254.305 201.755 258.31 194.149 260.713 186.543C263.516 178.136 263.917 170.13 263.116 162.925C263.116 160.123 261.113 156.52 260.312 153.718C253.905 153.718 249.9 153.718 245.895 155.719C234.281 160.923 228.674 173.733 224.269 185.742C223.068 189.745 220.665 193.748 219.463 198.152C217.461 204.156 215.859 209.761 211.854 215.365C209.852 218.567 205.447 221.77 202.643 224.972C196.236 232.578 190.629 239.383 182.219 246.189C179.015 248.991 176.212 252.594 173.008 254.995C169.003 258.198 163.797 260.6 159.792 264.202C153.384 269.006 146.976 274.21 141.37 278.613C132.96 285.419 123.749 290.222 116.94 294.626C112.135 297.428 107.729 300.23 102.924 302.632C102.924 301.031 102.123 299.029 102.523 299.029C102.523 296.627 99.7197 290.222 97.3168 284.618C96.1154 282.216 95.7149 279.814 94.5135 277.813C93.312 275.011 91.7101 272.609 91.3096 271.008C89.7077 267.005 86.5039 266.604 86.5039 266.604C86.5039 266.604 84.5015 266.604 82.4991 268.205C81.6981 268.606 81.6981 269.406 80.8971 270.207C80.8971 271.008 81.2976 273.41 81.6981 275.411C81.6981 277.413 82.4991 279.414 82.8995 281.015C83.7005 283.417 83.7005 287.02 84.5015 290.623L86.1034 300.23C86.1034 300.23 88.9067 308.636 89.3072 309.837C86.1034 311.439 82.8995 312.64 78.8947 314.241C76.0914 315.442 70.4846 317.043 67.2808 318.644C62.475 320.646 55.2664 324.248 46.4558 327.451C42.0505 329.052 36.8443 330.253 32.0385 331.854C26.4318 334.256 20.825 335.457 16.4198 338.259C13.6164 339.46 11.2135 341.462 8.81063 342.663C5.2063 344.664 2.00246 346.265 0.400537 348.267C-2.40283 351.469 -1.20139 354.271 3.60438 356.673C6.80823 358.275 14.4174 355.873 14.4174 355.873C20.4246 354.271 26.0313 352.67 31.638 351.069C37.2448 349.468 43.6524 348.667 49.2592 347.066C54.0649 345.865 58.8707 343.863 63.6765 342.663C74.8899 339.46 85.3024 336.658 96.1154 333.055L97.7173 339.46L98.9188 338.259Z" fill="white"/>
<path d="M1003.6 888.681H998.799C991.59 888.681 985.182 890.282 980.376 891.883C976.372 892.684 972.767 893.084 968.763 893.485C965.959 893.485 963.156 893.485 960.352 894.285L954.345 895.486C951.141 896.287 947.938 897.087 944.333 897.087L933.921 897.888C922.307 898.689 910.292 899.489 898.678 902.692C891.87 904.693 885.062 907.495 878.254 910.298C878.254 910.298 877.053 910.698 875.851 911.098V911.899C875.851 911.899 877.453 912.699 878.254 913.1C884.261 915.101 891.47 918.304 897.877 919.104C911.093 921.106 921.906 926.31 933.921 929.913C941.129 932.314 939.928 933.115 947.137 934.716C955.947 936.718 953.945 936.718 962.355 938.719C967.561 939.92 967.161 941.922 972.767 942.722C975.971 943.123 978.775 943.923 981.978 944.724C983.58 944.724 985.182 945.925 986.384 946.325C990.789 947.526 991.99 943.123 991.99 943.123C991.99 942.322 993.192 941.121 993.592 940.321C994.393 938.719 995.595 935.117 996.396 932.715C997.197 930.313 999.199 927.11 999.6 924.709C1002.4 909.897 1009.21 902.291 1012.01 893.885C1012.01 893.485 1012.82 889.081 1013.62 887.88L1010.41 888.681C1008.01 889.482 1005.21 889.081 1002.4 888.681H1003.6Z" fill="#CF3339"/>
<path d="M857.028 929.112C855.827 926.31 854.625 922.707 853.825 920.305C847.817 922.307 842.211 924.308 836.604 928.311L834.201 929.913C828.594 933.916 822.987 937.919 816.58 941.521L811.774 943.923L806.568 949.127L798.158 958.334C795.755 961.136 796.155 959.135 793.752 962.337L781.338 972.345L770.525 980.351C770.525 980.351 767.321 983.954 764.117 987.156C761.314 989.558 758.11 991.96 758.11 991.96C757.309 992.761 756.908 993.561 756.908 994.362C756.908 995.163 757.309 995.563 757.709 995.963L763.716 999.966C766.52 1001.57 771.326 1003.17 773.728 1005.97L792.951 1013.98L804.966 1021.18C804.966 1021.18 812.175 1025.99 811.774 1025.59L821.786 1030.39L824.189 1031.99C824.189 1031.99 829.796 1034.79 830.597 1035.19C831.398 1035.59 832.199 1035.99 832.599 1035.99C834.201 1035.19 835.803 1029.99 836.203 1026.39C836.203 1020.78 837.805 1016.38 839.407 1011.98C841.009 1007.97 842.611 1003.97 843.012 999.166L845.815 989.558C848.618 982.353 851.822 972.345 851.822 965.94L853.424 956.333C853.424 956.333 856.628 939.52 857.829 934.316C857.829 933.515 857.829 933.115 857.829 932.314C857.829 931.114 857.829 930.313 857.429 929.112H857.028Z" fill="#A8AD00"/>
<path d="M912.695 770.991C911.894 784.201 906.688 794.209 901.482 804.216C898.278 810.621 894.674 817.426 892.671 825.032L889.467 835.04L885.863 847.049L884.662 852.253L883.46 857.857L881.458 865.063L880.256 869.867L879.055 875.471L876.652 883.477C876.652 883.477 876.252 885.879 875.851 886.679C876.252 886.679 877.853 886.679 879.455 887.88H880.657C883.46 887.48 885.863 887.48 888.666 887.08C890.268 886.279 892.271 885.479 894.674 884.678C903.484 882.276 902.683 879.474 909.892 873.87C913.897 871.067 922.707 867.465 926.712 864.262C931.918 860.66 940.328 855.856 945.535 852.653L959.952 843.046C959.952 843.046 963.156 841.445 965.158 840.644C965.158 840.644 969.964 838.643 965.959 832.238C961.954 826.633 955.947 819.828 953.945 816.626C947.938 808.62 950.34 810.221 945.535 805.017C942.731 801.814 940.729 795.409 937.125 792.607C934.321 790.205 926.312 772.992 923.508 770.59C917.901 766.187 915.499 757.38 909.892 753.778C912.295 757.38 913.496 761.784 913.496 766.187C913.496 767.388 913.496 768.589 913.496 769.39L912.695 770.991Z" fill="#F3C300"/>
<path d="M1047.26 877.072C1044.85 865.864 1020.42 868.666 1017.62 868.666C1015.22 868.666 1012.82 869.466 1010.81 870.267C1004.81 871.868 1001.2 871.868 1001.2 871.868C996.796 872.268 992.391 872.669 987.986 873.469L978.374 874.67C972.767 875.471 967.161 875.871 961.554 877.472C955.547 879.474 949.139 881.075 942.331 881.476C938.326 881.476 935.122 881.476 931.918 881.476C926.312 881.476 920.705 881.475 914.297 883.077C910.693 884.278 907.089 884.678 903.484 885.078L898.678 885.879C895.475 886.279 888.666 886.679 888.666 886.679C886.264 886.679 883.46 886.679 880.657 887.08H879.455C879.455 887.08 876.252 886.279 875.851 885.879C875.851 884.678 876.652 883.477 876.652 882.676L879.055 874.67L880.256 869.066L881.458 864.262L883.46 857.057L884.662 851.452L885.863 846.248L889.467 834.239L892.671 824.232C894.674 816.626 898.278 809.821 901.482 803.416C906.688 793.408 911.894 783.4 912.695 770.19C912.695 768.989 912.695 767.788 912.695 766.988C912.695 762.584 911.894 757.781 909.091 754.578C907.89 752.977 905.887 751.376 903.484 750.975L900.681 749.775H898.278C895.074 750.175 891.069 750.575 889.067 754.178C887.866 756.179 887.064 758.581 886.664 760.983L884.662 767.388L883.06 772.192L881.858 777.796C880.657 784.601 877.453 791.006 877.453 791.006C876.652 793.008 875.451 795.009 874.65 797.411C873.849 799.413 873.448 801.414 873.048 803.416C872.647 805.817 871.846 808.219 871.045 810.621C869.043 815.025 868.642 819.028 867.841 823.031C867.441 826.233 867.04 829.035 866.239 832.238L863.036 843.446L861.033 851.052C858.63 858.658 855.827 868.666 854.626 877.472C850.621 875.071 847.817 872.669 845.815 870.267C845.815 870.267 830.196 854.655 826.992 849.851C823.388 845.448 819.383 841.845 814.978 838.242C812.575 836.241 810.172 833.839 807.769 831.837C803.765 827.834 798.959 823.031 793.352 816.225C793.352 816.225 785.743 806.618 783.34 803.015C781.338 799.813 778.935 797.011 776.532 793.808C774.529 791.406 773.328 790.606 771.726 789.805L769.323 788.204L766.119 787.403C766.119 787.403 762.916 788.604 762.115 790.206C761.314 791.406 760.913 793.408 760.913 794.609C760.913 795.81 760.913 796.61 760.913 797.411C761.714 801.014 763.717 802.615 765.318 804.216L767.321 806.218C770.124 809.42 771.726 813.423 773.328 817.426C774.93 821.029 776.532 825.032 778.935 828.235C778.935 828.235 788.947 843.446 791.75 845.848L796.155 850.252C796.155 850.252 798.959 854.655 800.561 857.457C802.563 861.46 804.966 865.063 808.17 867.865C809.772 869.466 812.175 872.268 813.777 874.67C813.777 874.67 824.99 888.681 827.793 893.885C829.395 896.287 830.597 898.288 831.798 899.89C826.992 901.491 821.786 903.492 816.98 905.894C816.98 905.894 797.757 915.902 792.551 918.304C788.947 919.905 785.342 921.106 781.338 922.307C777.333 923.508 772.928 924.709 769.323 926.71C764.918 928.712 761.314 931.114 758.11 933.515L751.702 937.919C748.098 939.92 734.081 946.726 730.877 948.327L716.86 956.333C706.448 961.937 698.839 965.94 697.637 976.748C697.637 978.35 697.637 979.551 697.637 980.752C697.637 987.557 700.841 991.96 708.05 995.163C718.062 999.966 722.066 998.365 732.879 993.962L737.285 991.56C740.489 988.758 743.692 986.756 746.896 984.755L750.901 982.353C750.901 982.353 762.916 974.347 765.719 972.345L774.529 967.942C778.134 966.341 781.738 964.339 785.342 962.738C789.347 960.336 791.75 958.334 794.153 956.333L796.556 954.331C800.16 951.529 804.566 949.127 808.971 947.126L811.774 945.525L816.58 943.123C822.587 939.52 828.194 935.517 834.201 931.514L836.604 929.913C842.211 925.91 847.817 923.908 853.825 921.906C854.626 923.908 855.827 927.911 857.028 930.713C857.028 931.514 857.028 932.715 857.429 933.916C857.429 934.716 857.429 935.117 857.429 935.917C857.429 937.919 858.23 939.52 859.031 941.522L860.232 945.925C861.434 949.928 863.036 953.531 864.638 956.733C866.64 960.336 868.242 964.339 869.043 968.742C871.045 980.752 877.053 992.761 882.659 1004.77C887.866 1015.58 890.669 1021.98 890.669 1021.98C893.873 1029.19 899.079 1042.4 905.086 1044.8C908.29 1046 909.892 1045.2 910.693 1044.8C911.494 1044 911.894 1042.8 911.894 1041.2C911.894 1039.6 911.494 1038 910.693 1036.39L908.69 1031.59C907.489 1029.19 906.288 1026.79 905.887 1023.98L902.683 1013.58C900.28 1006.37 897.877 999.166 896.276 991.56C895.875 989.558 895.074 987.156 894.273 985.155C893.472 982.353 892.271 979.951 892.271 977.149C891.47 972.745 890.268 968.342 889.067 964.339L884.662 947.926C883.46 943.123 882.659 938.319 881.057 933.515L880.256 931.514C878.254 925.509 876.252 919.104 876.252 913.1V911.899L878.654 911.098C885.062 908.296 891.87 905.494 899.079 903.492C910.693 900.29 922.707 899.489 934.321 898.689L944.734 897.888C948.338 897.888 951.542 896.687 954.746 896.287L960.753 895.086C963.556 894.686 966.36 894.285 969.163 894.285C973.168 894.285 976.772 893.485 980.777 892.684C985.583 891.483 992.391 889.882 999.199 889.482H1004C1006.81 889.482 1009.21 889.882 1012.01 889.482C1012.01 889.482 1018.42 887.48 1020.42 887.48C1023.63 887.48 1026.43 887.48 1029.24 887.48H1032.04C1036.84 887.48 1044.45 886.679 1046.86 883.077C1047.66 881.876 1048.06 880.275 1047.66 878.273L1047.26 877.072Z" fill="white"/>
<path d="M1803.36 875.471C1809.77 876.271 1814.18 878.273 1820.99 879.074C1824.19 879.474 1827.79 881.075 1831 881.075C1833.4 881.075 1837.81 881.475 1840.21 882.676C1840.21 882.676 1840.21 882.676 1840.61 883.077C1843.01 883.477 1845.01 883.477 1847.42 884.278C1853.02 885.478 1859.43 887.88 1865.04 889.882C1869.04 891.083 1872.25 891.883 1876.25 893.084C1883.86 895.486 1888.27 895.086 1895.07 895.886C1897.08 895.886 1899.88 897.087 1901.88 897.087C1901.88 897.087 1906.69 897.888 1903.88 893.885C1899.48 888.681 1896.28 887.08 1892.27 881.876C1889.87 878.673 1886.26 875.071 1883.86 871.468C1879.06 864.663 1876.65 860.659 1872.65 853.454C1870.24 849.051 1871.85 848.25 1869.44 843.446C1866.64 837.442 1862.23 827.434 1859.83 821.429C1858.23 815.825 1856.63 808.62 1855.03 804.216C1852.62 797.411 1852.62 787.003 1851.02 780.198C1849.82 775.394 1848.62 756.98 1847.42 746.572C1846.62 741.368 1847.42 736.564 1847.42 731.36C1847.42 731.36 1847.42 730.96 1847.42 730.56C1846.62 729.759 1845.41 727.357 1840.61 730.56C1839.01 731.761 1833 737.765 1832.2 738.966C1832.2 739.767 1827.79 746.572 1827.39 746.972C1822.99 751.776 1818.98 758.181 1816.58 762.584C1804.97 782.199 1795.35 797.811 1789.35 807.018C1779.74 821.83 1770.52 834.239 1761.71 849.451C1758.51 855.055 1755.31 860.259 1760.11 864.262C1763.72 867.465 1772.13 869.466 1777.73 871.468C1781.74 873.069 1785.34 874.27 1789.35 875.471C1789.75 875.071 1790.55 874.67 1790.95 874.67C1794.55 873.87 1799.76 874.67 1803.36 874.67V875.471Z" fill="#CF3339"/>
<path d="M1895.47 644.494C1903.88 630.083 1892.67 618.874 1885.46 607.265C1864.24 596.857 1840.21 596.857 1829.8 618.874C1827.39 632.084 1821.39 644.894 1833.8 655.302C1856.63 663.308 1877.45 662.107 1895.47 644.494Z" fill="#00A0DF"/>
<path d="M1943.13 907.495C1941.93 904.293 1940.33 902.692 1937.93 900.69C1936.72 899.889 1933.12 896.687 1932.72 896.287C1928.31 892.684 1923.91 888.281 1919.9 883.877C1917.1 881.075 1914.3 878.673 1911.89 875.471C1909.49 872.268 1907.49 868.265 1905.09 864.663C1901.08 859.058 1899.08 856.256 1895.88 850.251C1894.27 847.449 1891.47 841.044 1889.87 838.242C1887.46 833.038 1885.06 826.633 1882.66 821.029C1881.46 818.227 1881.46 814.624 1880.66 811.822C1879.05 807.018 1878.65 804.617 1877.05 798.612C1875.85 794.609 1874.25 784.201 1873.45 779.797C1871.85 773.793 1871.45 758.581 1871.05 753.377C1869.84 745.371 1869.44 737.765 1869.44 730.159V715.348L1867.44 704.54L1865.84 685.725C1861.83 676.118 1856.63 678.52 1853.42 685.725C1852.62 687.727 1851.82 689.728 1851.02 692.13C1851.02 693.732 1850.22 695.333 1850.22 697.334C1849.42 701.337 1849.02 704.54 1848.62 707.742C1847.82 714.948 1848.62 730.56 1848.62 730.96C1848.62 735.764 1848.62 740.968 1848.62 746.172C1849.82 756.58 1851.42 774.994 1852.22 779.797C1853.82 786.603 1853.82 797.011 1856.23 803.816C1857.83 808.219 1859.03 815.425 1861.03 821.029C1863.44 827.434 1867.84 837.442 1870.64 843.046C1873.05 847.449 1871.05 848.25 1873.85 853.054C1877.85 860.259 1880.66 864.262 1885.06 871.067C1887.46 874.27 1890.67 878.273 1893.47 881.475C1897.48 886.679 1900.68 888.681 1905.09 893.485C1907.89 897.488 1903.08 896.687 1903.08 896.687C1901.08 896.687 1898.28 895.486 1896.28 895.486C1889.07 894.686 1884.66 894.685 1877.45 892.684C1873.45 891.483 1870.24 890.682 1866.24 889.481C1860.63 887.88 1854.23 885.078 1848.62 883.877C1846.22 883.477 1844.21 883.077 1841.81 882.676C1841.81 882.676 1841.81 882.676 1841.41 882.276C1839.41 881.075 1835 880.675 1832.2 880.675C1828.59 880.675 1825.39 879.074 1822.19 878.673C1815.38 877.472 1811.37 875.471 1804.57 875.07C1801.36 874.67 1795.75 873.87 1792.15 875.07C1791.75 875.07 1790.95 875.07 1790.55 875.871C1788.55 877.472 1787.34 880.275 1789.75 882.276C1791.75 883.877 1794.95 884.678 1797.76 885.078C1801.76 886.279 1805.37 887.48 1809.37 888.681C1812.98 889.882 1816.58 891.483 1820.18 892.284C1822.59 892.684 1823.39 892.284 1825.79 893.485C1826.99 893.885 1828.59 894.686 1829.8 895.086C1829.8 895.086 1835.8 896.687 1838.61 897.888C1840.61 898.689 1843.81 900.69 1846.22 901.491C1852.22 903.492 1858.23 905.494 1864.64 907.495C1869.44 908.696 1874.25 910.297 1879.05 911.498C1879.46 911.498 1886.26 913.5 1889.07 914.301C1892.27 915.101 1895.07 915.902 1898.28 916.702C1901.88 917.503 1905.49 918.304 1909.09 918.704C1915.9 918.704 1923.11 919.505 1930.32 919.505C1937.12 919.505 1948.34 915.902 1945.13 907.896L1943.13 907.495Z" fill="white"/>
<path d="M1488.59 402.308C1492.19 400.307 1494.59 399.106 1497.4 396.304C1503.4 390.699 1510.21 384.695 1516.22 379.491C1520.22 375.888 1523.03 372.285 1526.63 368.282C1531.04 363.479 1536.24 359.075 1540.25 353.871C1545.05 348.267 1547.46 339.86 1548.66 332.655C1549.86 327.851 1551.06 319.445 1548.26 315.041C1546.26 311.839 1533.44 309.037 1532.64 313.84C1524.23 313.84 1514.62 317.844 1507.81 322.247C1503.4 325.049 1500.2 329.052 1496.6 333.055C1494.99 334.656 1493.39 336.658 1491.79 338.66C1490.59 340.261 1488.59 341.462 1487.79 343.063C1486.98 344.264 1486.98 346.265 1486.18 347.867C1485.38 349.067 1484.18 349.868 1483.78 351.069C1482.18 354.271 1481.78 356.273 1479.38 359.075C1476.17 363.879 1471.37 366.681 1467.76 370.684C1465.76 372.686 1464.16 375.488 1462.96 377.89C1460.15 382.693 1456.95 386.296 1454.14 390.299C1452.94 392.301 1452.94 393.502 1452.54 395.503C1450.54 402.308 1446.94 406.311 1442.93 412.716C1442.93 413.917 1440.53 417.52 1440.13 418.721C1440.13 420.322 1443.73 425.526 1444.53 426.327L1452.14 423.925L1464.96 419.121L1483.38 407.913L1485.78 406.712C1485.78 406.712 1485.78 405.511 1488.99 402.308H1488.59Z" fill="#CB007B"/>
<path d="M1415.3 401.107C1415.3 401.107 1413.3 399.906 1412.49 398.706C1410.49 397.104 1410.09 395.503 1408.89 393.101C1406.89 387.497 1403.28 384.294 1398.88 380.291C1396.08 377.489 1394.47 373.887 1392.07 371.084C1387.67 366.281 1380.86 364.679 1376.05 361.077C1374.05 359.876 1373.25 358.275 1371.25 357.074C1367.24 353.471 1360.83 350.669 1356.43 347.867C1351.62 345.064 1347.22 341.061 1342.01 339.86C1338.41 338.66 1334 339.46 1330.4 338.66C1323.99 337.459 1317.58 335.457 1311.57 334.256C1303.56 333.055 1295.96 331.454 1288.35 330.653C1280.74 329.853 1273.13 327.451 1265.52 327.851C1261.91 327.851 1257.11 327.451 1253.9 329.452C1251.1 331.454 1249.5 337.459 1249.1 340.661C1247.9 349.468 1248.3 361.477 1250.7 369.883C1251.5 371.885 1251.9 373.486 1252.7 375.087C1255.91 379.491 1257.91 385.095 1261.51 389.098C1265.12 393.101 1268.32 397.104 1271.13 401.908C1274.33 406.712 1279.54 412.716 1282.74 415.118C1285.94 417.12 1292.75 419.121 1295.96 421.523C1297.56 422.724 1297.56 421.923 1299.16 423.124C1301.96 425.926 1305.97 427.528 1309.57 428.729C1320.38 433.132 1331.6 437.936 1342.41 442.739C1353.22 447.543 1364.84 449.544 1376.45 446.742C1384.06 444.741 1391.27 443.54 1398.48 441.939C1404.08 440.337 1409.29 436.735 1414.5 433.532C1417.7 431.13 1421.31 427.928 1423.31 423.925C1423.71 423.124 1425.31 420.322 1425.31 419.121C1421.71 413.517 1420.1 406.311 1415.7 401.508L1415.3 401.107Z" fill="#A8AD00"/>
<path d="M1555.47 311.439C1551.06 307.436 1549.06 306.235 1543.45 306.235C1539.45 306.235 1537.85 305.034 1534.24 305.434C1531.44 305.434 1524.23 307.436 1521.43 308.236C1515.02 309.837 1511.81 313.84 1506.21 316.242C1500.6 318.644 1496.2 323.448 1491.79 327.051C1486.58 331.454 1482.58 338.259 1477.77 343.063C1472.57 348.667 1470.56 354.271 1465.36 359.075C1460.55 363.479 1456.15 369.883 1452.54 375.488C1450.54 379.09 1448.14 381.893 1445.73 385.495C1444.13 387.497 1443.33 390.299 1441.73 392.701C1438.93 397.104 1436.92 401.107 1433.72 404.71C1432.52 405.911 1427.71 395.503 1427.71 395.503C1426.11 392.301 1421.71 387.497 1420.1 385.095C1418.5 382.693 1417.3 380.291 1414.9 378.29C1406.49 371.485 1401.28 363.879 1391.67 358.275C1387.67 355.472 1385.66 353.471 1378.05 347.466C1378.05 347.466 1367.24 339.06 1363.24 336.658C1359.23 334.256 1354.02 333.055 1350.82 330.253C1348.82 328.652 1347.62 327.051 1344.81 325.85C1326.79 318.244 1312.37 310.638 1293.15 307.836C1287.14 307.035 1281.14 304.633 1274.73 305.034C1272.33 305.034 1264.72 305.434 1262.72 305.834C1259.51 306.235 1253.1 308.236 1250.7 309.837C1243.89 314.241 1241.09 321.046 1239.09 329.853C1238.29 333.856 1239.09 339.06 1239.09 343.463C1239.09 346.265 1238.69 351.87 1239.09 355.072C1239.09 355.072 1239.89 362.678 1239.89 362.278C1239.89 364.679 1240.29 365.88 1241.09 368.282C1241.89 370.684 1242.69 373.086 1243.49 375.488C1244.29 379.09 1246.7 380.692 1247.9 384.294C1249.1 387.497 1250.3 387.097 1251.1 389.899C1253.5 396.704 1258.31 400.707 1262.31 406.311C1265.12 410.314 1268.72 413.517 1271.53 416.319C1273.13 418.321 1275.93 420.722 1278.33 422.324C1280.34 423.925 1283.14 424.725 1285.14 426.727C1287.95 429.129 1300.36 439.937 1303.96 441.939C1307.57 443.94 1323.99 448.744 1327.59 449.544C1334 451.146 1340.01 452.747 1346.82 453.948C1354.02 455.149 1360.03 455.149 1367.24 455.949C1371.25 456.35 1375.25 455.949 1379.26 455.949C1382.06 455.949 1384.86 455.149 1387.67 454.748C1392.07 454.348 1395.67 453.548 1400.08 451.546C1403.68 449.945 1407.29 447.943 1410.49 446.342C1413.7 444.741 1417.3 442.339 1420.1 440.337C1422.11 438.336 1423.31 435.934 1425.71 434.333C1428.11 432.331 1428.91 431.931 1430.12 429.129C1434.92 430.73 1434.52 436.735 1435.72 439.537C1436.92 442.339 1437.32 443.14 1437.73 446.342C1437.73 448.744 1438.93 450.745 1438.93 453.147C1438.93 457.951 1438.93 461.153 1437.73 465.957C1437.73 467.558 1436.12 470.36 1436.92 471.962C1438.53 475.164 1441.73 471.161 1442.93 469.56C1446.14 464.756 1448.94 463.155 1449.34 457.15C1449.34 455.149 1451.34 452.347 1450.94 450.345C1450.94 448.744 1450.94 444.741 1450.94 442.739V439.136C1448.94 433.132 1450.14 434.733 1448.54 430.33C1448.54 428.729 1446.94 427.928 1446.14 426.327C1445.73 425.526 1441.73 420.322 1441.73 418.721C1441.73 417.52 1444.13 413.917 1444.53 412.716C1448.14 406.712 1451.74 402.709 1454.15 395.503C1454.95 393.902 1454.14 392.301 1455.75 390.299C1458.95 385.896 1461.75 382.293 1464.56 377.89C1466.16 375.488 1467.36 373.086 1469.36 370.684C1473.37 366.681 1477.77 363.879 1480.98 359.075C1482.98 356.273 1483.78 354.271 1485.38 351.069C1485.78 349.868 1486.98 349.067 1487.79 347.867C1488.59 346.265 1488.59 344.664 1489.39 343.063C1490.19 341.462 1492.19 340.261 1493.39 338.659C1494.99 336.658 1496.6 334.656 1498.2 333.055C1501.8 329.052 1505.01 325.449 1509.41 322.247C1516.22 317.443 1525.83 313.44 1534.24 313.84C1535.44 309.037 1547.86 311.439 1549.86 315.041C1552.66 319.445 1551.46 327.851 1550.26 332.655C1548.66 339.86 1546.26 348.267 1541.85 353.871C1537.44 359.075 1532.64 363.479 1528.23 368.282C1524.63 371.885 1521.83 375.888 1517.82 379.491C1511.81 385.095 1505.01 390.699 1499 396.304C1496.2 399.106 1493.79 400.307 1490.19 402.308C1486.58 405.511 1486.58 406.311 1486.98 406.712C1487.79 406.712 1492.19 404.71 1494.59 403.109C1496.6 401.908 1501.4 399.506 1503.4 397.505C1509.01 393.101 1515.02 387.897 1520.62 383.894C1523.43 381.893 1526.23 379.09 1528.63 376.689C1531.84 373.886 1535.44 371.885 1538.65 369.083C1543.85 364.279 1547.86 359.876 1552.26 354.672C1554.27 351.87 1555.87 346.265 1558.67 340.661C1560.67 336.258 1560.67 330.253 1561.07 325.449C1561.07 320.245 1561.07 314.641 1557.07 311.038L1555.47 311.439ZM1423.31 423.525C1421.31 427.528 1417.7 430.73 1414.5 433.132C1409.69 436.735 1404.49 439.937 1398.48 441.538C1391.27 443.14 1384.06 444.741 1376.45 446.342C1364.84 449.144 1353.22 447.543 1342.41 442.339C1331.6 437.535 1320.38 432.732 1309.57 428.328C1305.97 427.127 1301.96 425.526 1299.16 422.724C1297.56 421.523 1297.56 422.324 1295.96 421.123C1292.75 418.721 1285.94 417.12 1282.74 414.718C1279.94 412.716 1274.33 406.712 1271.13 401.508C1268.32 396.704 1264.72 392.701 1261.51 388.698C1258.31 384.695 1255.91 379.09 1252.7 374.687C1251.9 373.086 1251.1 371.485 1250.7 369.483C1248.3 361.077 1247.9 349.468 1249.1 340.261C1249.5 336.658 1251.1 331.054 1253.9 329.052C1257.11 326.65 1261.51 327.451 1265.52 327.451C1273.13 327.451 1280.74 329.452 1288.35 330.253C1295.96 331.054 1303.96 332.655 1311.57 333.856C1317.98 335.057 1323.99 337.058 1330.4 338.259C1334.4 339.06 1338.41 338.259 1342.01 339.46C1347.22 340.661 1352.02 344.664 1356.43 347.466C1361.23 350.268 1367.24 352.67 1371.25 356.673C1372.85 358.275 1373.65 359.475 1376.05 360.676C1380.86 364.279 1387.67 366.281 1392.07 370.684C1394.47 373.486 1396.48 377.089 1398.88 379.891C1402.88 383.894 1406.49 387.097 1408.89 392.701C1410.09 395.503 1410.49 396.704 1412.5 398.305C1413.3 399.106 1414.5 399.506 1415.3 400.707C1419.7 405.11 1421.31 412.316 1424.91 417.92C1424.91 417.92 1423.31 422.324 1422.91 423.124L1423.31 423.525Z" fill="white"/>
</g>
<defs>
<clipPath id="clip0_1_193">
<rect width="2000" height="1044" fill="white"/>
</clipPath>
</defs>
</svg>
