<svg width="312" height="438" viewBox="0 0 312 438" fill="none" xmlns="http://www.w3.org/2000/svg">
<g clip-path="url(#clip0_775_21610)">
<rect width="312" height="438" fill="white"/>
<rect x="2" y="2" width="126" height="126" rx="63" fill="white"/>
<rect x="2" y="2" width="126" height="126" rx="63" stroke="#15ABE6" stroke-width="4"/>
<path d="M40.3898 41.9316C40.3078 41.1523 39.6789 40.6875 38.6808 40.6875C37.6418 40.6875 37.0675 41.166 37.0539 41.8223C37.0402 42.5332 37.7921 42.8613 38.6398 43.0527L39.5285 43.2715C41.2238 43.6543 42.4953 44.5156 42.4953 46.1699C42.4953 47.9883 41.0734 49.1367 38.6671 49.1367C36.2746 49.1367 34.7433 48.0293 34.6886 45.9102H36.6847C36.7531 46.9082 37.5461 47.4141 38.6398 47.4141C39.7199 47.4141 40.4171 46.9082 40.4171 46.1699C40.4171 45.5 39.8019 45.1855 38.7218 44.9121L37.6418 44.6523C35.9738 44.2422 34.9484 43.4082 34.9484 41.959C34.9484 40.1543 36.5343 38.9648 38.6945 38.9648C40.882 38.9648 42.3312 40.1816 42.3586 41.9316H40.3898ZM47.7934 38.6367L44.5942 50.4902H42.8579L46.0434 38.6367H47.7934ZM48.2517 47.25V45.623L52.4353 39.1016H55.0193V45.5957H56.2771V47.25H55.0193V49H53.0642V47.25H48.2517ZM50.3298 45.5957H53.0915V41.3574H52.9958L50.3298 45.5137V45.5957ZM57.3916 49V39.1016H59.4424V43.2031H63.7354V39.1016H65.7998V49H63.7354V44.8984H59.4424V49H57.3916ZM68.8421 49H66.6272L70.0589 39.1016H72.6975L76.1155 49H73.9143L73.1761 46.7168H69.594L68.8421 49ZM70.1136 45.1172H72.6565L71.4124 41.3301H71.344L70.1136 45.1172ZM85.2144 39.1016V49H83.4371L79.0894 42.7109H79.0074V49H76.9566V39.1016H78.7613L83.0816 45.3906H83.1773V39.1016H85.2144ZM88.2567 49H86.0418L89.4735 39.1016H92.1121L95.5301 49H93.3289L92.5907 46.7168H89.0086L88.2567 49ZM89.5282 45.1172H92.0711L90.827 41.3301H90.7586L89.5282 45.1172ZM37.7541 60.5469C37.5901 59.4531 36.7424 58.7832 35.594 58.7832C34.0491 58.7832 33.0373 59.9727 33.0373 62.0508C33.0373 64.1836 34.0627 65.3184 35.5803 65.3184C36.7151 65.3184 37.5491 64.6895 37.7541 63.623L39.8323 63.6367C39.5998 65.4688 38.0686 67.1367 35.553 67.1367C32.9006 67.1367 30.9455 65.2773 30.9455 62.0508C30.9455 58.8242 32.9416 56.9648 35.553 56.9648C37.8362 56.9648 39.5588 58.2773 39.8323 60.5469H37.7541ZM44.2827 67.1504C42.0405 67.1504 40.646 65.6055 40.646 63.3086C40.646 61.0117 42.0405 59.4805 44.2827 59.4805C46.5249 59.4805 47.9331 61.0117 47.9331 63.3086C47.9331 65.6055 46.5249 67.1504 44.2827 67.1504ZM44.2964 65.5781C45.3355 65.5781 45.8687 64.6074 45.8687 63.3086C45.8687 61.9961 45.3355 61.0254 44.2964 61.0254C43.2437 61.0254 42.6968 61.9961 42.6968 63.3086C42.6968 64.6074 43.2437 65.5781 44.2964 65.5781ZM50.948 62.707V67H48.9246V59.5762H50.8523V60.875H50.9344C51.2762 60.0137 52.0691 59.4805 53.1629 59.4805C54.7078 59.4805 55.7332 60.5332 55.7195 62.2695V67H53.7098V62.625C53.7098 61.709 53.2039 61.1621 52.3699 61.1621C51.5223 61.1621 50.948 61.7227 50.948 62.707ZM61.2501 61.7773C61.168 61.2578 60.7032 60.916 60.0333 60.916C59.377 60.916 58.8712 61.2305 58.8848 61.6816C58.8712 62.0098 59.1446 62.2695 59.8419 62.4199L61.168 62.6934C62.6036 62.9941 63.3009 63.6367 63.3145 64.7031C63.3009 66.166 61.9884 67.1504 60.0196 67.1504C58.0098 67.1504 56.8341 66.248 56.67 64.7988H58.7071C58.8028 65.3867 59.2813 65.6875 60.0196 65.6875C60.7579 65.6875 61.2501 65.3867 61.2501 64.9082C61.2501 64.5254 60.9356 64.293 60.2384 64.1426L59.0079 63.8965C57.5997 63.623 56.8614 62.8848 56.8751 61.791C56.8614 60.3691 58.0919 59.4805 60.0059 59.4805C61.879 59.4805 63.0411 60.3691 63.1505 61.7773H61.2501ZM69.0365 63.8418V59.5762H71.0599V67H69.1185V65.6602H69.0365C68.6947 66.5215 67.9017 67.0957 66.7806 67.0957C65.2904 67.0957 64.2787 66.043 64.2787 64.3066V59.5762H66.3021V63.9512C66.3021 64.8262 66.808 65.3867 67.6009 65.3867C68.3392 65.3867 69.0365 64.8535 69.0365 63.8418ZM74.3756 57.1016V67H72.3522V57.1016H74.3756ZM79.578 59.5762V61.0938H78.1835V64.7168C78.1835 65.3047 78.4706 65.4551 78.8808 65.4688C79.0859 65.4688 79.4413 65.4551 79.6874 65.4277V67.0273C79.4687 67.0684 79.1132 67.0957 78.6073 67.0957C77.1445 67.0957 76.1464 66.4395 76.1601 65.0039V61.0938H75.1347V59.5762H76.1601V57.7988H78.1835V59.5762H79.578ZM80.5695 67V59.5762H82.593V67H80.5695ZM81.5812 58.6055C80.966 58.6055 80.4738 58.1406 80.4738 57.5801C80.4738 57.0059 80.966 56.541 81.5812 56.541C82.1828 56.541 82.675 57.0059 82.675 57.5801C82.675 58.1406 82.1828 58.6055 81.5812 58.6055ZM85.9087 62.707V67H83.8852V59.5762H85.813V60.875H85.895C86.2368 60.0137 87.0298 59.4805 88.1235 59.4805C89.6684 59.4805 90.6938 60.5332 90.6802 62.2695V67H88.6704V62.625C88.6704 61.709 88.1645 61.1621 87.3305 61.1621C86.4829 61.1621 85.9087 61.7227 85.9087 62.707ZM95.3084 69.9395C93.2576 69.9395 91.9998 69.0234 91.8767 67.6152H93.8728C93.9822 68.2031 94.5427 68.4766 95.3494 68.4766C96.2927 68.4766 96.9216 68.0801 96.9216 67.041V65.6875H96.8259C96.5525 66.2891 95.8962 66.8906 94.7068 66.8906C93.0252 66.8906 91.6853 65.7148 91.6853 63.2402C91.6853 60.7246 93.0662 59.4805 94.7068 59.4805C95.9509 59.4805 96.5525 60.2188 96.8259 60.8203H96.908V59.5762H98.9177V67.082C98.9177 68.9688 97.4138 69.9395 95.3084 69.9395ZM95.3357 65.373C96.3474 65.373 96.9216 64.5801 96.9216 63.2676C96.9216 61.9414 96.3474 61.0938 95.3357 61.0938C94.3103 61.0938 93.7634 61.9824 93.7634 63.2676C93.7634 64.5527 94.3103 65.373 95.3357 65.373Z" fill="black"/>
<path d="M38.8006 83.207C38.7869 85.1074 39.7986 87.2949 41.8494 88.2383L40.8787 89.6055C39.491 88.9697 38.4998 87.6982 37.9529 86.2012C37.3924 87.8486 36.3738 89.2432 34.9314 89.9199L33.9197 88.5391C35.9979 87.5684 37.0369 85.2578 37.0506 83.207V82.4414H34.4119V81.0195H41.3025V82.4414H38.8006V83.207ZM44.0232 79.8164V84.5605H45.8553V86.0234H44.0232V92.2578H42.2732V79.8164H44.0232ZM51.7003 79.9258C54.5577 79.9258 56.212 80.6777 56.2257 82.0586C56.212 83.4258 54.5577 84.1777 51.7003 84.1777C48.8292 84.1777 47.1612 83.4258 47.1612 82.0586C47.1612 80.6777 48.8292 79.9258 51.7003 79.9258ZM51.7003 81.2109C49.8682 81.2109 48.9796 81.4844 48.9932 82.0586C48.9796 82.6602 49.8682 82.9062 51.7003 82.9062C53.546 82.9062 54.421 82.6602 54.421 82.0586C54.421 81.4844 53.546 81.2109 51.7003 81.2109ZM57.3741 84.6973V86.0645H54.5304V86.9395H55.9932V90.1113H49.0616V90.8633H56.3214V92.1758H47.3526V88.8945H54.2706V88.2109H47.3389V86.9395H48.8839V86.0645H46.0264V84.6973H57.3741ZM50.6065 86.9395H52.794V86.0645H50.6065V86.9395ZM65.0238 80.5137V81.8945H62.5492C62.5629 83.3643 63.4379 84.8682 65.4066 85.5176L64.5453 86.8574C63.1644 86.4199 62.2211 85.5176 61.6879 84.3965C61.1273 85.6406 60.1361 86.6455 58.6664 87.1172L57.7777 85.7363C59.8216 85.0801 60.7513 83.4463 60.7718 81.8945H58.2699V80.5137H65.0238ZM68.3324 87.7734V92.2578H66.5961V89.168H59.7875V87.7734H68.3324ZM68.3324 79.8164V87.2266H66.5961V84.2324H64.6683V82.8105H66.5961V79.8164H68.3324ZM83.0986 79.8301V86.9941H81.3622V85.7773H78.5595V84.3828H81.3622V83.1934H78.6825C77.9101 85.1621 76.1464 86.5156 73.4052 87.2676L72.7216 85.8867C75.5859 85.1348 76.9872 83.7676 77.2333 82.0586H73.3915V80.6641H79.1337C79.1337 81.0674 79.1064 81.457 79.0517 81.8262H81.3622V79.8301H83.0986ZM78.956 87.1445C81.4853 87.1445 83.1806 88.1152 83.1943 89.6602C83.1806 91.2188 81.4853 92.2031 78.956 92.2031C76.3993 92.2031 74.6904 91.2188 74.704 89.6602C74.6904 88.1152 76.3993 87.1445 78.956 87.1445ZM78.956 88.5117C77.3837 88.498 76.4404 88.8945 76.4404 89.6602C76.4404 90.4258 77.3837 90.8223 78.956 90.8223C80.5009 90.8223 81.4443 90.4258 81.4443 89.6602C81.4443 88.8945 80.5009 88.498 78.956 88.5117ZM94.9182 79.8164V87.3359H93.1818V84.8887H91.5686V83.4668H93.1818V79.8164H94.9182ZM94.9182 87.8691V92.1211H86.551V87.8691H94.9182ZM88.301 89.2363V90.7266H93.2092V89.2363H88.301ZM91.7873 80.8965V82.291H84.4592V80.8965H87.2756V79.707H88.9982V80.8965H91.7873ZM88.1369 82.7012C89.8869 82.7012 91.1174 83.6309 91.1174 84.9297C91.1174 86.2832 89.8869 87.1855 88.1369 87.1855C86.4006 87.1855 85.1428 86.2832 85.1428 84.9297C85.1428 83.6309 86.4006 82.7012 88.1369 82.7012ZM88.1369 84.0137C87.3303 84.0137 86.8107 84.3418 86.8244 84.9297C86.8107 85.5586 87.3303 85.9004 88.1369 85.9004C88.9299 85.9004 89.4494 85.5586 89.4494 84.9297C89.4494 84.3418 88.9299 84.0137 88.1369 84.0137Z" fill="#0096D0"/>
<rect x="140" y="14" width="4" height="4" rx="2" fill="#0096D0"/>
<path d="M156.494 14.5898C156.385 13.6191 155.496 13.0586 154.307 13.0586C152.994 13.0586 152.133 13.7422 152.133 14.6855C152.133 15.7246 153.295 16.1074 154.047 16.2988L155.031 16.5723C156.098 16.8457 157.834 17.4609 157.834 19.3066C157.834 20.9199 156.535 22.1777 154.238 22.1777C152.105 22.1777 150.779 21.0703 150.67 19.4297H151.928C152.037 20.5371 153.062 21.0566 154.238 21.0566C155.605 21.0566 156.631 20.3594 156.631 19.2793C156.631 18.3223 155.715 17.9531 154.676 17.6523L153.459 17.3242C151.9 16.873 150.943 16.0801 150.943 14.7402C150.943 13.0723 152.434 11.9648 154.348 11.9648C156.262 11.9648 157.643 13.0859 157.697 14.5898H156.494ZM159.755 22H158.47L162.093 12.1016H163.392L167.015 22H165.716L164.732 19.2109H160.753L159.755 22ZM161.122 18.1309H164.349L162.777 13.7012H162.695L161.122 18.1309ZM168.075 22V12.1016H171.438C173.762 12.1016 174.815 13.4824 174.815 15.2461C174.815 16.9961 173.762 18.4043 171.452 18.4043H169.305V22H168.075ZM169.305 17.3105H171.397C172.969 17.3105 173.598 16.4219 173.598 15.2461C173.598 14.0566 172.969 13.1953 171.383 13.1953H169.305V17.3105ZM184.892 14.5898C184.782 13.6191 183.894 13.0586 182.704 13.0586C181.392 13.0586 180.53 13.7422 180.53 14.6855C180.53 15.7246 181.692 16.1074 182.444 16.2988L183.429 16.5723C184.495 16.8457 186.232 17.4609 186.232 19.3066C186.232 20.9199 184.933 22.1777 182.636 22.1777C180.503 22.1777 179.177 21.0703 179.067 19.4297H180.325C180.435 20.5371 181.46 21.0566 182.636 21.0566C184.003 21.0566 185.028 20.3594 185.028 19.2793C185.028 18.3223 184.112 17.9531 183.073 17.6523L181.857 17.3242C180.298 16.873 179.341 16.0801 179.341 14.7402C179.341 13.0723 180.831 11.9648 182.745 11.9648C184.659 11.9648 186.04 13.0859 186.095 14.5898H184.892ZM191.092 11.6367L187.893 23.4902H186.827L190.012 11.6367H191.092ZM191.701 19.9766V18.9648L196.158 12.1016H197.675V18.8965H199.056V19.9766H197.675V22H196.5V19.9766H191.701ZM193.027 18.8965H196.5V13.6602H196.377L193.027 18.8145V18.8965ZM200.567 22V12.1016H201.798V16.5039H207.034V12.1016H208.278V22H207.034V17.584H201.798V22H200.567ZM210.61 22H209.324L212.947 12.1016H214.246L217.869 22H216.571L215.586 19.2109H211.608L210.61 22ZM211.977 18.1309H215.203L213.631 13.7012H213.549L211.977 18.1309ZM226.791 12.1016V22H225.615L220.255 14.2891H220.16V22H218.929V12.1016H220.119L225.478 19.8262H225.574V12.1016H226.791ZM229.136 22H227.85L231.473 12.1016H232.772L236.395 22H235.096L234.112 19.2109H230.134L229.136 22ZM230.503 18.1309H233.729L232.157 13.7012H232.075L230.503 18.1309ZM247.258 12.1016V22H246.014V13.3867H245.96L243.553 14.9863V13.7422L246.014 12.1016H247.258ZM252.844 22.1367C251.053 22.1367 249.699 21.0293 249.631 19.5117H250.82C250.916 20.4004 251.777 21.0566 252.844 21.0566C254.129 21.0566 255.059 20.1133 255.059 18.8691C255.059 17.584 254.088 16.6406 252.762 16.627C251.928 16.6133 251.285 16.873 250.916 17.5156H249.726L250.424 12.1016H255.783V13.1953H251.449L251.08 16.0938H251.176C251.613 15.752 252.283 15.5195 252.98 15.5195C254.867 15.5195 256.262 16.9141 256.262 18.8418C256.262 20.7559 254.812 22.1367 252.844 22.1367ZM261.191 12.1016V22H259.946V13.3867H259.892L257.486 14.9863V13.7422L259.946 12.1016H261.191ZM267.049 12.1016V22H265.805V13.3867H265.75L263.344 14.9863V13.7422L265.805 12.1016H267.049Z" fill="#202020"/>
<rect x="140" y="38" width="4" height="4" rx="2" fill="#0096D0"/>
<path d="M156.494 38.5898C156.385 37.6191 155.496 37.0586 154.307 37.0586C152.994 37.0586 152.133 37.7422 152.133 38.6855C152.133 39.7246 153.295 40.1074 154.047 40.2988L155.031 40.5723C156.098 40.8457 157.834 41.4609 157.834 43.3066C157.834 44.9199 156.535 46.1777 154.238 46.1777C152.105 46.1777 150.779 45.0703 150.67 43.4297H151.928C152.037 44.5371 153.062 45.0566 154.238 45.0566C155.605 45.0566 156.631 44.3594 156.631 43.2793C156.631 42.3223 155.715 41.9531 154.676 41.6523L153.459 41.3242C151.9 40.873 150.943 40.0801 150.943 38.7402C150.943 37.0723 152.434 35.9648 154.348 35.9648C156.262 35.9648 157.643 37.0859 157.697 38.5898H156.494ZM159.755 46H158.47L162.093 36.1016H163.392L167.015 46H165.716L164.732 43.2109H160.753L159.755 46ZM161.122 42.1309H164.349L162.777 37.7012H162.695L161.122 42.1309ZM168.075 46V36.1016H171.438C173.762 36.1016 174.815 37.4824 174.815 39.2461C174.815 40.9961 173.762 42.4043 171.452 42.4043H169.305V46H168.075ZM169.305 41.3105H171.397C172.969 41.3105 173.598 40.4219 173.598 39.2461C173.598 38.0566 172.969 37.1953 171.383 37.1953H169.305V41.3105ZM184.892 38.5898C184.782 37.6191 183.894 37.0586 182.704 37.0586C181.392 37.0586 180.53 37.7422 180.53 38.6855C180.53 39.7246 181.692 40.1074 182.444 40.2988L183.429 40.5723C184.495 40.8457 186.232 41.4609 186.232 43.3066C186.232 44.9199 184.933 46.1777 182.636 46.1777C180.503 46.1777 179.177 45.0703 179.067 43.4297H180.325C180.435 44.5371 181.46 45.0566 182.636 45.0566C184.003 45.0566 185.028 44.3594 185.028 43.2793C185.028 42.3223 184.112 41.9531 183.073 41.6523L181.857 41.3242C180.298 40.873 179.341 40.0801 179.341 38.7402C179.341 37.0723 180.831 35.9648 182.745 35.9648C184.659 35.9648 186.04 37.0859 186.095 38.5898H184.892ZM191.092 35.6367L187.893 47.4902H186.827L190.012 35.6367H191.092ZM191.701 43.9766V42.9648L196.158 36.1016H197.675V42.8965H199.056V43.9766H197.675V46H196.5V43.9766H191.701ZM193.027 42.8965H196.5V37.6602H196.377L193.027 42.8145V42.8965ZM200.567 46V36.1016H201.798V40.5039H207.034V36.1016H208.278V46H207.034V41.584H201.798V46H200.567ZM210.61 46H209.324L212.947 36.1016H214.246L217.869 46H216.571L215.586 43.2109H211.608L210.61 46ZM211.977 42.1309H215.203L213.631 37.7012H213.549L211.977 42.1309ZM226.791 36.1016V46H225.615L220.255 38.2891H220.16V46H218.929V36.1016H220.119L225.478 43.8262H225.574V36.1016H226.791ZM229.136 46H227.85L231.473 36.1016H232.772L236.395 46H235.096L234.112 43.2109H230.134L229.136 46ZM230.503 42.1309H233.729L232.157 37.7012H232.075L230.503 42.1309ZM247.258 36.1016V46H246.014V37.3867H245.96L243.553 38.9863V37.7422L246.014 36.1016H247.258ZM253.062 46.1367C251.34 46.1094 249.453 45.0977 249.453 41.4336C249.453 37.9336 250.889 35.9648 253.213 35.9648C254.949 35.9648 256.166 37.0312 256.426 38.5898H255.209C254.976 37.7148 254.32 37.0586 253.213 37.0586C251.586 37.0586 250.615 38.4531 250.615 40.832H250.738C251.312 40.0117 252.215 39.5195 253.281 39.5195C255.045 39.5195 256.508 40.8867 256.508 42.8008C256.508 44.6602 255.141 46.1504 253.062 46.1367ZM253.062 45.0566C254.348 45.0566 255.305 44.0449 255.318 42.8145C255.305 41.5977 254.389 40.5996 253.09 40.5996C251.791 40.5996 250.793 41.6523 250.779 42.8281C250.779 43.9902 251.736 45.0566 253.062 45.0566ZM261.423 36.1016V46H260.179V37.3867H260.124L257.718 38.9863V37.7422L260.179 36.1016H261.423ZM267.022 46.1367C264.821 46.1367 263.563 44.291 263.563 41.0508C263.563 37.8379 264.848 35.9648 267.022 35.9648C269.196 35.9648 270.481 37.8379 270.481 41.0508C270.481 44.291 269.209 46.1367 267.022 46.1367ZM267.022 45.043C268.444 45.043 269.278 43.6074 269.278 41.0508C269.278 38.4941 268.444 37.0312 267.022 37.0312C265.6 37.0312 264.752 38.4941 264.752 41.0508C264.752 43.6074 265.586 45.043 267.022 45.043Z" fill="#202020"/>
<rect x="140" y="62" width="4" height="4" rx="2" fill="#0096D0"/>
<path d="M156.494 62.5898C156.385 61.6191 155.496 61.0586 154.307 61.0586C152.994 61.0586 152.133 61.7422 152.133 62.6855C152.133 63.7246 153.295 64.1074 154.047 64.2988L155.031 64.5723C156.098 64.8457 157.834 65.4609 157.834 67.3066C157.834 68.9199 156.535 70.1777 154.238 70.1777C152.105 70.1777 150.779 69.0703 150.67 67.4297H151.928C152.037 68.5371 153.062 69.0566 154.238 69.0566C155.605 69.0566 156.631 68.3594 156.631 67.2793C156.631 66.3223 155.715 65.9531 154.676 65.6523L153.459 65.3242C151.9 64.873 150.943 64.0801 150.943 62.7402C150.943 61.0723 152.434 59.9648 154.348 59.9648C156.262 59.9648 157.643 61.0859 157.697 62.5898H156.494ZM159.755 70H158.47L162.093 60.1016H163.392L167.015 70H165.716L164.732 67.2109H160.753L159.755 70ZM161.122 66.1309H164.349L162.777 61.7012H162.695L161.122 66.1309ZM168.075 70V60.1016H171.438C173.762 60.1016 174.815 61.4824 174.815 63.2461C174.815 64.9961 173.762 66.4043 171.452 66.4043H169.305V70H168.075ZM169.305 65.3105H171.397C172.969 65.3105 173.598 64.4219 173.598 63.2461C173.598 62.0566 172.969 61.1953 171.383 61.1953H169.305V65.3105ZM184.892 62.5898C184.782 61.6191 183.894 61.0586 182.704 61.0586C181.392 61.0586 180.53 61.7422 180.53 62.6855C180.53 63.7246 181.692 64.1074 182.444 64.2988L183.429 64.5723C184.495 64.8457 186.232 65.4609 186.232 67.3066C186.232 68.9199 184.933 70.1777 182.636 70.1777C180.503 70.1777 179.177 69.0703 179.067 67.4297H180.325C180.435 68.5371 181.46 69.0566 182.636 69.0566C184.003 69.0566 185.028 68.3594 185.028 67.2793C185.028 66.3223 184.112 65.9531 183.073 65.6523L181.857 65.3242C180.298 64.873 179.341 64.0801 179.341 62.7402C179.341 61.0723 180.831 59.9648 182.745 59.9648C184.659 59.9648 186.04 61.0859 186.095 62.5898H184.892ZM191.092 59.6367L187.893 71.4902H186.827L190.012 59.6367H191.092ZM191.701 67.9766V66.9648L196.158 60.1016H197.675V66.8965H199.056V67.9766H197.675V70H196.5V67.9766H191.701ZM193.027 66.8965H196.5V61.6602H196.377L193.027 66.8145V66.8965ZM200.567 70V60.1016H201.798V64.5039H207.034V60.1016H208.278V70H207.034V65.584H201.798V70H200.567ZM210.61 70H209.324L212.947 60.1016H214.246L217.869 70H216.571L215.586 67.2109H211.608L210.61 70ZM211.977 66.1309H215.203L213.631 61.7012H213.549L211.977 66.1309ZM226.791 60.1016V70H225.615L220.255 62.2891H220.16V70H218.929V60.1016H220.119L225.478 67.8262H225.574V60.1016H226.791ZM229.136 70H227.85L231.473 60.1016H232.772L236.395 70H235.096L234.112 67.2109H230.134L229.136 70ZM230.503 66.1309H233.729L232.157 61.7012H232.075L230.503 66.1309ZM247.258 60.1016V70H246.014V61.3867H245.96L243.553 62.9863V61.7422L246.014 60.1016H247.258ZM249.932 70L254.471 61.2637V61.1953H249.234V60.1016H255.742V61.25L251.217 70H249.932ZM260.097 70.1367C257.896 70.1367 256.638 68.291 256.638 65.0508C256.638 61.8379 257.923 59.9648 260.097 59.9648C262.271 59.9648 263.556 61.8379 263.556 65.0508C263.556 68.291 262.284 70.1367 260.097 70.1367ZM260.097 69.043C261.519 69.043 262.353 67.6074 262.353 65.0508C262.353 62.4941 261.519 61.0312 260.097 61.0312C258.675 61.0312 257.827 62.4941 257.827 65.0508C257.827 67.6074 258.661 69.043 260.097 69.043ZM268.211 59.9648C269.92 59.9785 271.807 61.0039 271.807 64.6543C271.807 68.168 270.372 70.1367 268.047 70.1367C266.311 70.1367 265.081 69.0703 264.834 67.498H266.051C266.27 68.3867 266.94 69.043 268.047 69.043C269.661 69.043 270.645 67.6484 270.659 65.2422H270.522C269.948 66.0625 269.045 66.5547 267.993 66.5547C266.215 66.5547 264.752 65.2012 264.752 63.2871C264.752 61.4414 266.106 59.9512 268.211 59.9648ZM268.211 61.0449C266.913 61.0449 265.942 62.0566 265.956 63.2734C265.956 64.5039 266.872 65.4746 268.17 65.4746C269.456 65.4746 270.467 64.4082 270.467 63.2461C270.467 62.1113 269.524 61.0449 268.211 61.0449Z" fill="#202020"/>
<rect x="140" y="86" width="4" height="4" rx="2" fill="#0096D0"/>
<path d="M156.494 86.5898C156.385 85.6191 155.496 85.0586 154.307 85.0586C152.994 85.0586 152.133 85.7422 152.133 86.6855C152.133 87.7246 153.295 88.1074 154.047 88.2988L155.031 88.5723C156.098 88.8457 157.834 89.4609 157.834 91.3066C157.834 92.9199 156.535 94.1777 154.238 94.1777C152.105 94.1777 150.779 93.0703 150.67 91.4297H151.928C152.037 92.5371 153.062 93.0566 154.238 93.0566C155.605 93.0566 156.631 92.3594 156.631 91.2793C156.631 90.3223 155.715 89.9531 154.676 89.6523L153.459 89.3242C151.9 88.873 150.943 88.0801 150.943 86.7402C150.943 85.0723 152.434 83.9648 154.348 83.9648C156.262 83.9648 157.643 85.0859 157.697 86.5898H156.494ZM159.755 94H158.47L162.093 84.1016H163.392L167.015 94H165.716L164.732 91.2109H160.753L159.755 94ZM161.122 90.1309H164.349L162.777 85.7012H162.695L161.122 90.1309ZM168.075 94V84.1016H171.438C173.762 84.1016 174.815 85.4824 174.815 87.2461C174.815 88.9961 173.762 90.4043 171.452 90.4043H169.305V94H168.075ZM169.305 89.3105H171.397C172.969 89.3105 173.598 88.4219 173.598 87.2461C173.598 86.0566 172.969 85.1953 171.383 85.1953H169.305V89.3105ZM184.892 86.5898C184.782 85.6191 183.894 85.0586 182.704 85.0586C181.392 85.0586 180.53 85.7422 180.53 86.6855C180.53 87.7246 181.692 88.1074 182.444 88.2988L183.429 88.5723C184.495 88.8457 186.232 89.4609 186.232 91.3066C186.232 92.9199 184.933 94.1777 182.636 94.1777C180.503 94.1777 179.177 93.0703 179.067 91.4297H180.325C180.435 92.5371 181.46 93.0566 182.636 93.0566C184.003 93.0566 185.028 92.3594 185.028 91.2793C185.028 90.3223 184.112 89.9531 183.073 89.6523L181.857 89.3242C180.298 88.873 179.341 88.0801 179.341 86.7402C179.341 85.0723 180.831 83.9648 182.745 83.9648C184.659 83.9648 186.04 85.0859 186.095 86.5898H184.892ZM191.092 83.6367L187.893 95.4902H186.827L190.012 83.6367H191.092ZM191.701 91.9766V90.9648L196.158 84.1016H197.675V90.8965H199.056V91.9766H197.675V94H196.5V91.9766H191.701ZM193.027 90.8965H196.5V85.6602H196.377L193.027 90.8145V90.8965ZM200.567 94V84.1016H201.798V88.5039H207.034V84.1016H208.278V94H207.034V89.584H201.798V94H200.567ZM210.61 94H209.324L212.947 84.1016H214.246L217.869 94H216.571L215.586 91.2109H211.608L210.61 94ZM211.977 90.1309H215.203L213.631 85.7012H213.549L211.977 90.1309ZM226.791 84.1016V94H225.615L220.255 86.2891H220.16V94H218.929V84.1016H220.119L225.478 91.8262H225.574V84.1016H226.791ZM229.136 94H227.85L231.473 84.1016H232.772L236.395 94H235.096L234.112 91.2109H230.134L229.136 94ZM230.503 90.1309H233.729L232.157 85.7012H232.075L230.503 90.1309ZM247.258 84.1016V94H246.014V85.3867H245.96L243.553 86.9863V85.7422L246.014 84.1016H247.258ZM252.926 94.1367C250.848 94.1367 249.398 92.9883 249.412 91.375C249.398 90.0898 250.287 89.0371 251.422 88.8594V88.8047C250.437 88.5723 249.795 87.6699 249.795 86.5898C249.795 85.0723 251.121 83.9648 252.926 83.9648C254.73 83.9648 256.057 85.0723 256.07 86.5898C256.057 87.6699 255.4 88.5723 254.43 88.8047V88.8594C255.551 89.0371 256.439 90.0898 256.453 91.375C256.439 92.9883 254.99 94.1367 252.926 94.1367ZM252.926 93.0566C254.348 93.0566 255.223 92.3457 255.223 91.3066C255.223 90.2129 254.252 89.4062 252.926 89.4062C251.6 89.4062 250.615 90.2129 250.643 91.3066C250.615 92.3457 251.504 93.0566 252.926 93.0566ZM252.926 88.3672C254.047 88.3672 254.867 87.6836 254.867 86.6855C254.867 85.7012 254.088 85.0312 252.926 85.0312C251.75 85.0312 250.984 85.7012 250.984 86.6855C250.984 87.6836 251.791 88.3672 252.926 88.3672ZM261.068 94.1367C258.866 94.1367 257.609 92.291 257.609 89.0508C257.609 85.8379 258.894 83.9648 261.068 83.9648C263.241 83.9648 264.527 85.8379 264.527 89.0508C264.527 92.291 263.255 94.1367 261.068 94.1367ZM261.068 93.043C262.489 93.043 263.323 91.6074 263.323 89.0508C263.323 86.4941 262.489 85.0312 261.068 85.0312C259.646 85.0312 258.798 86.4941 258.798 89.0508C258.798 91.6074 259.632 93.043 261.068 93.043ZM269.182 83.9648C270.891 83.9785 272.778 85.0039 272.778 88.6543C272.778 92.168 271.342 94.1367 269.018 94.1367C267.282 94.1367 266.051 93.0703 265.805 91.498H267.022C267.241 92.3867 267.911 93.043 269.018 93.043C270.631 93.043 271.616 91.6484 271.629 89.2422H271.493C270.918 90.0625 270.016 90.5547 268.963 90.5547C267.186 90.5547 265.723 89.2012 265.723 87.2871C265.723 85.4414 267.077 83.9512 269.182 83.9648ZM269.182 85.0449C267.883 85.0449 266.913 86.0566 266.926 87.2734C266.926 88.5039 267.842 89.4746 269.141 89.4746C270.426 89.4746 271.438 88.4082 271.438 87.2461C271.438 86.1113 270.495 85.0449 269.182 85.0449Z" fill="#202020"/>
<rect x="140" y="110" width="4" height="4" rx="2" fill="#0096D0"/>
<path d="M156.494 110.59C156.385 109.619 155.496 109.059 154.307 109.059C152.994 109.059 152.133 109.742 152.133 110.686C152.133 111.725 153.295 112.107 154.047 112.299L155.031 112.572C156.098 112.846 157.834 113.461 157.834 115.307C157.834 116.92 156.535 118.178 154.238 118.178C152.105 118.178 150.779 117.07 150.67 115.43H151.928C152.037 116.537 153.062 117.057 154.238 117.057C155.605 117.057 156.631 116.359 156.631 115.279C156.631 114.322 155.715 113.953 154.676 113.652L153.459 113.324C151.9 112.873 150.943 112.08 150.943 110.74C150.943 109.072 152.434 107.965 154.348 107.965C156.262 107.965 157.643 109.086 157.697 110.59H156.494ZM159.755 118H158.47L162.093 108.102H163.392L167.015 118H165.716L164.732 115.211H160.753L159.755 118ZM161.122 114.131H164.349L162.777 109.701H162.695L161.122 114.131ZM168.075 118V108.102H171.438C173.762 108.102 174.815 109.482 174.815 111.246C174.815 112.996 173.762 114.404 171.452 114.404H169.305V118H168.075ZM169.305 113.311H171.397C172.969 113.311 173.598 112.422 173.598 111.246C173.598 110.057 172.969 109.195 171.383 109.195H169.305V113.311ZM184.892 110.59C184.782 109.619 183.894 109.059 182.704 109.059C181.392 109.059 180.53 109.742 180.53 110.686C180.53 111.725 181.692 112.107 182.444 112.299L183.429 112.572C184.495 112.846 186.232 113.461 186.232 115.307C186.232 116.92 184.933 118.178 182.636 118.178C180.503 118.178 179.177 117.07 179.067 115.43H180.325C180.435 116.537 181.46 117.057 182.636 117.057C184.003 117.057 185.028 116.359 185.028 115.279C185.028 114.322 184.112 113.953 183.073 113.652L181.857 113.324C180.298 112.873 179.341 112.08 179.341 110.74C179.341 109.072 180.831 107.965 182.745 107.965C184.659 107.965 186.04 109.086 186.095 110.59H184.892ZM191.092 107.637L187.893 119.49H186.827L190.012 107.637H191.092ZM191.701 115.977V114.965L196.158 108.102H197.675V114.896H199.056V115.977H197.675V118H196.5V115.977H191.701ZM193.027 114.896H196.5V109.66H196.377L193.027 114.814V114.896ZM200.567 118V108.102H201.798V112.504H207.034V108.102H208.278V118H207.034V113.584H201.798V118H200.567ZM210.61 118H209.324L212.947 108.102H214.246L217.869 118H216.571L215.586 115.211H211.608L210.61 118ZM211.977 114.131H215.203L213.631 109.701H213.549L211.977 114.131ZM226.791 108.102V118H225.615L220.255 110.289H220.16V118H218.929V108.102H220.119L225.478 115.826H225.574V108.102H226.791ZM229.136 118H227.85L231.473 108.102H232.772L236.395 118H235.096L234.112 115.211H230.134L229.136 118ZM230.503 114.131H233.729L232.157 109.701H232.075L230.503 114.131ZM247.258 108.102V118H246.014V109.387H245.96L243.553 110.986V109.742L246.014 108.102H247.258ZM252.912 107.965C254.621 107.979 256.508 109.004 256.508 112.654C256.508 116.168 255.072 118.137 252.748 118.137C251.012 118.137 249.781 117.07 249.535 115.498H250.752C250.971 116.387 251.641 117.043 252.748 117.043C254.361 117.043 255.346 115.648 255.359 113.242H255.223C254.648 114.062 253.746 114.555 252.693 114.555C250.916 114.555 249.453 113.201 249.453 111.287C249.453 109.441 250.807 107.951 252.912 107.965ZM252.912 109.045C251.613 109.045 250.643 110.057 250.656 111.273C250.656 112.504 251.572 113.475 252.871 113.475C254.156 113.475 255.168 112.408 255.168 111.246C255.168 110.111 254.225 109.045 252.912 109.045ZM261.163 118.137C258.962 118.137 257.704 116.291 257.704 113.051C257.704 109.838 258.989 107.965 261.163 107.965C263.337 107.965 264.622 109.838 264.622 113.051C264.622 116.291 263.351 118.137 261.163 118.137ZM261.163 117.043C262.585 117.043 263.419 115.607 263.419 113.051C263.419 110.494 262.585 109.031 261.163 109.031C259.741 109.031 258.894 110.494 258.894 113.051C258.894 115.607 259.728 117.043 261.163 117.043ZM269.278 107.965C270.987 107.979 272.874 109.004 272.874 112.654C272.874 116.168 271.438 118.137 269.114 118.137C267.377 118.137 266.147 117.07 265.901 115.498H267.118C267.336 116.387 268.006 117.043 269.114 117.043C270.727 117.043 271.711 115.648 271.725 113.242H271.588C271.014 114.062 270.112 114.555 269.059 114.555C267.282 114.555 265.819 113.201 265.819 111.287C265.819 109.441 267.172 107.951 269.278 107.965ZM269.278 109.045C267.979 109.045 267.008 110.057 267.022 111.273C267.022 112.504 267.938 113.475 269.237 113.475C270.522 113.475 271.534 112.408 271.534 111.246C271.534 110.111 270.59 109.045 269.278 109.045Z" fill="#202020"/>
<rect width="1" height="24" transform="translate(64.5 130)" fill="#E1E7EE"/>
<rect x="2" y="156" width="126" height="126" rx="63" fill="white"/>
<rect x="2" y="156" width="126" height="126" rx="63" stroke="#15ABE6" stroke-width="4"/>
<path d="M45.5955 201.373V202.809H34.2068V201.373H39.0057V198.83H35.41V192.732H44.324V198.83H40.742V201.373H45.5955ZM37.1326 194.127V197.463H42.6014V194.127H37.1326ZM57.4014 197.955V199.35H46.0264V197.955H57.4014ZM56.1573 195.549V196.943H47.4073V192.268H56.0343V193.662H49.1436V195.549H56.1573ZM56.2257 202.631V204.025H47.3936V200.32H49.1163V202.631H56.2257ZM71.2516 191.816V204.258H69.4879V191.816H71.2516ZM67.5192 193.115C67.5192 196.889 66.193 200.02 61.7496 202.125L60.8336 200.73C64.0465 199.213 65.4616 197.244 65.7418 194.482H61.5036V193.115H67.5192ZM76.0849 192.35C77.6777 192.336 78.9423 193.245 79.2841 194.578H81.3622V191.816H83.0986V198.502H81.3622V195.973H79.2978C78.9697 197.34 77.6913 198.27 76.0849 198.27C74.1708 198.27 72.7626 197.025 72.7763 195.289C72.7626 193.58 74.1708 192.336 76.0849 192.35ZM76.0849 193.799C75.1142 193.785 74.4169 194.359 74.4306 195.289C74.4169 196.219 75.1142 196.807 76.0849 196.807C77.0282 196.807 77.7118 196.219 77.7118 195.289C77.7118 194.359 77.0282 193.785 76.0849 193.799ZM76.5224 199.049V200.252H81.3622V199.049H83.0986V204.121H74.7997V199.049H76.5224ZM76.5224 202.713H81.3622V201.592H76.5224V202.713ZM88.465 192.65C90.4338 192.637 91.9104 193.922 91.9104 195.699C91.9104 197.49 90.4338 198.762 88.465 198.762C86.4963 198.762 85.0061 197.49 85.0061 195.699C85.0061 193.922 86.4963 192.637 88.465 192.65ZM88.465 194.154C87.4807 194.154 86.7287 194.729 86.7424 195.699C86.7287 196.684 87.4807 197.244 88.465 197.244C89.4494 197.244 90.2014 196.684 90.215 195.699C90.2014 194.729 89.4631 194.154 88.465 194.154ZM94.8908 191.816V204.285H93.1545V191.816H94.8908ZM84.4865 200.32C86.7014 200.334 89.7775 200.293 92.4436 199.924L92.5803 201.182C89.8186 201.715 86.8654 201.742 84.6916 201.742L84.4865 200.32ZM19.5123 209.816V222.285H17.7486V209.816H19.5123ZM11.4596 210.801V213.836H14.1393V210.801H15.8619V219.373H9.70957V210.801H11.4596ZM11.4596 217.965H14.1393V215.189H11.4596V217.965ZM32.3026 219.332V220.754H20.9139V219.332H32.3026ZM27.5038 212.277C27.5038 214.014 29.0624 215.654 31.8788 216.078L31.1952 217.459C29.0145 217.076 27.4013 216.01 26.6014 214.533C25.8085 216.037 24.2089 217.145 22.0624 217.527L21.3788 216.133C24.0995 215.709 25.6718 214.014 25.6718 212.277V212.264H21.8573V210.869H31.3046V212.264H27.5038V212.277ZM43.1925 209.816V222.258H41.4562V209.816H43.1925ZM35.1261 211.006V217.691C36.8078 217.671 38.6125 217.514 40.4445 217.158L40.6632 218.594C38.4757 219.045 36.425 219.195 34.4972 219.182H33.4035V211.006H35.1261ZM51.102 211.457C51.102 213.275 52.7153 215.23 55.5317 215.709L54.7661 217.158C52.5991 216.728 50.9858 215.511 50.186 213.904C49.3588 215.497 47.7455 216.721 45.5922 217.158L44.8403 215.709C47.602 215.217 49.2289 213.262 49.2426 211.457V210.555H51.102V211.457ZM55.9418 219.291V220.727H44.5532V219.291H55.9418ZM64.0225 211.512C64.0088 213.18 64.8701 214.711 66.8662 215.326L65.9502 216.693C64.6104 216.229 63.7012 215.367 63.1885 214.246C62.6279 215.545 61.623 216.57 60.126 217.076L59.21 215.682C61.3428 214.998 62.2451 213.33 62.2588 211.594V210.459H64.0225V211.512ZM69.8057 209.816V217.104H68.0693V213.521H65.7314V212.1H68.0693V209.816H69.8057ZM65.5537 217.432C68.2061 217.432 69.833 218.32 69.8467 219.852C69.833 221.383 68.2061 222.258 65.5537 222.258C62.9014 222.258 61.2744 221.383 61.2744 219.852C61.2744 218.32 62.9014 217.432 65.5537 217.432ZM65.5537 218.785C63.8994 218.785 63.0107 219.141 63.0107 219.852C63.0107 220.535 63.8994 220.904 65.5537 220.904C67.208 220.904 68.1104 220.535 68.1104 219.852C68.1104 219.141 67.208 218.785 65.5537 218.785ZM76.7444 217.568C79.4651 217.568 81.1741 218.43 81.1878 219.92C81.1741 221.383 79.4651 222.258 76.7444 222.258C74.0511 222.258 72.3147 221.383 72.3147 219.92C72.3147 218.43 74.0511 217.568 76.7444 217.568ZM76.7444 218.867C75.0354 218.867 74.0511 219.223 74.0511 219.92C74.0511 220.59 75.0354 220.932 76.7444 220.932C78.4534 220.932 79.4514 220.59 79.4514 219.92C79.4514 219.223 78.4534 218.867 76.7444 218.867ZM81.1194 210.377V211.389C81.1194 212.373 81.1194 213.439 80.7639 214.725L79.055 214.561C79.3284 213.433 79.3626 212.592 79.3831 211.744H72.4378V210.377H81.1194ZM82.4593 215.367V216.775H71.1663V215.367H75.4046V213.193H77.1272V215.367H82.4593ZM88.6324 209.994C91.4898 209.994 93.1441 210.746 93.1578 212.113C93.1441 213.494 91.4898 214.246 88.6324 214.246C85.7613 214.246 84.0933 213.494 84.0933 212.113C84.0933 210.746 85.7613 209.994 88.6324 209.994ZM88.6324 211.266C86.8004 211.266 85.9117 211.566 85.9254 212.113C85.9117 212.729 86.8004 212.961 88.6324 212.961C90.4781 212.961 91.3531 212.729 91.3531 212.113C91.3531 211.566 90.4781 211.266 88.6324 211.266ZM94.3062 214.834V216.215H82.9586V214.834H94.3062ZM92.9254 216.939V220.111H85.9937V220.863H93.2535V222.176H84.2847V218.895H91.2027V218.211H84.2711V216.939H92.9254ZM101.785 210.336C103.686 210.322 105.067 211.402 105.067 212.975C105.067 214.533 103.686 215.627 101.785 215.613C99.8849 215.627 98.504 214.533 98.5177 212.975C98.504 211.402 99.8849 210.322 101.785 210.336ZM101.785 211.73C100.856 211.73 100.199 212.182 100.199 212.975C100.199 213.754 100.856 214.205 101.785 214.191C102.742 214.205 103.412 213.754 103.412 212.975C103.412 212.182 102.742 211.73 101.785 211.73ZM108.211 209.83V222.258H106.488V209.83H108.211ZM97.7521 216.379C99.9532 216.379 103.084 216.324 105.736 215.928L105.846 217.213C104.82 217.418 103.768 217.548 102.729 217.623V221.889H100.992V217.732C99.8986 217.78 98.8663 217.787 97.9708 217.801L97.7521 216.379ZM119.415 209.83V213.645H121.097V215.066H119.415V219.113H117.665V209.83H119.415ZM116.927 211.129V212.51H109.544V211.129H112.374V209.803H114.111V211.129H116.927ZM113.236 212.947C115.04 212.947 116.298 213.918 116.298 215.354C116.298 216.789 115.04 217.732 113.236 217.732C111.417 217.732 110.146 216.789 110.146 215.354C110.146 213.918 111.417 212.947 113.236 212.947ZM113.236 214.273C112.402 214.287 111.841 214.67 111.855 215.354C111.841 216.037 112.402 216.406 113.236 216.406C114.07 216.406 114.644 216.037 114.644 215.354C114.644 214.67 114.07 214.287 113.236 214.273ZM119.867 220.645V222.039H111.349V218.402H113.085V220.645H119.867Z" fill="black"/>
<path d="M44.6932 233.83V240.994H42.9568V239.777H40.1541V238.383H42.9568V237.193H40.2771C39.5047 239.162 37.741 240.516 34.9998 241.268L34.3162 239.887C37.1805 239.135 38.5818 237.768 38.8279 236.059H34.9861V234.664H40.7283C40.7283 235.067 40.701 235.457 40.6463 235.826H42.9568V233.83H44.6932ZM40.5506 241.145C43.0799 241.145 44.7752 242.115 44.7889 243.66C44.7752 245.219 43.0799 246.203 40.5506 246.203C37.9939 246.203 36.285 245.219 36.2986 243.66C36.285 242.115 37.9939 241.145 40.5506 241.145ZM40.5506 242.512C38.9783 242.498 38.035 242.895 38.035 243.66C38.035 244.426 38.9783 244.822 40.5506 244.822C42.0955 244.822 43.0389 244.426 43.0389 243.66C43.0389 242.895 42.0955 242.498 40.5506 242.512ZM56.5128 233.816V241.336H54.7764V238.889H53.1632V237.467H54.7764V233.816H56.5128ZM56.5128 241.869V246.121H48.1456V241.869H56.5128ZM49.8956 243.236V244.727H54.8038V243.236H49.8956ZM53.3819 234.896V236.291H46.0538V234.896H48.8702V233.707H50.5929V234.896H53.3819ZM49.7315 236.701C51.4815 236.701 52.712 237.631 52.712 238.93C52.712 240.283 51.4815 241.186 49.7315 241.186C47.9952 241.186 46.7374 240.283 46.7374 238.93C46.7374 237.631 47.9952 236.701 49.7315 236.701ZM49.7315 238.014C48.9249 238.014 48.4054 238.342 48.419 238.93C48.4054 239.559 48.9249 239.9 49.7315 239.9C50.5245 239.9 51.044 239.559 51.044 238.93C51.044 238.342 50.5245 238.014 49.7315 238.014ZM67.3551 234.76C67.3551 238.232 65.8649 240.598 61.6676 241.938L60.9977 240.598C62.775 240.023 63.9166 239.312 64.6071 238.451L61.2438 238.725L60.9977 237.344L65.2907 237.193C65.4 236.872 65.4752 236.523 65.5094 236.168H61.6266V234.76H67.3551ZM71.2789 233.83V243.004H69.5426V238.998H67.2868V237.59H69.5426V233.83H71.2789ZM71.5934 244.645V246.039H63.0895V242.115H64.8532V244.645H71.5934ZM83.0986 233.816V240.146H81.3622V237.057H79.0243V235.676H81.3622V233.816H83.0986ZM83.0986 240.666V243.988H76.5634V244.754H83.454V246.121H74.8407V242.717H81.3759V242.006H74.8271V240.666H83.0986ZM77.2743 235.129C77.2607 236.619 78.1357 238.055 80.1181 238.643L79.2021 239.982C77.8691 239.552 76.9394 238.718 76.3993 237.645C75.8593 238.841 74.8749 239.784 73.4189 240.242L72.5165 238.861C74.581 238.26 75.497 236.742 75.5107 235.129V234.227H77.2743V235.129ZM91.1447 234.678V236.072H86.8654V237.043H90.7756V238.396H86.8654V239.395C89.0529 239.395 90.4406 239.367 92.0197 239.107L92.1975 240.475C90.4201 240.762 88.8479 240.803 86.1818 240.789H85.1154V234.678H91.1447ZM94.8498 233.83V241.363H93.0998V233.83H94.8498ZM90.6115 241.527C93.2365 241.527 94.9045 242.402 94.9182 243.893C94.9045 245.396 93.2365 246.258 90.6115 246.258C87.9455 246.258 86.3322 245.396 86.3322 243.893C86.3322 242.402 87.9455 241.527 90.6115 241.527ZM90.6115 242.881C88.9436 242.881 88.0686 243.223 88.0686 243.893C88.0686 244.576 88.9436 244.932 90.6115 244.932C92.2658 244.932 93.1682 244.576 93.1682 243.893C93.1682 243.223 92.2658 242.881 90.6115 242.881Z" fill="#0096D0"/>
<rect x="140" y="180" width="4" height="4" rx="2" fill="#0096D0"/>
<path d="M156.494 180.59C156.385 179.619 155.496 179.059 154.307 179.059C152.994 179.059 152.133 179.742 152.133 180.686C152.133 181.725 153.295 182.107 154.047 182.299L155.031 182.572C156.098 182.846 157.834 183.461 157.834 185.307C157.834 186.92 156.535 188.178 154.238 188.178C152.105 188.178 150.779 187.07 150.67 185.43H151.928C152.037 186.537 153.062 187.057 154.238 187.057C155.605 187.057 156.631 186.359 156.631 185.279C156.631 184.322 155.715 183.953 154.676 183.652L153.459 183.324C151.9 182.873 150.943 182.08 150.943 180.74C150.943 179.072 152.434 177.965 154.348 177.965C156.262 177.965 157.643 179.086 157.697 180.59H156.494ZM159.755 188H158.47L162.093 178.102H163.392L167.015 188H165.716L164.732 185.211H160.753L159.755 188ZM161.122 184.131H164.349L162.777 179.701H162.695L161.122 184.131ZM168.075 188V178.102H171.438C173.762 178.102 174.815 179.482 174.815 181.246C174.815 182.996 173.762 184.404 171.452 184.404H169.305V188H168.075ZM169.305 183.311H171.397C172.969 183.311 173.598 182.422 173.598 181.246C173.598 180.057 172.969 179.195 171.383 179.195H169.305V183.311ZM179.491 188V178.102H185.493V179.195H180.722V182.504H185.179V183.584H180.722V186.906H185.562V188H179.491ZM187.155 188V178.102H190.518C192.842 178.102 193.895 179.387 193.895 181.15C193.895 182.456 193.307 183.488 192.049 183.926L194.278 188H192.842L190.778 184.145L190.532 184.158H188.385V188H187.155ZM188.385 183.037H190.477C192.049 183.037 192.678 182.326 192.678 181.15C192.678 179.961 192.049 179.195 190.463 179.195H188.385V183.037ZM195.392 188V178.102H198.756C201.08 178.102 202.132 179.482 202.132 181.246C202.132 182.996 201.08 184.404 198.769 184.404H196.623V188H195.392ZM196.623 183.311H198.715C200.287 183.311 200.916 182.422 200.916 181.246C200.916 180.057 200.287 179.195 198.701 179.195H196.623V183.311ZM209.694 188.15C207.67 188.15 206.303 186.633 206.303 184.322C206.303 182.012 207.67 180.48 209.694 180.48C211.703 180.48 213.057 182.012 213.057 184.322C213.057 186.633 211.703 188.15 209.694 188.15ZM209.694 187.111C211.184 187.111 211.881 185.799 211.881 184.322C211.881 182.846 211.184 181.52 209.694 181.52C208.176 181.52 207.479 182.846 207.479 184.322C207.479 185.799 208.176 187.111 209.694 187.111ZM215.498 183.543V188H214.322V180.576H215.457V181.738H215.552C215.908 180.986 216.591 180.48 217.726 180.48C219.23 180.48 220.228 181.396 220.228 183.283V188H219.052V183.365C219.052 182.217 218.423 181.533 217.371 181.533C216.291 181.533 215.498 182.258 215.498 183.543ZM231.973 181.219C231.686 179.852 230.51 179.113 229.211 179.113C227.42 179.113 226.025 180.494 226.025 183.051C226.025 185.607 227.42 186.988 229.211 186.988C230.51 186.988 231.672 186.25 231.973 184.896H233.203C232.848 186.92 231.221 188.137 229.211 188.137C226.668 188.137 224.836 186.182 224.836 183.051C224.836 179.92 226.668 177.965 229.211 177.965C231.207 177.965 232.834 179.168 233.203 181.219H231.973ZM235.671 178.102V188H234.495V178.102H235.671ZM240.299 188.15C238.276 188.15 236.909 186.633 236.909 184.322C236.909 182.012 238.276 180.48 240.299 180.48C242.309 180.48 243.663 182.012 243.663 184.322C243.663 186.633 242.309 188.15 240.299 188.15ZM240.299 187.111C241.79 187.111 242.487 185.799 242.487 184.322C242.487 182.846 241.79 181.52 240.299 181.52C238.782 181.52 238.085 182.846 238.085 184.322C238.085 185.799 238.782 187.111 240.299 187.111ZM249.617 184.951V180.576H250.779V188H249.617V186.742H249.535C249.18 187.494 248.455 188.096 247.334 188.096C245.926 188.096 244.928 187.18 244.928 185.293V180.576H246.103V185.211C246.103 186.277 246.773 186.961 247.717 186.961C248.551 186.961 249.617 186.332 249.617 184.951ZM255.189 188.15C253.343 188.15 252.03 186.66 252.03 184.309C252.03 181.957 253.343 180.48 255.202 180.48C256.638 180.48 257.103 181.355 257.349 181.752H257.431V178.102H258.62V188H257.472V186.865H257.349C257.089 187.275 256.611 188.15 255.189 188.15ZM255.353 187.098C256.706 187.098 257.472 185.949 257.472 184.281C257.472 182.641 256.734 181.533 255.353 181.533C253.931 181.533 253.22 182.736 253.22 184.281C253.22 185.867 253.945 187.098 255.353 187.098Z" fill="#202020"/>
<rect x="140" y="204" width="4" height="4" rx="2" fill="#0096D0"/>
<path d="M152.926 212L150.219 202.102H151.463L153.527 210.113H153.623L155.715 202.102H157.096L159.201 210.113H159.283L161.348 202.102H162.592L159.885 212H158.613L156.453 204.166H156.371L154.197 212H152.926ZM165.894 212.15C163.747 212.15 162.421 210.633 162.421 208.35C162.421 206.066 163.761 204.48 165.784 204.48C167.343 204.48 168.984 205.438 168.984 208.186V208.678H163.597C163.652 210.25 164.568 211.111 165.894 211.111C166.783 211.111 167.343 210.729 167.616 210.264H168.874C168.519 211.385 167.425 212.15 165.894 212.15ZM163.611 207.68H167.794C167.794 206.436 167.001 205.52 165.784 205.52C164.499 205.52 163.679 206.531 163.611 207.68ZM170.385 212V202.102H171.561V205.752H171.657C171.917 205.355 172.354 204.48 173.803 204.48C175.663 204.48 176.975 205.957 176.975 208.309C176.975 210.66 175.663 212.15 173.817 212.15C172.395 212.15 171.917 211.275 171.657 210.865H171.52V212H170.385ZM171.534 208.281C171.534 209.949 172.286 211.098 173.639 211.098C175.047 211.098 175.786 209.867 175.786 208.281C175.786 206.736 175.075 205.533 173.639 205.533C172.272 205.533 171.534 206.641 171.534 208.281ZM184.263 212.137C182.321 212.137 181.105 210.975 181.105 209.375C181.105 208.172 181.898 207.44 183.06 206.627C182.383 205.82 181.911 205.137 181.911 204.262C181.911 202.922 182.855 202.006 184.317 202.006C185.808 202.006 186.724 202.963 186.724 204.084C186.724 205.027 186.218 205.684 185.411 206.285L184.687 206.832L186.819 209.416C187.072 208.924 187.23 208.329 187.23 207.652H188.364C188.364 209.026 187.947 209.84 187.571 210.332L188.939 212H187.53L186.833 211.166C186.191 211.809 185.179 212.137 184.263 212.137ZM182.308 209.375C182.308 210.291 183.073 211.098 184.235 211.098C184.905 211.098 185.589 210.824 186.136 210.318L183.784 207.502L183.442 207.762C182.554 208.404 182.308 209.088 182.308 209.375ZM183.087 204.275C183.087 204.822 183.49 205.376 183.976 205.957L184.632 205.479C185.179 205.109 185.548 204.754 185.548 204.084C185.548 203.592 185.056 203.018 184.359 203.018C183.607 203.018 183.087 203.66 183.087 204.275ZM193.095 202.102H194.572L197.908 210.25H198.031L201.367 202.102H202.843V212H201.681V204.521H201.586L198.509 212H197.416L194.34 204.521H194.257V212H193.095V202.102ZM207.636 212.15C205.612 212.15 204.245 210.633 204.245 208.322C204.245 206.012 205.612 204.48 207.636 204.48C209.645 204.48 210.999 206.012 210.999 208.322C210.999 210.633 209.645 212.15 207.636 212.15ZM207.636 211.111C209.126 211.111 209.823 209.799 209.823 208.322C209.823 206.846 209.126 205.52 207.636 205.52C206.118 205.52 205.421 206.846 205.421 208.322C205.421 209.799 206.118 211.111 207.636 211.111ZM212.414 212V202.102H213.59V205.752H213.686C213.946 205.355 214.383 204.48 215.832 204.48C217.692 204.48 219.004 205.957 219.004 208.309C219.004 210.66 217.692 212.15 215.846 212.15C214.424 212.15 213.946 211.275 213.686 210.865H213.549V212H212.414ZM213.563 208.281C213.563 209.949 214.315 211.098 215.668 211.098C217.076 211.098 217.815 209.867 217.815 208.281C217.815 206.736 217.104 205.533 215.668 205.533C214.301 205.533 213.563 206.641 213.563 208.281ZM220.255 212V204.576H221.431V212H220.255ZM220.843 203.346C220.392 203.346 220.023 203.004 220.023 202.566C220.023 202.129 220.392 201.787 220.843 201.787C221.294 201.787 221.677 202.129 221.677 202.566C221.677 203.004 221.294 203.346 220.843 203.346ZM224.2 202.102V212H223.024V202.102H224.2ZM228.91 212.15C226.764 212.15 225.438 210.633 225.438 208.35C225.438 206.066 226.777 204.48 228.801 204.48C230.359 204.48 232 205.438 232 208.186V208.678H226.613C226.668 210.25 227.584 211.111 228.91 211.111C229.799 211.111 230.359 210.729 230.633 210.264H231.891C231.535 211.385 230.441 212.15 228.91 212.15ZM226.627 207.68H230.811C230.811 206.436 230.018 205.52 228.801 205.52C227.516 205.52 226.695 206.531 226.627 207.68Z" fill="#202020"/>
<rect x="140" y="228" width="4" height="4" rx="2" fill="#0096D0"/>
<path d="M151.094 236V226.102H154.566C156.645 226.102 157.615 227.264 157.615 228.727C157.615 229.998 156.863 230.572 156.002 230.805V230.9C156.918 230.955 158.012 231.803 158.012 233.375C158.012 234.865 157.027 236 154.689 236H151.094ZM154.676 234.906C156.221 234.906 156.822 234.223 156.822 233.361C156.822 232.35 156.016 231.502 154.744 231.502H152.324V234.906H154.676ZM154.525 230.436C155.592 230.436 156.439 229.779 156.439 228.74C156.439 227.879 155.865 227.195 154.566 227.195H152.324V230.436H154.525ZM164.021 232.951V228.576H165.183V236H164.021V234.742H163.939C163.583 235.494 162.859 236.096 161.738 236.096C160.329 236.096 159.331 235.18 159.331 233.293V228.576H160.507V233.211C160.507 234.277 161.177 234.961 162.12 234.961C162.954 234.961 164.021 234.332 164.021 232.951ZM170.919 230.504C170.754 229.889 170.29 229.479 169.415 229.479C168.499 229.479 167.842 229.971 167.842 230.6C167.842 231.092 168.239 231.434 169.114 231.639L170.221 231.912C171.547 232.227 172.204 232.883 172.204 233.922C172.204 235.207 171.151 236.15 169.292 236.15C167.624 236.15 166.626 235.412 166.434 234.059H167.665C167.801 234.783 168.335 235.125 169.264 235.125C170.317 235.125 170.987 234.688 170.987 233.99C170.987 233.471 170.618 233.115 169.77 232.924L168.649 232.664C167.35 232.363 166.667 231.652 166.667 230.668C166.667 229.396 167.774 228.48 169.415 228.48C170.946 228.48 171.917 229.301 172.067 230.504H170.919ZM173.455 236V228.576H174.631V236H173.455ZM174.043 227.346C173.592 227.346 173.222 227.004 173.222 226.566C173.222 226.129 173.592 225.787 174.043 225.787C174.494 225.787 174.877 226.129 174.877 226.566C174.877 227.004 174.494 227.346 174.043 227.346ZM177.4 231.543V236H176.224V228.576H177.359V229.738H177.454C177.81 228.986 178.493 228.48 179.628 228.48C181.132 228.48 182.13 229.396 182.13 231.283V236H180.954V231.365C180.954 230.217 180.325 229.533 179.273 229.533C178.192 229.533 177.4 230.258 177.4 231.543ZM186.854 236.15C184.707 236.15 183.381 234.633 183.381 232.35C183.381 230.066 184.721 228.48 186.745 228.48C188.303 228.48 189.944 229.438 189.944 232.186V232.678H184.557C184.612 234.25 185.528 235.111 186.854 235.111C187.743 235.111 188.303 234.729 188.577 234.264H189.834C189.479 235.385 188.385 236.15 186.854 236.15ZM184.571 231.68H188.754C188.754 230.436 187.961 229.52 186.745 229.52C185.459 229.52 184.639 230.531 184.571 231.68ZM195.324 230.504C195.16 229.889 194.695 229.479 193.82 229.479C192.904 229.479 192.248 229.971 192.248 230.6C192.248 231.092 192.644 231.434 193.519 231.639L194.627 231.912C195.953 232.227 196.609 232.883 196.609 233.922C196.609 235.207 195.556 236.15 193.697 236.15C192.029 236.15 191.031 235.412 190.84 234.059H192.07C192.207 234.783 192.74 235.125 193.67 235.125C194.722 235.125 195.392 234.688 195.392 233.99C195.392 233.471 195.023 233.115 194.175 232.924L193.054 232.664C191.756 232.363 191.072 231.652 191.072 230.668C191.072 229.396 192.179 228.48 193.82 228.48C195.351 228.48 196.322 229.301 196.472 230.504H195.324ZM201.989 230.504C201.825 229.889 201.36 229.479 200.485 229.479C199.569 229.479 198.913 229.971 198.913 230.6C198.913 231.092 199.31 231.434 200.185 231.639L201.292 231.912C202.618 232.227 203.274 232.883 203.274 233.922C203.274 235.207 202.222 236.15 200.362 236.15C198.694 236.15 197.696 235.412 197.505 234.059H198.735C198.872 234.783 199.405 235.125 200.335 235.125C201.388 235.125 202.058 234.688 202.058 233.99C202.058 233.471 201.688 233.115 200.841 232.924L199.72 232.664C198.421 232.363 197.737 231.652 197.737 230.668C197.737 229.396 198.845 228.48 200.485 228.48C202.017 228.48 202.987 229.301 203.138 230.504H201.989ZM214.664 229.219C214.376 227.852 213.201 227.113 211.902 227.113C210.111 227.113 208.716 228.494 208.716 231.051C208.716 233.607 210.111 234.988 211.902 234.988C213.201 234.988 214.363 234.25 214.664 232.896H215.894C215.539 234.92 213.912 236.137 211.902 236.137C209.359 236.137 207.527 234.182 207.527 231.051C207.527 227.92 209.359 225.965 211.902 225.965C213.898 225.965 215.525 227.168 215.894 229.219H214.664ZM220.221 236.15C218.198 236.15 216.831 234.633 216.831 232.322C216.831 230.012 218.198 228.48 220.221 228.48C222.231 228.48 223.585 230.012 223.585 232.322C223.585 234.633 222.231 236.15 220.221 236.15ZM220.221 235.111C221.712 235.111 222.409 233.799 222.409 232.322C222.409 230.846 221.712 229.52 220.221 229.52C218.704 229.52 218.007 230.846 218.007 232.322C218.007 233.799 218.704 235.111 220.221 235.111ZM226.025 231.543V236H224.85V228.576H225.984V229.738H226.08C226.436 228.986 227.119 228.48 228.254 228.48C229.758 228.48 230.756 229.396 230.756 231.283V236H229.58V231.365C229.58 230.217 228.951 229.533 227.899 229.533C226.818 229.533 226.025 230.258 226.025 231.543ZM236.492 230.504C236.327 229.889 235.863 229.479 234.988 229.479C234.072 229.479 233.415 229.971 233.415 230.6C233.415 231.092 233.812 231.434 234.687 231.639L235.794 231.912C237.12 232.227 237.777 232.883 237.777 233.922C237.777 235.207 236.724 236.15 234.865 236.15C233.197 236.15 232.199 235.412 232.007 234.059H233.238C233.374 234.783 233.908 235.125 234.837 235.125C235.89 235.125 236.56 234.688 236.56 233.99C236.56 233.471 236.191 233.115 235.343 232.924L234.222 232.664C232.923 232.363 232.24 231.652 232.24 230.668C232.24 229.396 233.347 228.48 234.988 228.48C236.519 228.48 237.49 229.301 237.64 230.504H236.492ZM243.717 232.951V228.576H244.88V236H243.717V234.742H243.635C243.28 235.494 242.555 236.096 241.434 236.096C240.026 236.096 239.028 235.18 239.028 233.293V228.576H240.204V233.211C240.204 234.277 240.874 234.961 241.817 234.961C242.651 234.961 243.717 234.332 243.717 232.951ZM247.662 226.102V236H246.486V226.102H247.662ZM252.495 228.576V229.561H250.937V233.867C250.937 234.824 251.402 234.975 251.907 234.975C252.126 234.975 252.427 234.961 252.605 234.947V236.041C252.427 236.068 252.126 236.096 251.784 236.096C250.8 236.096 249.747 235.48 249.747 234.168V229.561H248.626V228.576H249.747V226.799H250.937V228.576H252.495ZM253.733 236V228.576H254.909V236H253.733ZM254.321 227.346C253.87 227.346 253.5 227.004 253.5 226.566C253.5 226.129 253.87 225.787 254.321 225.787C254.772 225.787 255.155 226.129 255.155 226.566C255.155 227.004 254.772 227.346 254.321 227.346ZM257.677 231.543V236H256.502V228.576H257.636V229.738H257.732C258.088 228.986 258.771 228.48 259.906 228.48C261.41 228.48 262.408 229.396 262.408 231.283V236H261.232V231.365C261.232 230.217 260.603 229.533 259.551 229.533C258.47 229.533 257.677 230.258 257.677 231.543ZM267.022 238.939C265.231 238.939 264.015 238.16 263.878 236.779H265.108C265.272 237.531 265.97 237.914 267.022 237.914C268.294 237.914 269.073 237.367 269.073 236.137V234.633H268.978C268.731 235.043 268.253 235.891 266.817 235.891C265.013 235.891 263.659 234.523 263.659 232.186C263.659 229.902 264.972 228.48 266.831 228.48C268.267 228.48 268.731 229.355 269.005 229.752H269.101V228.576H270.249V236.205C270.249 238.119 268.827 238.939 267.022 238.939ZM266.981 234.838C268.335 234.838 269.101 233.867 269.101 232.227C269.101 230.641 268.362 229.533 266.981 229.533C265.56 229.533 264.849 230.736 264.849 232.227C264.849 233.771 265.573 234.838 266.981 234.838Z" fill="#202020"/>
<rect x="140" y="252" width="4" height="4" rx="2" fill="#0096D0"/>
<path d="M152.324 250.102V260H151.094V250.102H152.324ZM153.685 251.195V250.102H161.15V251.195H158.046V260H156.802V251.195H153.685ZM174.111 255.051C174.111 258.182 172.265 260.137 169.736 260.137C167.193 260.137 165.361 258.182 165.361 255.051C165.361 251.92 167.193 249.965 169.736 249.965C172.265 249.965 174.111 251.92 174.111 255.051ZM172.922 255.051C172.922 252.494 171.527 251.113 169.736 251.113C167.945 251.113 166.551 252.494 166.551 255.051C166.551 257.607 167.945 258.988 169.736 258.988C171.527 258.988 172.922 257.607 172.922 255.051ZM175.485 262.789V252.576H176.62V253.752H176.757C177.003 253.355 177.468 252.48 178.903 252.48C180.763 252.48 182.062 253.957 182.062 256.309C182.062 258.66 180.763 260.15 178.917 260.15C177.495 260.15 177.003 259.275 176.757 258.865H176.661V262.789H175.485ZM176.634 256.281C176.634 257.949 177.386 259.098 178.753 259.098C180.161 259.098 180.886 257.867 180.886 256.281C180.886 254.736 180.175 253.533 178.753 253.533C177.359 253.533 176.634 254.641 176.634 256.281ZM186.43 260.15C184.284 260.15 182.957 258.633 182.957 256.35C182.957 254.066 184.297 252.48 186.321 252.48C187.879 252.48 189.52 253.438 189.52 256.186V256.678H184.133C184.188 258.25 185.104 259.111 186.43 259.111C187.319 259.111 187.879 258.729 188.153 258.264H189.411C189.055 259.385 187.961 260.15 186.43 260.15ZM184.147 255.68H188.33C188.33 254.436 187.537 253.52 186.321 253.52C185.036 253.52 184.215 254.531 184.147 255.68ZM190.771 260V252.576H191.906V253.711H191.988C192.261 252.959 193.027 252.453 193.902 252.453C194.08 252.453 194.381 252.467 194.517 252.48V253.67C194.435 253.643 194.107 253.588 193.806 253.588C192.74 253.588 191.947 254.326 191.947 255.324V260H190.771ZM195.03 257.895C195.03 256.186 196.534 255.803 197.819 255.707C198.291 255.673 199.494 255.611 199.829 255.598V254.996C199.829 254.053 199.269 253.506 198.147 253.506C197.204 253.506 196.644 253.943 196.479 254.504H195.249C195.399 253.314 196.561 252.48 198.202 252.48C199.173 252.48 200.991 252.768 200.991 255.105V260H199.829V258.988H199.774C199.528 259.494 198.845 260.178 197.56 260.178C196.151 260.178 195.03 259.344 195.03 257.895ZM196.206 257.949C196.206 258.729 196.862 259.125 197.765 259.125C199.091 259.125 199.829 258.236 199.829 257.307V256.555L197.956 256.691C196.89 256.76 196.206 257.143 196.206 257.949ZM205.838 252.576V253.561H204.28V257.867C204.28 258.824 204.744 258.975 205.25 258.975C205.469 258.975 205.77 258.961 205.947 258.947V260.041C205.77 260.068 205.469 260.096 205.127 260.096C204.143 260.096 203.09 259.48 203.09 258.168V253.561H201.969V252.576H203.09V250.799H204.28V252.576H205.838ZM207.076 260V252.576H208.251V260H207.076ZM207.664 251.346C207.212 251.346 206.843 251.004 206.843 250.566C206.843 250.129 207.212 249.787 207.664 249.787C208.115 249.787 208.498 250.129 208.498 250.566C208.498 251.004 208.115 251.346 207.664 251.346ZM212.88 260.15C210.856 260.15 209.489 258.633 209.489 256.322C209.489 254.012 210.856 252.48 212.88 252.48C214.889 252.48 216.243 254.012 216.243 256.322C216.243 258.633 214.889 260.15 212.88 260.15ZM212.88 259.111C214.37 259.111 215.067 257.799 215.067 256.322C215.067 254.846 214.37 253.52 212.88 253.52C211.362 253.52 210.665 254.846 210.665 256.322C210.665 257.799 211.362 259.111 212.88 259.111ZM218.684 255.543V260H217.508V252.576H218.643V253.738H218.738C219.094 252.986 219.777 252.48 220.912 252.48C222.416 252.48 223.414 253.396 223.414 255.283V260H222.238V255.365C222.238 254.217 221.609 253.533 220.557 253.533C219.477 253.533 218.684 254.258 218.684 255.543Z" fill="#202020"/>
<rect width="1" height="24" transform="translate(64.5 284)" fill="#E1E7EE"/>
<rect x="2" y="310" width="126" height="126" rx="63" fill="white"/>
<rect x="2" y="310" width="126" height="126" rx="63" stroke="#15ABE6" stroke-width="4"/>
<path d="M28.098 350.547C27.9339 349.453 27.0863 348.783 25.9378 348.783C24.3929 348.783 23.3812 349.973 23.3812 352.051C23.3812 354.184 24.4066 355.318 25.9241 355.318C27.0589 355.318 27.8929 354.689 28.098 353.623L30.1761 353.637C29.9437 355.469 28.4124 357.137 25.8968 357.137C23.2445 357.137 21.2894 355.277 21.2894 352.051C21.2894 348.824 23.2855 346.965 25.8968 346.965C28.18 346.965 29.9027 348.277 30.1761 350.547H28.098ZM33.3141 347.102V357H31.2906V347.102H33.3141ZM37.9423 357.15C35.7001 357.15 34.3055 355.605 34.3055 353.309C34.3055 351.012 35.7001 349.48 37.9423 349.48C40.1845 349.48 41.5927 351.012 41.5927 353.309C41.5927 355.605 40.1845 357.15 37.9423 357.15ZM37.9559 355.578C38.995 355.578 39.5282 354.607 39.5282 353.309C39.5282 351.996 38.995 351.025 37.9559 351.025C36.9032 351.025 36.3563 351.996 36.3563 353.309C36.3563 354.607 36.9032 355.578 37.9559 355.578ZM47.342 353.842V349.576H49.3654V357H47.424V355.66H47.342C47.0002 356.521 46.2072 357.096 45.0861 357.096C43.5959 357.096 42.5841 356.043 42.5841 354.307V349.576H44.6076V353.951C44.6076 354.826 45.1134 355.387 45.9064 355.387C46.6447 355.387 47.342 354.854 47.342 353.842ZM53.392 357.123C51.6967 357.123 50.3705 355.77 50.3705 353.295C50.3705 350.752 51.7514 349.48 53.392 349.48C54.6362 349.48 55.2241 350.219 55.4975 350.82H55.5659V347.102H57.5893V357H55.5932V355.811H55.4975C55.2104 356.426 54.5952 357.123 53.392 357.123ZM54.0209 355.51C55.0327 355.51 55.6069 354.621 55.6069 353.281C55.6069 351.941 55.0327 351.094 54.0209 351.094C52.9955 351.094 52.4487 351.982 52.4487 353.281C52.4487 354.594 52.9955 355.51 54.0209 355.51ZM67.2969 349.932C67.2148 349.152 66.5859 348.688 65.5879 348.688C64.5488 348.688 63.9746 349.166 63.9609 349.822C63.9473 350.533 64.6992 350.861 65.5469 351.053L66.4355 351.271C68.1309 351.654 69.4023 352.516 69.4023 354.17C69.4023 355.988 67.9805 357.137 65.5742 357.137C63.1816 357.137 61.6504 356.029 61.5957 353.91H63.5918C63.6602 354.908 64.4531 355.414 65.5469 355.414C66.627 355.414 67.3242 354.908 67.3242 354.17C67.3242 353.5 66.709 353.186 65.6289 352.912L64.5488 352.652C62.8809 352.242 61.8555 351.408 61.8555 349.959C61.8555 348.154 63.4414 346.965 65.6016 346.965C67.7891 346.965 69.2383 348.182 69.2656 349.932H67.2969ZM73.7845 357.15C71.5149 357.15 70.1204 355.674 70.1204 353.322C70.1204 351.025 71.5286 349.48 73.7024 349.48C75.6575 349.48 77.1888 350.711 77.1888 353.24V353.814H72.1165C72.1165 354.936 72.7864 355.633 73.8255 355.633C74.5091 355.633 75.0013 355.332 75.2063 354.881H77.1341C76.847 356.248 75.6165 357.15 73.7845 357.15ZM72.1165 352.543H75.2747C75.2747 351.641 74.6458 350.998 73.7434 350.998C72.8138 350.998 72.1507 351.688 72.1165 352.543ZM78.1802 357V349.576H80.1353V350.861H80.2173C80.4908 349.945 81.1744 349.467 82.0084 349.467C82.2134 349.467 82.4732 349.494 82.6509 349.535V351.34C82.4595 351.285 82.0767 351.23 81.7896 351.23C80.8736 351.23 80.2037 351.873 80.2037 352.775V357H78.1802ZM90.4784 349.576L87.867 357H85.5975L82.9998 349.576H85.1327L86.6912 354.908H86.7733L88.3319 349.576H90.4784ZM91.1827 357V349.576H93.2062V357H91.1827ZM92.1945 348.605C91.5792 348.605 91.087 348.141 91.087 347.58C91.087 347.006 91.5792 346.541 92.1945 346.541C92.796 346.541 93.2882 347.006 93.2882 347.58C93.2882 348.141 92.796 348.605 92.1945 348.605ZM97.8344 357.15C95.5648 357.15 94.1977 355.578 94.1977 353.309C94.1977 351.039 95.5785 349.48 97.8344 349.48C99.7484 349.48 101.047 350.602 101.129 352.297H99.2289C99.1059 351.559 98.6273 351.053 97.8617 351.053C96.891 351.053 96.2484 351.873 96.2484 353.281C96.2484 354.717 96.8773 355.537 97.8617 355.537C98.5727 355.537 99.1059 355.1 99.2289 354.307H101.129C101.034 355.988 99.8031 357.15 97.8344 357.15ZM105.47 357.15C103.201 357.15 101.806 355.674 101.806 353.322C101.806 351.025 103.215 349.48 105.388 349.48C107.343 349.48 108.875 350.711 108.875 353.24V353.814H103.802C103.802 354.936 104.472 355.633 105.511 355.633C106.195 355.633 106.687 355.332 106.892 354.881H108.82C108.533 356.248 107.302 357.15 105.47 357.15ZM103.802 352.543H106.961C106.961 351.641 106.332 350.998 105.429 350.998C104.5 350.998 103.837 351.688 103.802 352.543ZM47.0789 375H43.5926V365.102H47.1199C50.1004 365.102 51.9188 366.961 51.9188 370.037C51.9188 373.141 50.1004 375 47.0789 375ZM45.6434 373.236H46.9969C48.8836 373.236 49.868 372.252 49.868 370.037C49.868 367.836 48.8836 366.865 47.0105 366.865H45.6434V373.236ZM56.4513 375.15C54.1817 375.15 52.7872 373.674 52.7872 371.322C52.7872 369.025 54.1954 367.48 56.3692 367.48C58.3243 367.48 59.8555 368.711 59.8555 371.24V371.814H54.7833C54.7833 372.936 55.4532 373.633 56.4923 373.633C57.1759 373.633 57.668 373.332 57.8731 372.881H59.8009C59.5138 374.248 58.2833 375.15 56.4513 375.15ZM54.7833 370.543H57.9415C57.9415 369.641 57.3126 368.998 56.4102 368.998C55.4805 368.998 54.8175 369.688 54.7833 370.543ZM65.0853 369.777C65.0033 369.258 64.5384 368.916 63.8685 368.916C63.2123 368.916 62.7064 369.23 62.7201 369.682C62.7064 370.01 62.9798 370.27 63.6771 370.42L65.0033 370.693C66.4388 370.994 67.1361 371.637 67.1498 372.703C67.1361 374.166 65.8236 375.15 63.8548 375.15C61.8451 375.15 60.6693 374.248 60.5052 372.799H62.5423C62.638 373.387 63.1166 373.688 63.8548 373.688C64.5931 373.688 65.0853 373.387 65.0853 372.908C65.0853 372.525 64.7709 372.293 64.0736 372.143L62.8431 371.896C61.4349 371.623 60.6966 370.885 60.7103 369.791C60.6966 368.369 61.9271 367.48 63.8412 367.48C65.7142 367.48 66.8763 368.369 66.9857 369.777H65.0853ZM68.1139 375V367.576H70.1373V375H68.1139ZM69.1256 366.605C68.5104 366.605 68.0182 366.141 68.0182 365.58C68.0182 365.006 68.5104 364.541 69.1256 364.541C69.7272 364.541 70.2194 365.006 70.2194 365.58C70.2194 366.141 69.7272 366.605 69.1256 366.605ZM74.7655 377.939C72.7148 377.939 71.457 377.023 71.3339 375.615H73.33C73.4394 376.203 73.9999 376.477 74.8066 376.477C75.7499 376.477 76.3788 376.08 76.3788 375.041V373.688H76.2831C76.0097 374.289 75.3534 374.891 74.164 374.891C72.4823 374.891 71.1425 373.715 71.1425 371.24C71.1425 368.725 72.5234 367.48 74.164 367.48C75.4081 367.48 76.0097 368.219 76.2831 368.82H76.3652V367.576H78.3749V375.082C78.3749 376.969 76.871 377.939 74.7655 377.939ZM74.7929 373.373C75.8046 373.373 76.3788 372.58 76.3788 371.268C76.3788 369.941 75.8046 369.094 74.7929 369.094C73.7675 369.094 73.2206 369.982 73.2206 371.268C73.2206 372.553 73.7675 373.373 74.7929 373.373ZM81.6906 370.707V375H79.6672V367.576H81.5949V368.875H81.677C82.0187 368.014 82.8117 367.48 83.9055 367.48C85.4504 367.48 86.4758 368.533 86.4621 370.27V375H84.4523V370.625C84.4523 369.709 83.9465 369.162 83.1125 369.162C82.2648 369.162 81.6906 369.723 81.6906 370.707Z" fill="black"/>
<path d="M50.603 387.83V396.922H48.8666V393.969H46.0229C45.4213 394.604 44.5532 394.994 43.5893 394.994C41.7026 394.994 40.267 393.627 40.2807 391.781C40.267 389.908 41.7026 388.555 43.5893 388.541C44.5532 388.548 45.4145 388.931 46.0229 389.566H48.8666V387.83H50.603ZM50.9037 398.645V400.039H42.3452V396.006H44.0952V398.645H50.9037ZM43.5893 390.1C42.6186 390.1 41.9213 390.729 41.935 391.781C41.9213 392.82 42.6186 393.449 43.5893 393.449C44.5053 393.449 45.2162 392.82 45.2162 391.781C45.2162 390.729 44.5053 390.1 43.5893 390.1ZM46.7748 390.961C46.8364 391.221 46.8705 391.494 46.8705 391.781C46.8705 392.055 46.8364 392.321 46.7748 392.574H48.8666V390.961H46.7748ZM62.4226 387.816V394.078H60.6862V393.121H57.8425V391.795H60.6862V390.701H57.9792C57.2068 392.574 55.4294 393.771 52.6745 394.365L52.0866 392.943C54.9372 392.376 56.2566 391.2 56.489 389.703H52.7839V388.295H58.4167C58.4167 388.671 58.3894 389.033 58.3347 389.375H60.6862V387.816H62.4226ZM62.4226 394.529V397.934H55.9148V398.754H62.696V400.135H54.1648V396.648H60.6726V395.896H54.1511V394.529H62.4226ZM77.1887 387.83V394.994H75.4524V393.777H72.6497V392.383H75.4524V391.193H72.7727C72.0003 393.162 70.2366 394.516 67.4954 395.268L66.8118 393.887C69.6761 393.135 71.0774 391.768 71.3235 390.059H67.4817V388.664H73.2239C73.2239 389.067 73.1966 389.457 73.1419 389.826H75.4524V387.83H77.1887ZM73.0462 395.145C75.5755 395.145 77.2708 396.115 77.2845 397.66C77.2708 399.219 75.5755 400.203 73.0462 400.203C70.4895 400.203 68.7805 399.219 68.7942 397.66C68.7805 396.115 70.4895 395.145 73.0462 395.145ZM73.0462 396.512C71.4739 396.498 70.5305 396.895 70.5305 397.66C70.5305 398.426 71.4739 398.822 73.0462 398.822C74.5911 398.822 75.5345 398.426 75.5345 397.66C75.5345 396.895 74.5911 396.498 73.0462 396.512ZM89.0084 387.816V395.336H87.272V392.889H85.6588V391.467H87.272V387.816H89.0084ZM89.0084 395.869V400.121H80.6412V395.869H89.0084ZM82.3912 397.236V398.727H87.2994V397.236H82.3912ZM85.8775 388.896V390.291H78.5494V388.896H81.3658V387.707H83.0884V388.896H85.8775ZM82.2271 390.701C83.9771 390.701 85.2076 391.631 85.2076 392.93C85.2076 394.283 83.9771 395.186 82.2271 395.186C80.4908 395.186 79.233 394.283 79.233 392.93C79.233 391.631 80.4908 390.701 82.2271 390.701ZM82.2271 392.014C81.4205 392.014 80.9009 392.342 80.9146 392.93C80.9009 393.559 81.4205 393.9 82.2271 393.9C83.0201 393.9 83.5396 393.559 83.5396 392.93C83.5396 392.342 83.0201 392.014 82.2271 392.014Z" fill="#0096D0"/>
<g clip-path="url(#clip1_775_21610)">
<rect x="140" y="325" width="4" height="4" rx="2" fill="#0096D0"/>
<path d="M156.494 325.59C156.385 324.619 155.496 324.059 154.307 324.059C152.994 324.059 152.133 324.742 152.133 325.686C152.133 326.725 153.295 327.107 154.047 327.299L155.031 327.572C156.098 327.846 157.834 328.461 157.834 330.307C157.834 331.92 156.535 333.178 154.238 333.178C152.105 333.178 150.779 332.07 150.67 330.43H151.928C152.037 331.537 153.062 332.057 154.238 332.057C155.605 332.057 156.631 331.359 156.631 330.279C156.631 329.322 155.715 328.953 154.676 328.652L153.459 328.324C151.9 327.873 150.943 327.08 150.943 325.74C150.943 324.072 152.434 322.965 154.348 322.965C156.262 322.965 157.643 324.086 157.697 325.59H156.494ZM159.755 333H158.47L162.093 323.102H163.392L167.015 333H165.716L164.732 330.211H160.753L159.755 333ZM161.122 329.131H164.349L162.777 324.701H162.695L161.122 329.131ZM168.075 333V323.102H171.438C173.762 323.102 174.815 324.482 174.815 326.246C174.815 327.996 173.762 329.404 171.452 329.404H169.305V333H168.075ZM169.305 328.311H171.397C172.969 328.311 173.598 327.422 173.598 326.246C173.598 325.057 172.969 324.195 171.383 324.195H169.305V328.311ZM186.245 326.219C185.958 324.852 184.782 324.113 183.484 324.113C181.692 324.113 180.298 325.494 180.298 328.051C180.298 330.607 181.692 331.988 183.484 331.988C184.782 331.988 185.944 331.25 186.245 329.896H187.476C187.12 331.92 185.493 333.137 183.484 333.137C180.941 333.137 179.109 331.182 179.109 328.051C179.109 324.92 180.941 322.965 183.484 322.965C185.48 322.965 187.107 324.168 187.476 326.219H186.245ZM192.295 322.637L189.096 334.49H188.03L191.215 322.637H192.295ZM192.904 330.977V329.965L197.361 323.102H198.879V329.896H200.259V330.977H198.879V333H197.703V330.977H192.904ZM194.23 329.896H197.703V324.66H197.58L194.23 329.814V329.896ZM201.77 333V323.102H203.001V327.504H208.237V323.102H209.481V333H208.237V328.584H203.001V333H201.77ZM211.813 333H210.528L214.151 323.102H215.449L219.072 333H217.774L216.789 330.211H212.811L211.813 333ZM213.18 329.131H216.406L214.834 324.701H214.752L213.18 329.131ZM227.994 323.102V333H226.818L221.459 325.289H221.363V333H220.132V323.102H221.322L226.681 330.826H226.777V323.102H227.994ZM230.339 333H229.054L232.677 323.102H233.975L237.598 333H236.3L235.315 330.211H231.337L230.339 333ZM231.706 329.131H234.932L233.36 324.701H233.278L231.706 329.131ZM247.292 325.59C247.183 324.619 246.294 324.059 245.105 324.059C243.792 324.059 242.931 324.742 242.931 325.686C242.931 326.725 244.093 327.107 244.845 327.299L245.829 327.572C246.896 327.846 248.632 328.461 248.632 330.307C248.632 331.92 247.333 333.178 245.036 333.178C242.904 333.178 241.577 332.07 241.468 330.43H242.726C242.835 331.537 243.861 332.057 245.036 332.057C246.404 332.057 247.429 331.359 247.429 330.279C247.429 329.322 246.513 328.953 245.474 328.652L244.257 328.324C242.699 327.873 241.742 327.08 241.742 325.74C241.742 324.072 243.232 322.965 245.146 322.965C247.06 322.965 248.441 324.086 248.495 325.59H247.292ZM249.61 330.895C249.61 329.186 251.114 328.803 252.399 328.707C252.871 328.673 254.074 328.611 254.409 328.598V327.996C254.409 327.053 253.848 326.506 252.727 326.506C251.784 326.506 251.223 326.943 251.059 327.504H249.829C249.979 326.314 251.141 325.48 252.782 325.48C253.753 325.48 255.571 325.768 255.571 328.105V333H254.409V331.988H254.354C254.108 332.494 253.424 333.178 252.139 333.178C250.731 333.178 249.61 332.344 249.61 330.895ZM250.786 330.949C250.786 331.729 251.442 332.125 252.344 332.125C253.671 332.125 254.409 331.236 254.409 330.307V329.555L252.536 329.691C251.469 329.76 250.786 330.143 250.786 330.949ZM258.353 323.102V333H257.178V323.102H258.353ZM263.064 333.15C260.917 333.15 259.591 331.633 259.591 329.35C259.591 327.066 260.931 325.48 262.954 325.48C264.513 325.48 266.154 326.438 266.154 329.186V329.678H260.767C260.821 331.25 261.738 332.111 263.064 332.111C263.952 332.111 264.513 331.729 264.786 331.264H266.044C265.689 332.385 264.595 333.15 263.064 333.15ZM260.78 328.68H264.964C264.964 327.436 264.171 326.52 262.954 326.52C261.669 326.52 260.849 327.531 260.78 328.68ZM271.534 327.504C271.37 326.889 270.905 326.479 270.03 326.479C269.114 326.479 268.457 326.971 268.457 327.6C268.457 328.092 268.854 328.434 269.729 328.639L270.836 328.912C272.163 329.227 272.819 329.883 272.819 330.922C272.819 332.207 271.766 333.15 269.907 333.15C268.239 333.15 267.241 332.412 267.049 331.059H268.28C268.416 331.783 268.95 332.125 269.879 332.125C270.932 332.125 271.602 331.688 271.602 330.99C271.602 330.471 271.233 330.115 270.385 329.924L269.264 329.664C267.965 329.363 267.282 328.652 267.282 327.668C267.282 326.396 268.389 325.48 270.03 325.48C271.561 325.48 272.532 326.301 272.682 327.504H271.534ZM284.208 326.219C283.921 324.852 282.745 324.113 281.446 324.113C279.655 324.113 278.261 325.494 278.261 328.051C278.261 330.607 279.655 331.988 281.446 331.988C282.745 331.988 283.907 331.25 284.208 329.896H285.439C285.083 331.92 283.456 333.137 281.446 333.137C278.903 333.137 277.071 331.182 277.071 328.051C277.071 324.92 278.903 322.965 281.446 322.965C283.442 322.965 285.069 324.168 285.439 326.219H284.208ZM287.907 323.102V333H286.731V323.102H287.907ZM292.535 333.15C290.511 333.15 289.144 331.633 289.144 329.322C289.144 327.012 290.511 325.48 292.535 325.48C294.545 325.48 295.898 327.012 295.898 329.322C295.898 331.633 294.545 333.15 292.535 333.15ZM292.535 332.111C294.025 332.111 294.722 330.799 294.722 329.322C294.722 327.846 294.025 326.52 292.535 326.52C291.017 326.52 290.32 327.846 290.32 329.322C290.32 330.799 291.017 332.111 292.535 332.111ZM301.852 329.951V325.576H303.015V333H301.852V331.742H301.77C301.415 332.494 300.69 333.096 299.569 333.096C298.161 333.096 297.163 332.18 297.163 330.293V325.576H298.339V330.211C298.339 331.277 299.009 331.961 299.952 331.961C300.786 331.961 301.852 331.332 301.852 329.951ZM307.424 333.15C305.578 333.15 304.266 331.66 304.266 329.309C304.266 326.957 305.578 325.48 307.438 325.48C308.873 325.48 309.338 326.355 309.584 326.752H309.666V323.102H310.856V333H309.707V331.865H309.584C309.324 332.275 308.846 333.15 307.424 333.15ZM307.588 332.098C308.942 332.098 309.707 330.949 309.707 329.281C309.707 327.641 308.969 326.533 307.588 326.533C306.166 326.533 305.455 327.736 305.455 329.281C305.455 330.867 306.18 332.098 307.588 332.098Z" fill="#202020"/>
<rect x="140" y="349" width="4" height="4" rx="2" fill="#0096D0"/>
<path d="M151.531 357H150.246L153.869 347.102H155.168L158.791 357H157.492L156.508 354.211H152.529L151.531 357ZM152.898 353.131H156.125L154.553 348.701H154.471L152.898 353.131ZM160.904 357L158.197 347.102H159.441L161.505 355.113H161.601L163.693 347.102H165.074L167.179 355.113H167.261L169.325 347.102H170.57L167.863 357H166.591L164.431 349.166H164.349L162.175 357H160.904ZM177.003 349.59C176.893 348.619 176.004 348.059 174.815 348.059C173.503 348.059 172.641 348.742 172.641 349.686C172.641 350.725 173.803 351.107 174.555 351.299L175.54 351.572C176.606 351.846 178.342 352.461 178.342 354.307C178.342 355.92 177.044 357.178 174.747 357.178C172.614 357.178 171.288 356.07 171.178 354.43H172.436C172.545 355.537 173.571 356.057 174.747 356.057C176.114 356.057 177.139 355.359 177.139 354.279C177.139 353.322 176.223 352.953 175.184 352.652L173.967 352.324C172.409 351.873 171.452 351.08 171.452 349.74C171.452 348.072 172.942 346.965 174.856 346.965C176.77 346.965 178.151 348.086 178.206 349.59H177.003ZM183.06 357V347.102H186.423C188.747 347.102 189.8 348.482 189.8 350.246C189.8 351.996 188.747 353.404 186.437 353.404H184.29V357H183.06ZM184.29 352.311H186.382C187.954 352.311 188.583 351.422 188.583 350.246C188.583 349.057 187.954 348.195 186.368 348.195H184.29V352.311ZM190.737 354.895C190.737 353.186 192.241 352.803 193.526 352.707C193.997 352.673 195.201 352.611 195.536 352.598V351.996C195.536 351.053 194.975 350.506 193.854 350.506C192.911 350.506 192.35 350.943 192.186 351.504H190.955C191.106 350.314 192.268 349.48 193.909 349.48C194.879 349.48 196.698 349.768 196.698 352.105V357H195.536V355.988H195.481C195.235 356.494 194.551 357.178 193.266 357.178C191.858 357.178 190.737 356.344 190.737 354.895ZM191.912 354.949C191.912 355.729 192.569 356.125 193.471 356.125C194.797 356.125 195.536 355.236 195.536 354.307V353.555L193.662 353.691C192.596 353.76 191.912 354.143 191.912 354.949ZM198.304 357V349.576H199.439V350.711H199.521C199.795 349.959 200.56 349.453 201.435 349.453C201.613 349.453 201.914 349.467 202.05 349.48V350.67C201.968 350.643 201.64 350.588 201.34 350.588C200.273 350.588 199.48 351.326 199.48 352.324V357H198.304ZM206.624 349.576V350.561H205.065V354.867C205.065 355.824 205.53 355.975 206.036 355.975C206.255 355.975 206.556 355.961 206.733 355.947V357.041C206.556 357.068 206.255 357.096 205.913 357.096C204.929 357.096 203.876 356.48 203.876 355.168V350.561H202.755V349.576H203.876V347.799H205.065V349.576H206.624ZM209.037 352.543V357H207.862V349.576H208.996V350.738H209.092C209.447 349.986 210.131 349.48 211.266 349.48C212.77 349.48 213.768 350.396 213.768 352.283V357H212.592V352.365C212.592 351.217 211.963 350.533 210.91 350.533C209.83 350.533 209.037 351.258 209.037 352.543ZM218.492 357.15C216.345 357.15 215.019 355.633 215.019 353.35C215.019 351.066 216.359 349.48 218.382 349.48C219.941 349.48 221.582 350.438 221.582 353.186V353.678H216.195C216.25 355.25 217.166 356.111 218.492 356.111C219.38 356.111 219.941 355.729 220.214 355.264H221.472C221.117 356.385 220.023 357.15 218.492 357.15ZM216.209 352.68H220.392C220.392 351.436 219.599 350.52 218.382 350.52C217.097 350.52 216.277 351.531 216.209 352.68ZM222.833 357V349.576H223.968V350.711H224.05C224.323 349.959 225.089 349.453 225.964 349.453C226.141 349.453 226.442 349.467 226.579 349.48V350.67C226.497 350.643 226.169 350.588 225.868 350.588C224.802 350.588 224.009 351.326 224.009 352.324V357H222.833ZM238.693 347.102V357H237.517L232.158 349.289H232.062V357H230.831V347.102H232.021L237.38 354.826H237.476V347.102H238.693ZM243.567 357.15C241.421 357.15 240.094 355.633 240.094 353.35C240.094 351.066 241.434 349.48 243.458 349.48C245.016 349.48 246.657 350.438 246.657 353.186V353.678H241.27C241.325 355.25 242.241 356.111 243.567 356.111C244.456 356.111 245.016 355.729 245.29 355.264H246.548C246.192 356.385 245.098 357.15 243.567 357.15ZM241.284 352.68H245.467C245.467 351.436 244.674 350.52 243.458 350.52C242.173 350.52 241.352 351.531 241.284 352.68ZM251.148 349.576V350.561H249.59V354.867C249.59 355.824 250.055 355.975 250.56 355.975C250.779 355.975 251.08 355.961 251.258 355.947V357.041C251.08 357.068 250.779 357.096 250.437 357.096C249.453 357.096 248.4 356.48 248.4 355.168V350.561H247.279V349.576H248.4V347.799H249.59V349.576H251.148ZM254.054 357L251.798 349.576H253.042L254.628 355.236H254.696L256.269 349.576H257.527L259.071 355.209H259.154L260.739 349.576H261.97L259.714 357H258.552L256.939 351.34H256.829L255.23 357H254.054ZM265.778 357.15C263.754 357.15 262.387 355.633 262.387 353.322C262.387 351.012 263.754 349.48 265.778 349.48C267.788 349.48 269.141 351.012 269.141 353.322C269.141 355.633 267.788 357.15 265.778 357.15ZM265.778 356.111C267.268 356.111 267.965 354.799 267.965 353.322C267.965 351.846 267.268 350.52 265.778 350.52C264.26 350.52 263.563 351.846 263.563 353.322C263.563 354.799 264.26 356.111 265.778 356.111ZM270.406 357V349.576H271.541V350.711H271.623C271.896 349.959 272.662 349.453 273.537 349.453C273.715 349.453 274.015 349.467 274.152 349.48V350.67C274.07 350.643 273.742 350.588 273.441 350.588C272.375 350.588 271.582 351.326 271.582 352.324V357H270.406ZM275.021 357V347.102H276.196V352.857H276.333L279.546 349.576H280.995L277.864 352.748L281.228 357H279.737L276.989 353.5L276.196 354.225V357H275.021Z" fill="#202020"/>
<rect x="140" y="373" width="4" height="4" rx="2" fill="#0096D0"/>
<path d="M158.955 371.102V381H157.779L152.42 373.289H152.324V381H151.094V371.102H152.283L157.643 378.826H157.738V371.102H158.955ZM160.357 378.895C160.357 377.186 161.861 376.803 163.146 376.707C163.617 376.673 164.821 376.611 165.156 376.598V375.996C165.156 375.053 164.595 374.506 163.474 374.506C162.531 374.506 161.97 374.943 161.806 375.504H160.575C160.726 374.314 161.888 373.48 163.529 373.48C164.499 373.48 166.318 373.768 166.318 376.105V381H165.156V379.988H165.101C164.855 380.494 164.171 381.178 162.886 381.178C161.478 381.178 160.357 380.344 160.357 378.895ZM161.533 378.949C161.533 379.729 162.189 380.125 163.091 380.125C164.417 380.125 165.156 379.236 165.156 378.307V377.555L163.283 377.691C162.216 377.76 161.533 378.143 161.533 378.949ZM173.762 373.576L171.014 381H169.797L167.063 373.576H168.348L170.372 379.469H170.454L172.477 373.576H173.762ZM177.625 381.15C175.478 381.15 174.152 379.633 174.152 377.35C174.152 375.066 175.492 373.48 177.515 373.48C179.074 373.48 180.715 374.438 180.715 377.186V377.678H175.328C175.383 379.25 176.299 380.111 177.625 380.111C178.514 380.111 179.074 379.729 179.347 379.264H180.605C180.25 380.385 179.156 381.15 177.625 381.15ZM175.342 376.68H179.525C179.525 375.436 178.732 374.52 177.515 374.52C176.23 374.52 175.41 375.531 175.342 376.68ZM181.966 381V373.576H183.101V374.711H183.183C183.456 373.959 184.222 373.453 185.097 373.453C185.275 373.453 185.575 373.467 185.712 373.48V374.67C185.63 374.643 185.302 374.588 185.001 374.588C183.935 374.588 183.142 375.326 183.142 376.324V381H181.966ZM196.718 374.219C196.431 372.852 195.256 372.113 193.957 372.113C192.166 372.113 190.771 373.494 190.771 376.051C190.771 378.607 192.166 379.988 193.957 379.988C195.256 379.988 196.418 379.25 196.718 377.896H197.949C197.593 379.92 195.966 381.137 193.957 381.137C191.414 381.137 189.582 379.182 189.582 376.051C189.582 372.92 191.414 370.965 193.957 370.965C195.953 370.965 197.58 372.168 197.949 374.219H196.718ZM200.417 371.102V381H199.241V371.102H200.417ZM205.045 381.15C203.022 381.15 201.655 379.633 201.655 377.322C201.655 375.012 203.022 373.48 205.045 373.48C207.055 373.48 208.408 375.012 208.408 377.322C208.408 379.633 207.055 381.15 205.045 381.15ZM205.045 380.111C206.535 380.111 207.233 378.799 207.233 377.322C207.233 375.846 206.535 374.52 205.045 374.52C203.528 374.52 202.83 375.846 202.83 377.322C202.83 378.799 203.528 380.111 205.045 380.111ZM214.363 377.951V373.576H215.525V381H214.363V379.742H214.281C213.925 380.494 213.201 381.096 212.08 381.096C210.671 381.096 209.673 380.18 209.673 378.293V373.576H210.849V378.211C210.849 379.277 211.519 379.961 212.462 379.961C213.296 379.961 214.363 379.332 214.363 377.951ZM219.934 381.15C218.089 381.15 216.776 379.66 216.776 377.309C216.776 374.957 218.089 373.48 219.948 373.48C221.384 373.48 221.848 374.355 222.095 374.752H222.177V371.102H223.366V381H222.218V379.865H222.095C221.835 380.275 221.356 381.15 219.934 381.15ZM220.098 380.098C221.452 380.098 222.218 378.949 222.218 377.281C222.218 375.641 221.479 374.533 220.098 374.533C218.677 374.533 217.966 375.736 217.966 377.281C217.966 378.867 218.69 380.098 220.098 380.098ZM228.507 381V371.102H231.87C234.195 371.102 235.247 372.482 235.247 374.246C235.247 375.996 234.195 377.404 231.884 377.404H229.738V381H228.507ZM229.738 376.311H231.829C233.402 376.311 234.031 375.422 234.031 374.246C234.031 373.057 233.402 372.195 231.816 372.195H229.738V376.311ZM237.715 371.102V381H236.54V371.102H237.715ZM238.953 378.895C238.953 377.186 240.457 376.803 241.742 376.707C242.214 376.673 243.417 376.611 243.752 376.598V375.996C243.752 375.053 243.191 374.506 242.07 374.506C241.127 374.506 240.566 374.943 240.402 375.504H239.172C239.322 374.314 240.484 373.48 242.125 373.48C243.096 373.48 244.914 373.768 244.914 376.105V381H243.752V379.988H243.697C243.451 380.494 242.768 381.178 241.482 381.178C240.074 381.178 238.953 380.344 238.953 378.895ZM240.129 378.949C240.129 379.729 240.785 380.125 241.687 380.125C243.014 380.125 243.752 379.236 243.752 378.307V377.555L241.879 377.691C240.812 377.76 240.129 378.143 240.129 378.949ZM249.761 373.576V374.561H248.202V378.867C248.202 379.824 248.667 379.975 249.173 379.975C249.392 379.975 249.693 379.961 249.87 379.947V381.041C249.693 381.068 249.392 381.096 249.05 381.096C248.066 381.096 247.013 380.48 247.013 379.168V374.561H245.892V373.576H247.013V371.799H248.202V373.576H249.761ZM254.321 373.576V374.561H252.68V381H251.491V374.561H250.301V373.576H251.491V372.564C251.491 371.361 252.297 370.637 253.61 370.637C253.897 370.637 254.239 370.678 254.485 370.719V371.771C254.239 371.73 254.02 371.717 253.87 371.717C253.049 371.717 252.68 372.059 252.68 372.824V373.576H254.321ZM258.17 381.15C256.146 381.15 254.779 379.633 254.779 377.322C254.779 375.012 256.146 373.48 258.17 373.48C260.179 373.48 261.533 375.012 261.533 377.322C261.533 379.633 260.179 381.15 258.17 381.15ZM258.17 380.111C259.66 380.111 260.357 378.799 260.357 377.322C260.357 375.846 259.66 374.52 258.17 374.52C256.652 374.52 255.955 375.846 255.955 377.322C255.955 378.799 256.652 380.111 258.17 380.111ZM262.798 381V373.576H263.933V374.711H264.015C264.288 373.959 265.054 373.453 265.929 373.453C266.106 373.453 266.407 373.467 266.544 373.48V374.67C266.462 374.643 266.134 374.588 265.833 374.588C264.767 374.588 263.974 375.326 263.974 376.324V381H262.798ZM267.412 381V373.576H268.547V374.738H268.643C268.957 373.945 269.668 373.48 270.639 373.48C271.61 373.48 272.266 373.945 272.621 374.738H272.703C273.086 373.973 273.866 373.48 274.932 373.48C276.258 373.48 277.201 374.287 277.201 376.037V381H276.026V376.051C276.026 374.957 275.328 374.533 274.522 374.533C273.483 374.533 272.895 375.23 272.895 376.174V381H271.705V375.928C271.705 375.094 271.104 374.533 270.256 374.533C269.368 374.533 268.588 375.285 268.588 376.365V381H267.412ZM151.094 399V389.102H154.457C156.781 389.102 157.834 390.482 157.834 392.246C157.834 393.996 156.781 395.404 154.471 395.404H152.324V399H151.094ZM152.324 394.311H154.416C155.988 394.311 156.617 393.422 156.617 392.246C156.617 391.057 155.988 390.195 154.402 390.195H152.324V394.311ZM158.771 396.895C158.771 395.186 160.275 394.803 161.56 394.707C162.032 394.673 163.235 394.611 163.57 394.598V393.996C163.57 393.053 163.009 392.506 161.888 392.506C160.945 392.506 160.384 392.943 160.22 393.504H158.99C159.14 392.314 160.302 391.48 161.943 391.48C162.913 391.48 164.732 391.768 164.732 394.105V399H163.57V397.988H163.515C163.269 398.494 162.585 399.178 161.3 399.178C159.892 399.178 158.771 398.344 158.771 396.895ZM159.947 396.949C159.947 397.729 160.603 398.125 161.505 398.125C162.831 398.125 163.57 397.236 163.57 396.307V395.555L161.697 395.691C160.63 395.76 159.947 396.143 159.947 396.949ZM166.338 399V391.576H167.473V392.711H167.555C167.829 391.959 168.594 391.453 169.469 391.453C169.647 391.453 169.948 391.467 170.085 391.48V392.67C170.002 392.643 169.674 392.588 169.374 392.588C168.307 392.588 167.514 393.326 167.514 394.324V399H166.338ZM174.658 391.576V392.561H173.099V396.867C173.099 397.824 173.564 397.975 174.07 397.975C174.289 397.975 174.59 397.961 174.767 397.947V399.041C174.59 399.068 174.289 399.096 173.947 399.096C172.963 399.096 171.91 398.48 171.91 397.168V392.561H170.789V391.576H171.91V389.799H173.099V391.576H174.658ZM177.071 394.543V399H175.896V391.576H177.03V392.738H177.126C177.482 391.986 178.165 391.48 179.3 391.48C180.804 391.48 181.802 392.396 181.802 394.283V399H180.626V394.365C180.626 393.217 179.997 392.533 178.944 392.533C177.864 392.533 177.071 393.258 177.071 394.543ZM186.526 399.15C184.379 399.15 183.053 397.633 183.053 395.35C183.053 393.066 184.393 391.48 186.416 391.48C187.975 391.48 189.616 392.438 189.616 395.186V395.678H184.229C184.284 397.25 185.2 398.111 186.526 398.111C187.414 398.111 187.975 397.729 188.248 397.264H189.506C189.151 398.385 188.057 399.15 186.526 399.15ZM184.243 394.68H188.426C188.426 393.436 187.633 392.52 186.416 392.52C185.131 392.52 184.311 393.531 184.243 394.68ZM190.867 399V391.576H192.002V392.711H192.084C192.357 391.959 193.123 391.453 193.998 391.453C194.175 391.453 194.476 391.467 194.613 391.48V392.67C194.531 392.643 194.203 392.588 193.902 392.588C192.836 392.588 192.043 393.326 192.043 394.324V399H190.867Z" fill="#202020"/>
<rect x="140" y="415" width="4" height="4" rx="2" fill="#0096D0"/>
<path d="M151.094 413.102H152.57L155.906 421.25H156.029L159.365 413.102H160.842V423H159.68V415.521H159.584L156.508 423H155.414L152.338 415.521H152.256V423H151.094V413.102ZM162.599 423V415.576H163.775V423H162.599ZM163.187 414.346C162.736 414.346 162.366 414.004 162.366 413.566C162.366 413.129 162.736 412.787 163.187 412.787C163.638 412.787 164.021 413.129 164.021 413.566C164.021 414.004 163.638 414.346 163.187 414.346ZM168.403 423.15C166.297 423.15 165.012 421.551 165.012 419.322C165.012 417.066 166.352 415.48 168.376 415.48C169.961 415.48 171.137 416.41 171.329 417.818H170.153C169.989 417.135 169.387 416.52 168.403 416.52C167.077 416.52 166.188 417.613 166.188 419.281C166.188 421.004 167.049 422.098 168.403 422.098C169.278 422.098 169.948 421.633 170.153 420.812H171.329C171.137 422.139 170.057 423.15 168.403 423.15ZM172.498 423V415.576H173.633V416.711H173.715C173.988 415.959 174.754 415.453 175.629 415.453C175.806 415.453 176.107 415.467 176.244 415.48V416.67C176.162 416.643 175.834 416.588 175.533 416.588C174.467 416.588 173.674 417.326 173.674 418.324V423H172.498ZM179.915 423.15C177.892 423.15 176.525 421.633 176.525 419.322C176.525 417.012 177.892 415.48 179.915 415.48C181.925 415.48 183.278 417.012 183.278 419.322C183.278 421.633 181.925 423.15 179.915 423.15ZM179.915 422.111C181.405 422.111 182.103 420.799 182.103 419.322C182.103 417.846 181.405 416.52 179.915 416.52C178.398 416.52 177.7 417.846 177.7 419.322C177.7 420.799 178.398 422.111 179.915 422.111ZM188.672 417.504C188.508 416.889 188.043 416.479 187.168 416.479C186.252 416.479 185.596 416.971 185.596 417.6C185.596 418.092 185.993 418.434 186.868 418.639L187.975 418.912C189.301 419.227 189.957 419.883 189.957 420.922C189.957 422.207 188.905 423.15 187.045 423.15C185.377 423.15 184.379 422.412 184.188 421.059H185.418C185.555 421.783 186.088 422.125 187.018 422.125C188.071 422.125 188.741 421.688 188.741 420.99C188.741 420.471 188.371 420.115 187.524 419.924L186.403 419.664C185.104 419.363 184.42 418.652 184.42 417.668C184.42 416.396 185.528 415.48 187.168 415.48C188.7 415.48 189.67 416.301 189.821 417.504H188.672ZM194.244 423.15C192.22 423.15 190.853 421.633 190.853 419.322C190.853 417.012 192.22 415.48 194.244 415.48C196.254 415.48 197.607 417.012 197.607 419.322C197.607 421.633 196.254 423.15 194.244 423.15ZM194.244 422.111C195.734 422.111 196.431 420.799 196.431 419.322C196.431 417.846 195.734 416.52 194.244 416.52C192.726 416.52 192.029 417.846 192.029 419.322C192.029 420.799 192.726 422.111 194.244 422.111ZM202.194 415.576V416.561H200.554V423H199.364V416.561H198.175V415.576H199.364V414.564C199.364 413.361 200.171 412.637 201.483 412.637C201.77 412.637 202.112 412.678 202.358 412.719V413.771C202.112 413.73 201.894 413.717 201.743 413.717C200.923 413.717 200.554 414.059 200.554 414.824V415.576H202.194ZM206.549 415.576V416.561H204.99V420.867C204.99 421.824 205.455 421.975 205.961 421.975C206.18 421.975 206.481 421.961 206.658 421.947V423.041C206.481 423.068 206.18 423.096 205.838 423.096C204.854 423.096 203.801 422.48 203.801 421.168V416.561H202.68V415.576H203.801V413.799H204.99V415.576H206.549ZM211.608 423H210.323L213.946 413.102H215.245L218.868 423H217.569L216.585 420.211H212.606L211.608 423ZM212.975 419.131H216.202L214.63 414.701H214.548L212.975 419.131ZM219.559 423V422.111L223.742 416.738V416.656H219.695V415.576H225.26V416.506L221.199 421.838V421.92H225.397V423H219.559ZM231.365 419.951V415.576H232.527V423H231.365V421.742H231.283C230.927 422.494 230.202 423.096 229.081 423.096C227.673 423.096 226.675 422.18 226.675 420.293V415.576H227.851V420.211C227.851 421.277 228.521 421.961 229.464 421.961C230.298 421.961 231.365 421.332 231.365 419.951ZM234.133 423V415.576H235.268V416.711H235.35C235.624 415.959 236.389 415.453 237.264 415.453C237.442 415.453 237.743 415.467 237.88 415.48V416.67C237.798 416.643 237.469 416.588 237.169 416.588C236.102 416.588 235.309 417.326 235.309 418.324V423H234.133ZM241.633 423.15C239.486 423.15 238.16 421.633 238.16 419.35C238.16 417.066 239.5 415.48 241.523 415.48C243.082 415.48 244.723 416.438 244.723 419.186V419.678H239.336C239.391 421.25 240.307 422.111 241.633 422.111C242.521 422.111 243.082 421.729 243.355 421.264H244.613C244.258 422.385 243.164 423.15 241.633 423.15ZM239.35 418.68H243.533C243.533 417.436 242.74 416.52 241.523 416.52C240.238 416.52 239.418 417.531 239.35 418.68Z" fill="#202020"/>
</g>
</g>
<defs>
<clipPath id="clip0_775_21610">
<rect width="312" height="438" fill="white"/>
</clipPath>
<clipPath id="clip1_775_21610">
<rect width="172" height="108" fill="white" transform="translate(140 319)"/>
</clipPath>
</defs>
</svg>
