<?xml version="1.0" encoding="UTF-8"?>
<svg id="_레이어_2" data-name="레이어 2" xmlns="http://www.w3.org/2000/svg" viewBox="0 0 88.89 86.18">
  <defs>
    <style>
      .cls-1 {
        fill: #040000;
      }

      .cls-2 {
        fill: #fff;
      }

      .cls-3 {
        fill: #3b9cd6;
      }
    </style>
  </defs>
  <g id="_레이어_1-2" data-name="레이어 1">
    <g id="_생성형_오브젝트" data-name="생성형 오브젝트">
      <path class="cls-1" d="M87.36,54.61c-.63,2.29-1.42,4.5-2.42,6.63-2.63,5.61-6.44,10.57-11.12,14.61l-2.47,1.99c-1.43,1.14-2.96,2.09-4.57,2.98-5.53,3.1-11.63,4.89-17.97,5.28-1.63.1-3.19.11-4.82.01-3.76-.23-7.47-.91-11.04-2.12-4.39-1.48-8.32-3.56-12.01-6.37-4.9-3.75-8.82-8.18-11.86-13.56-2.85-5.03-4.66-10.78-5.18-16.57-1.76-.31-3.21-1.64-3.69-3.28-.55-1.89.05-3.82,1.53-5.04s3.36-1.41,5.03-.65c1.22.56,2.13,1.63,2.51,2.91h9.8c.21-5.38.88-10.54,2.37-15.7-1.91-1.38-3.71-2.9-5.4-4.56l-1.42-1.46-.49-.55s-.07-.05-.1,0c-1.99,2.8-3.8,5.98-4.99,9.19-.26.71-.99,1.05-1.68.82s-1.1-.99-.83-1.72c1.76-4.71,4.65-9.35,8.02-13.09,2.11-2.35,4.46-4.47,7.02-6.32,2.95-2.13,6.13-3.9,9.53-5.21,2.91-1.12,5.93-1.94,9.01-2.4,9.24-1.37,18.62.36,26.75,4.93,2.3,1.29,4.47,2.78,6.49,4.47l3,2.74c2.11-.95,4.55-.21,5.84,1.67,1.21,1.78,1.1,4.09-.26,5.73s-3.62,2.17-5.57,1.3c-1.63,1.63-3.37,3.07-5.22,4.41.53,1.86.94,3.71,1.28,5.6.6,3.31.95,6.62,1.05,9.98,0,.06,0,.13.05.13h1.18c.89-2.73,3.79-4.08,6.45-2.94,2.33,1,3.44,3.84,2.41,6.21-.43.99-1.18,1.78-2.11,2.27-2.61,1.4-5.83.1-6.73-2.71-.02-.07-.02-.16-.13-.16h-1.05c-.1,0-.07.17-.07.27-.18,5.51-.74,10.26-2.15,15.59-.03.12-.01.16.07.23l2.96,2.38,3.05,2.83,1.02,1.05.15.17s.08.04.1,0l.07-.1c3.59-5.01,5.87-10.46,6.93-16.55l.52-4.58c.15-2.03.09-4.03-.1-6.07-.48-5.17-1.91-10.17-4.25-14.79-.33-.66-.1-1.42.51-1.77s1.43-.21,1.77.43l.41.77c3.29,6.75,4.77,14.45,4.27,21.97-.2,2.93-.65,5.8-1.44,8.66Z"/>
      <g>
        <path class="cls-2" d="M44.93,56.68v26.78c-2.55-.21-5.06-1.16-7.2-2.54-1.78-1.14-3.36-2.5-4.78-4.08-1.69-1.88-3.14-3.93-4.37-6.13l-1.4-2.69c-.25-.48-.76-.76-1.26-.71-.44.04-.81.28-1.02.6-.23.36-.31.83-.12,1.21l.83,1.66c1.38,2.66,3.05,5.15,5.02,7.41,1.05,1.21,2.2,2.28,3.42,3.36-2.38-.78-4.61-1.77-6.78-2.96s-4.31-2.66-6.25-4.3c-1.29-1.09-2.5-2.21-3.65-3.45l-1.77-2.04c1.34-1.46,2.69-2.8,4.18-4.05,2.11,1.7,5.18,1.26,6.73-.95.87-1.24,1.12-2.8.65-4.25l3.6-1.82,4.31-1.77c0-.07.04-.12.11-.1.68.36,1.4.64,2.18.7l7.54.03.06.09Z"/>
        <path class="cls-2" d="M57.47,55.91l4.86,2.06c2.03.95,3.95,2.02,5.84,3.26l-.55,1.76-.57,1.54c-1.33-.25-2.63.18-3.65.98-1.33,1.04-2.02,2.71-1.78,4.38.27,1.8,1.49,3.23,3.1,3.81,1.8.64,3.79.15,5.05-1.22,1.41-1.53,1.66-3.72.69-5.54-.26-.49-.61-.86-.99-1.26l.98-2.85c2.34,1.81,4.49,3.8,6.51,5.97-2.08,2.59-4.65,5-7.3,6.97-3.35,2.49-7.12,4.48-11.16,5.78,1.56-1.38,2.97-2.76,4.23-4.35.48-.61.44-1.42-.16-1.9s-1.41-.36-1.9.25c-2.13,2.65-4.69,4.98-7.77,6.45-1.33.64-2.71,1.07-4.15,1.33l-1.15.14v-17.48c-.01-3.09-.02-6.18,0-9.28-.07-.07-.03-.09.05-.12l7.49-.03c.75-.06,1.47-.29,2.13-.65h.2Z"/>
        <path class="cls-2" d="M32.55,44.11l.09.03c-.02,2.65,0,5.3.04,7.94.07.58.24,1.14.51,1.68l-.07.08c-1.81.68-3.54,1.45-5.26,2.3l-2.21,1.19c-.77-.64-1.68-1.01-2.67-1.07-1.46-.11-2.85.46-3.82,1.56-1.16,1.3-1.54,3.14-.94,4.77-1.55,1.29-2.95,2.63-4.3,4.09-1.44-1.99-2.67-4.03-3.7-6.21-.66-1.37-1.23-2.73-1.71-4.17-.5-1.44-.91-2.85-1.23-4.35-.35-1.57-.6-3.12-.77-4.72,1.38-.55,2.39-1.7,2.77-3.12h9.79c.07,3.04.33,5.97.78,8.91.11.76.75,1.28,1.5,1.18.66-.09,1.24-.74,1.13-1.48-.44-2.86-.69-5.71-.7-8.61h10.79Z"/>
        <path class="cls-2" d="M59.4,53.83c.36-.7.58-1.48.58-2.32v-7.41s10.83,0,10.83,0l-.38,6.17c-.3,2.8-.79,5.54-1.49,8.24-3.03-1.9-6.2-3.46-9.54-4.7Z"/>
        <path class="cls-2" d="M60,41.45v-.18s-.03-7.18-.03-7.18c0-.82-.27-1.57-.63-2.25,3.3-1.16,6.44-2.66,9.45-4.53.73,2.84,1.26,5.62,1.61,8.48l.39,5.65h-10.79Z"/>
        <path class="cls-2" d="M33.12,31.8s.05.05.07.07c-.35.65-.56,1.35-.61,2.09l-.03,1.87v4.73s.01.87.01.87c-.12-.03-.2-.02-.25.02h-10.54c0-1.63.14-3.22.3-4.84.32-3.14.86-6.21,1.7-9.29,2.42,1.49,4.88,2.74,7.48,3.79l1.87.7Z"/>
        <circle class="cls-2" cx="22.67" cy="61.01" r="2.07"/>
        <path class="cls-2" d="M70.32,23.04l-.86-2.25c-1-2.61-2.19-5.11-3.62-7.51-.88-1.47-1.83-2.86-2.91-4.19-1.27-1.62-2.68-3.03-4.27-4.4,3.18,1.02,6.11,2.47,8.89,4.23,2.44,1.58,4.7,3.38,6.76,5.43-1.08,1.61-1.08,3.67,0,5.25-1.24,1.22-2.54,2.35-3.99,3.44Z"/>
        <g>
          <path class="cls-2" d="M57.29,29.7s-.03.08-.06.1c-.62-.31-1.27-.5-1.94-.58h-7.59s-.06-.1-.06-.1l-.09-.03v-11.9s.03-.11.03-.11c3.07-.95,4.38-4.58,2.52-7.24s-5.7-2.63-7.58-.04-.61,6.33,2.47,7.29l.04.1v11.88s-.09.06-.09.06l-.03.09h-7.62c-.68.09-1.33.28-1.94.59l-.05-.07-2.02-.73c-2.97-1.05-6.06-2.66-8.72-4.36,1.34-4.01,2.99-7.77,5.27-11.27,3.64-5.55,9.15-10.5,16.1-10.68,4.35-.12,8.37,1.77,11.59,4.59,1.76,1.55,3.29,3.32,4.64,5.24,1.79,2.59,3.25,5.36,4.43,8.28l1.41,3.84c-2.31,1.5-4.74,2.79-7.3,3.82l-3.4,1.24Z"/>
          <path class="cls-2" d="M22.27,23.03c-1.29-.92-2.43-1.91-3.57-2.96-1.04-.97-2-1.97-2.95-3.04.86-1.02,1.72-1.95,2.65-2.86,1.42-1.35,2.91-2.61,4.48-3.78,3.35-2.45,7.02-4.38,11.02-5.69-1.26,1.09-2.4,2.17-3.45,3.42-1.36,1.57-2.56,3.25-3.64,5.02-1.87,3.12-3.35,6.38-4.54,9.89Z"/>
          <circle class="cls-2" cx="78.26" cy="16.96" r="2.09"/>
        </g>
        <circle class="cls-2" cx="66.33" cy="69.22" r="2.08"/>
        <g>
          <g>
            <path class="cls-1" d="M47.63,29.12h-2.7s0-11.98,0-11.98c-1.94-.59-3.28-2.31-3.39-4.31s1.03-3.89,2.92-4.69c1.49-.63,3.21-.45,4.56.5,1.22.86,2.01,2.31,2.01,3.89,0,2.11-1.36,3.99-3.41,4.6v11.99Z"/>
            <circle class="cls-2" cx="46.29" cy="12.55" r="2.09"/>
          </g>
          <g>
            <path class="cls-3" d="M44.93,29.12s.02-.09.04-.09c.84-.03,1.77-.03,2.61,0l.05.09h7.44c.75,0,1.43.26,2.08.56.06.03.09.04.14.02.01.07.08.11.15.16.81.49,1.46,1.17,1.9,1.99l.15.09c.32.57.5,1.27.56,1.92l.03,7.54-.09.06-.02,2.66.09.03v7.65c-.03.42-.28,1.78-.58,2-.03.02-.06.04-.09.05-.44.85-1.12,1.56-1.93,2.08-.82.46-1.7.75-2.68.75h-7.16s0,9.32,0,9.32c-.02-.02-.04-.04-.04-.1v-9.21s-2.65,0-2.65,0h-7.26c-.9-.01-1.72-.29-2.49-.71-.06-.03-.09-.04-.13-.01,0-.03-.01-.09-.06-.12-.8-.48-1.41-1.22-1.87-2l-.06-.19c-.25-.51-.45-1.06-.47-1.63l-.04-1.06v-1.87s0-3.24,0-3.24v-1.73s.02-2.65.02-2.65h-.26c-.04-.1.02-.15.16-.14-.03-2.49-.02-4.98.03-7.46.06-.72.29-1.42.62-2.05.08,0,.15-.05.19-.14.49-.82,1.19-1.46,1.99-1.94-.02-.03.06,0,.09-.03.66-.31,1.35-.57,2.11-.57h7.43Z"/>
            <g>
              <path class="cls-2" d="M57.34,51.19c0,1.42-.99,2.79-2.49,2.79l-17.28.02c-1.24-.14-2.2-1.11-2.34-2.35v-17.46c.13-1.27,1.08-2.27,2.35-2.38h17.41c1.36.14,2.37,1.31,2.33,2.69v6.47s.03,10.22.03,10.22Z"/>
              <path class="cls-3" d="M51.6,49.9c-.19-.22-.32-.51-.32-.82v-12.41c0-.39.23-.77.51-.97.42-.31.92-.38,1.39-.17.4.18.76.6.76,1.13v12.38c0,.6-.32,1.07-.81,1.26-.55.21-1.12.07-1.52-.4Z"/>
              <g>
                <path class="cls-3" d="M46.19,47.88h-4.5s-.57,1.7-.57,1.7c-.22.67-.94.96-1.61.74-.6-.19-1.12-.87-.89-1.56l3.05-9.37,1.07-3.21c.15-.46.61-.72,1.07-.78.64-.08,1.2.27,1.4.89l2.46,7.58,1.6,4.93c.2.62-.23,1.22-.77,1.45-.68.31-1.43.04-1.72-.65l-.59-1.74Z"/>
                <polygon class="cls-2" points="45.31 45.23 42.56 45.23 43.94 41.04 45.31 45.23"/>
              </g>
            </g>
          </g>
        </g>
        <g>
          <circle class="cls-2" cx="4.75" cy="42.83" r="2.07"/>
          <circle class="cls-2" cx="79.22" cy="42.83" r="2.07"/>
        </g>
      </g>
    </g>
  </g>
</svg>