<?xml version="1.0" encoding="UTF-8"?>
<svg id="_레이어_2" data-name="레이어 2" xmlns="http://www.w3.org/2000/svg" viewBox="0 0 78.18 83.42">
  <defs>
    <style>
      .cls-1 {
        fill: #fff;
      }

      .cls-2 {
        fill: #3b9cd6;
      }

      .cls-3 {
        fill: #040101;
      }

      .cls-4 {
        fill: #fffffe;
      }
    </style>
  </defs>
  <g id="_레이어_1-2" data-name="레이어 1">
    <g id="_생성형_오브젝트" data-name="생성형 오브젝트">
      <path class="cls-2" d="M48.6,49.32c-1.53,0-3.38.72-4.57,1.71l-3.44,2.86-5.05,4.22-.66.61c-.74.59-1.71.57-2.41-.03l-8.01-6.79c-1.02-1.07-2.67-1.14-3.81-.21-1.29,1.14-1.12,3.03.18,4.13l3.26,2.75,6.4,5.38c1.61,1.35,4.83,1.28,6.31.05l7.56-6.3c.68-.57,1.65-.65,2.32.01.23.23.44.6.44.97v21.53s17.76.01,17.76.01c.88,0,1.54.76,1.54,1.57s-.62,1.61-1.5,1.61h-19.42c-.81,0-1.56-.7-1.56-1.51v-19.67s-5.09,4.23-5.09,4.23c-.39.32-.79.55-1.23.77-1.14.58-2.37.86-3.65.91-2.23.09-4.31-.67-5.99-2.1l-7.98-6.78-1.26-1.03c-.39-.32-.7-.68-1.01-1.07-.69-.87-1.06-1.92-1.17-3.03-.25-2.49,1.25-4.78,3.54-5.8v-18.38c0-.93.68-1.66,1.6-1.66s1.63.72,1.63,1.67v6.36s0,1.37,0,1.37v1.42s0,1.39,0,1.39v1.57s0,2.25,0,2.25v2.02s0,1.58,0,1.58c1.09.13,2.03.6,2.85,1.28l1.23,1.01,4.56,3.86,1.65,1.38c.17.14.14,0,.52-.31l1.42-1.19,5.67-4.74c.75-.63,1.48-1.22,2.34-1.69,1.72-.94,3.62-1.38,5.59-1.37l18.61.02c1.19,0,2.35.24,3.45.66,3,1.14,5.35,3.54,6.37,6.54.34,1.01.57,2.04.57,3.12v21.51c-.25,3.37-3.28,5.81-6.68,5.37-2.76-.32-4.94-2.59-5.14-5.36l.02-19.31c0-.82.82-1.42,1.53-1.44.86-.03,1.48.57,1.65,1.41v19c.01.68.32,1.32.78,1.78.83.82,2.12,1.01,3.17.48.83-.42,1.46-1.29,1.46-2.25v-20.91c0-1.18-.33-2.31-.84-3.35-1.09-2.22-3.72-4.07-6.2-4.07h-19.33Z"/>
      <g>
        <ellipse class="cls-2" cx="56.58" cy="30.63" rx="12.96" ry="12.79"/>
        <ellipse class="cls-1" cx="56.58" cy="30.64" rx="9.72" ry="9.6"/>
      </g>
      <g>
        <path class="cls-3" d="M3.22,50.61v22.01s35.79.02,35.79.02c.86,0,1.47.82,1.48,1.58s-.62,1.61-1.49,1.61H1.59C.62,75.84,0,75,0,74.1v-37.7s.01-15.8.01-15.8c0-.37.14-.74.4-1l9.77-9.76L19.5.52C19.8.21,20.2,0,20.65,0h35.68c.83,0,1.5.76,1.5,1.54v11.14c0,.85-.66,1.52-1.51,1.58s-1.7-.58-1.7-1.48V3.29c.02-.07,0-.13-.09-.12H22.42s0,17.55,0,17.55c-.11.84-.74,1.47-1.6,1.51H3.23s0,28.38,0,28.38Z"/>
        <polygon class="cls-4" points="19.22 19.06 5.43 19.07 19.22 5.25 19.22 19.06"/>
      </g>
    </g>
  </g>
</svg>