<?xml version="1.0" encoding="UTF-8"?>
<svg id="_레이어_2" data-name="레이어 2" xmlns="http://www.w3.org/2000/svg" viewBox="0 0 76.49 71">
  <defs>
    <style>
      .cls-1 {
        fill: #fff;
      }

      .cls-2 {
        fill: #3b9cd6;
      }

      .cls-3 {
        fill: #050304;
      }
    </style>
  </defs>
  <g id="_레이어_1-2" data-name="레이어 1">
    <g id="_생성형_오브젝트" data-name="생성형 오브젝트">
      <path class="cls-2" d="M31.81,0s.02.07.08.06c4.53.74,8.53,3.37,11.2,7.66,2.87-1.27,5.94-1.47,8.89-.59,4.91,1.59,8.65,5.72,9.58,11.62,3.89-.17,7.62,1.51,10.43,4.58,2.49,2.73,4.06,6.38,4.46,10.31-.05.21-.04.37.05.48v2.83c-.15.13-.03.33-.05.54-.66,6.05-4.12,11.21-9,13.51-1.58.74-3.23,1.13-4.95,1.21-.74.03-1.35-.48-1.44-1.33-.08-.7.39-1.61,1.13-1.65,2.86-.13,5.59-1.31,7.71-3.49,3.94-4.04,5.15-10.53,2.9-16.03-1.69-4.15-5.02-7.12-8.99-7.84-1.03-.19-2.02-.22-3.05-.07-.44.06-.85,0-1.17-.31s-.48-.76-.53-1.29c-.25-2.93-1.41-5.6-3.36-7.51-3.55-3.47-8.31-3.94-12.53-1.75-.69.36-1.4.08-1.79-.65-.69-1.29-1.5-2.45-2.51-3.45-2.45-2.43-5.5-3.79-8.73-3.96-5.36-.28-10.56,2.66-13.1,8.18-1.28,2.8-1.69,5.9-1.47,9.04.06.86-.52,1.6-1.24,1.62-3.24.1-6.26,1.67-8.46,4.41-2.14,2.67-3.34,6.22-3.21,9.88.21,5.62,3.38,10.52,7.95,12.4,1.25.52,2.51.71,3.82.81.73.06,1.17.96,1.08,1.66-.1.87-.71,1.33-1.47,1.31-4.4-.14-8.4-2.63-11.05-6.65-1.68-2.54-2.69-5.51-2.91-8.71,0-.14-.04-.28-.1-.35v-2.07c.15-3.88,1.59-7.66,3.94-10.53s5.53-4.8,8.87-5.15c-.22-4.98,1.51-9.99,4.59-13.49C19.95,2.36,23.49.25,27.09,0h4.71Z"/>
      <g>
        <path class="cls-3" d="M52.95,71H19.52c-2.05-.66-3.66-2.54-3.66-4.83l.02-24.15c0-2.79,2.38-4.97,5.09-4.97h8.8c.96,0,1.73.4,2.44.99l2.62,2.2c.1.08.25.21.41.21h15.58c2.97,0,5.14,2.36,5.18,5.31l.02,1.58c1.74-.14,3.36.56,4.4,1.84s1.49,3.14.92,4.79l-4.76,13.74c-.58,1.67-2.04,2.79-3.61,3.29Z"/>
        <path class="cls-1" d="M51.67,68.17h-30.89c-1.29-.23-2.15-1.41-1.69-2.65l4.98-13.49c.42-1.15,1.48-1.67,2.65-1.67l30.03.04c1.18,0,2.09,1.41,1.71,2.51l-4.57,13.37c-.34,1.01-1.14,1.7-2.22,1.91Z"/>
        <path class="cls-1" d="M50.92,43.49c1.15,0,2,1.08,2,2.26v1.58s-26.74,0-26.74,0c-2.16.12-4.1,1.41-4.86,3.44l-2.41,6.42v-15.25c.18-.98.95-1.86,1.99-1.86l8.97-.02,3.34,2.79c.5.42,1.1.58,1.78.63h15.93Z"/>
      </g>
    </g>
  </g>
</svg>