<?xml version="1.0" encoding="UTF-8"?>
<svg id="_레이어_2" data-name="레이어 2" xmlns="http://www.w3.org/2000/svg" viewBox="0 0 92.76 67.43">
  <defs>
    <style>
      .cls-1 {
        fill: #040000;
      }

      .cls-2 {
        fill: #fff;
      }

      .cls-3 {
        fill: #040001;
      }

      .cls-4 {
        fill: #3b9cd6;
      }
    </style>
  </defs>
  <g id="_레이어_1-2" data-name="레이어 1">
    <g id="_생성형_오브젝트" data-name="생성형 오브젝트">
      <g>
        <path class="cls-1" d="M88.89,67.43H3.85c-2.13-.01-3.83-1.98-3.84-4.07L0,57.69c0-.76.54-1.47,1.31-1.47l5.07-.02V1.32c0-.7.58-1.19,1.2-1.32h77.56c.64.08,1.23.59,1.23,1.3v54.9s5.03.01,5.03.01c.74,0,1.29.56,1.36,1.31l-.02,5.91c0,2.16-1.71,3.89-3.85,4Z"/>
        <path class="cls-2" d="M56.91,58.97h33.16s0,4.28,0,4.28c0,.79-.61,1.36-1.38,1.39H3.95c-.71-.1-1.25-.69-1.25-1.41v-4.26s33.17,0,33.17,0l.02,1.76c0,.82.61,1.41,1.42,1.41h18.1c.86,0,1.5-.61,1.49-1.49l.02-1.68Z"/>
        <g>
          <path class="cls-2" d="M54.21,59.38h-15.64s-.01-1.85-.01-1.85c-.09-.72-.54-1.27-1.27-1.32H9.15s0-53.34,0-53.34h74.48s0,53.34,0,53.34h-28.02c-.79.01-1.33.62-1.37,1.4l-.02,1.77Z"/>
          <path class="cls-4" d="M29.54,44.09c-.25.43-.66.68-1.1.68h-8.25c-.78,0-1.25-.75-1.22-1.43.04-.83.66-1.3,1.47-1.3h7.23s7.57-12.84,7.57-12.84c.23-.39.66-.59,1-.6.42-.01.85.15,1.14.54l8.95,12.15,5.62-9.47c.3-.5.81-.69,1.36-.62l4.81,1.18,2.87-3,6.65-6.93c.11-.12.21-.23.26-.38l-6.07-.05c-.69,0-1.08-.75-1.07-1.35s.46-1.31,1.17-1.32l9.24-.02c.73,0,1.34.59,1.34,1.37v9.29c0,.75-.63,1.32-1.29,1.32s-1.3-.57-1.3-1.31l-.02-6.07-1.85,1.9-5.43,5.68-3.26,3.42c-.31.24-.69.36-1.08.27l-4.62-1.12-6.12,10.37c-.5.69-1.58.83-2.12.09l-8.98-12.19-6.89,11.73Z"/>
          <path class="cls-1" d="M62.79,10.32h-1.4c-.71,0-1.18-.74-1.16-1.42s.52-1.35,1.24-1.34h1.34c.69.02,1.14.69,1.15,1.35s-.42,1.42-1.18,1.42Z"/>
          <path class="cls-3" d="M78.54,10.31c-.52.07-1.06.07-1.54,0-.69-.1-1.11-.76-1.08-1.41s.47-1.33,1.17-1.33h1.42c.69,0,1.13.69,1.14,1.33s-.37,1.31-1.1,1.41Z"/>
          <path class="cls-1" d="M70.47,10.34l-1.23-.02c-.75-.01-1.2-.79-1.14-1.48.06-.75.63-1.31,1.39-1.3l1.18.02c.72.01,1.16.74,1.15,1.41-.02.73-.54,1.38-1.34,1.37Z"/>
        </g>
      </g>
    </g>
  </g>
</svg>