<?xml version="1.0" encoding="UTF-8"?>
<svg id="_레이어_2" data-name="레이어 2" xmlns="http://www.w3.org/2000/svg" viewBox="0 0 92.11 74.39">
  <defs>
    <style>
      .cls-1 {
        fill: #040000;
      }

      .cls-2 {
        fill: #fff;
      }

      .cls-3 {
        fill: #3b9cd6;
      }

      .cls-4 {
        fill: #040101;
      }
    </style>
  </defs>
  <g id="_레이어_1-2" data-name="레이어 1">
    <g id="_생성형_오브젝트" data-name="생성형 오브젝트">
      <path class="cls-2" d="M5.98.41C2.86,1.34.42,4.26.15,7.57c0,.1-.06.18-.11.22l-.04-7.34,5.98-.03Z"/>
      <g>
        <path class="cls-1" d="M77.72,0c1.87.21,3.62,1.68,4.66,3.19.47.68,1.69,3.18,1.39,3.89-.02.05-.06.1-.09.15l.07,6.88c-.06.17-.12.18-.31.03-1.24-.95-2.56-1.79-3.94-2.53-.06-.07-.03-.12.07-.17l-.03-3.82-.18-.16c-.36-2.05-1.71-3.31-3.77-3.54l-67.34.39c-2.18.21-3.56,1.49-3.82,3.68l.26,46.59c.21,2.12,1.6,3.45,3.71,3.64l67.59-.38c2.01-.24,3.34-1.49,3.66-3.5l.18-.17-.02-2.97c-.1-.05-.13-.12-.07-.21.96-.53,1.89-1.11,2.79-1.75.43-.36.89-.68,1.37-.94.07,2,.1,4.02.08,6.06.04.05.07.1.1.15.32.69-.82,3.19-1.26,3.87-1.58,2.44-4.33,3.89-7.23,3.95l-17.34.07-.06.05.04,7.4c2.19.05,4.4.06,6.63.02,1.31.15,2.23,1.12,2.12,2.48-.06.78-.58,1.69-1.43,1.75l-46.84.27c-.86-.08-1.41-.95-1.48-1.76-.13-1.41.87-2.27,2.17-2.47l6.52-.05c.05-2.46.05-4.94,0-7.44l-.06-.05-17.65.06c-4.06-.08-7.74-3.6-7.89-7.65L.04,7.79C.09,5.54,1.15,3.49,2.84,1.99c.88-.78,1.95-1.49,3.14-1.58l71.73-.41Z"/>
        <rect class="cls-2" x="30.25" y="62.35" width="23.62" height="7.84" transform="translate(-.38 .24) rotate(-.33)"/>
      </g>
      <g>
        <path class="cls-3" d="M92.09,29.6l.02,3.27c0,2.49-.61,4.88-1.63,7.19-1.45,3.26-3.65,6.03-6.34,8.35l-.02,5.86-.16.1-.07-5.97c-1.27,1.03-2.58,1.93-4.06,2.69v3.09s-.18-.05-.18-.05l-.07-2.73c-8.4,4.34-18.81,3.08-26.05-2.96l-9.69.05c-1.76-.19-2.69-1.7-1.89-3.34l4.58-6.69c-2.96-8.45-.21-17.78,6.52-23.71,7.23-6.37,17.67-7.8,26.32-3.52v-3.5s.17-.09.17-.09l.06,3.89c1.48.73,2.77,1.63,4.09,2.62l-.02-6.91.16.05.12,6.85c4.51,3.77,7.99,9.42,8.13,15.46Z"/>
        <g>
          <path class="cls-2" d="M55.93,44.81c-.44-.38-.85-.63-1.42-.63h-6.68s2.75-4.04,2.75-4.04c.62-.78.71-1.72.28-2.61-2.6-6.95-.54-14.43,4.86-19.36,5.04-4.62,12.16-6.29,18.71-4.3,3.85,1.17,7.28,3.47,9.74,6.66,5.73,7.41,4.85,17.43-1.94,23.84-1.56,1.48-3.32,2.67-5.28,3.58-7.03,3.28-15.2,1.96-21.02-3.14Z"/>
          <rect class="cls-3" x="74.78" y="22.62" width="3.22" height="16.16" transform="translate(-.17 .44) rotate(-.33)"/>
          <g>
            <polygon class="cls-3" points="68.37 34.87 62.47 34.91 61.17 38.86 57.86 38.88 63.66 22.69 67.27 22.68 73.22 38.76 69.77 38.81 68.37 34.87"/>
            <polygon class="cls-2" points="67.46 32.22 63.36 32.26 65.37 26.09 67.46 32.22"/>
          </g>
        </g>
      </g>
      <g>
        <path class="cls-2" d="M79.55,7.64v3.86c-8.97-4.55-19.88-2.91-27.14,4.08-1.61,1.54-3,3.33-4.12,5.31-3.03,5.39-3.61,11.74-1.57,17.59l-4.59,6.7c-.43.63-.4,1.44-.04,2.1.32.58.98,1.06,1.75,1.06l9.75-.05c7.39,6.12,17.66,7.31,26.16,2.85l.06,3.04c-.17,2.06-1.84,3.82-4.02,3.84l-67.4.38c-1.96.01-3.86-1.83-3.87-3.8l-.26-46.42c-.01-2.13,1.87-4,3.98-4.01l67.16-.39c2.21-.01,3.93,1.78,4.14,3.87Z"/>
        <path class="cls-1" d="M33.15,29.84l-17.41.11c-1.14,0-1.91-1.1-1.88-2.08.04-1.13.92-1.98,2.09-1.99l17.06-.08c1.11,0,1.91.93,1.94,1.95.04.95-.65,2.09-1.8,2.1Z"/>
        <path class="cls-4" d="M33.08,19.72l-17.33.09c-1.11,0-1.9-.92-1.95-1.94s.71-2.1,1.85-2.11l17.46-.09c1.07,0,1.79,1.1,1.78,1.99,0,1.06-.69,1.89-1.81,2.06Z"/>
        <path class="cls-1" d="M23.48,40.02l-7.7.07c-1.1.01-1.86-1.02-1.87-2.02s.75-2.02,1.85-2.02l7.57-.04c1.04,0,1.79.98,1.82,1.93s-.59,2.08-1.68,2.09Z"/>
      </g>
    </g>
  </g>
</svg>