<?xml version="1.0" encoding="UTF-8"?>
<svg id="_레이어_2" data-name="레이어 2" xmlns="http://www.w3.org/2000/svg" viewBox="0 0 90.04 90.05">
  <defs>
    <style>
      .cls-1 {
        fill: #040000;
      }

      .cls-2 {
        fill: #fff;
      }

      .cls-3 {
        fill: #3b9cd6;
      }

      .cls-4 {
        fill: #787a7a;
      }
    </style>
  </defs>
  <g id="_레이어_1-2" data-name="레이어 1">
    <g id="_생성형_오브젝트" data-name="생성형 오브젝트">
      <path class="cls-1" d="M46.16.02l.79.05c9.1.44,17.73,5.19,23.19,12.47,1.24,1.65,2.29,3.37,3.16,5.24l1.02,2.41c.5,1.37.94,2.72,1.25,4.16.47,2.18.73,4.35.75,6.57,0,.5-.14.95-.49,1.29-.47.45-1.18.51-1.74.23s-.85-.85-.86-1.52c-.02-2.27-.3-4.51-.86-6.72-.35-1.41-.83-2.75-1.39-4.07-3.18-7.47-9.67-13.33-17.41-15.78-1.59-.5-3.19-.88-4.86-1.09-2.47-.31-4.93-.32-7.39,0-3.22.43-6.41,1.44-9.29,2.93s-5.24,3.3-7.42,5.55c-1.85,1.91-3.39,4.07-4.64,6.43-2.03,3.83-3.21,8.49-3.16,12.83,0,.55-.25,1.06-.69,1.36-.49.33-1.12.32-1.62.02-.48-.27-.76-.79-.76-1.37,0-8.89,3.89-17.39,10.59-23.21,3.02-2.63,6.49-4.71,10.29-6.05,2.62-.92,5.33-1.51,8.1-1.68.3-.02.54-.03.83-.04.22-.03.45-.05.69-.04l1.91.02Z"/>
      <polygon class="cls-4" points="44.26 0 43.56 .05 43.54 0 44.26 0"/>
      <g>
        <path class="cls-3" d="M32.43,59.88c-.09.03-.18.1-.27.2l-5.28,5.24-4.18,4.13-2.68,2.65c1.41,1.83,2.15,3.9,2.28,6.19.1,1.98-.28,3.9-1.19,5.65-1.04,1.99-2.63,3.65-4.6,4.73-1.45.79-3,1.27-4.65,1.36h-1.48c-2.55-.17-4.97-1.24-6.83-2.99l-.74-.74c-1.67-1.83-2.62-4.15-2.83-6.59l.02-1.59c.11-1.38.44-2.72,1.05-4,1.7-3.56,5.19-6.03,9.13-6.32l1.59-.02c2.21.07,4.26.89,6.05,2.19l3.88-3.85,4.84-4.8,2.93-2.94c.12.02.25.05.36.11.76.39,1.51.78,2.27,1.17.11.06.21.14.3.23Z"/>
        <circle class="cls-2" cx="11.16" cy="78.9" r="8.1"/>
      </g>
      <g>
        <path class="cls-1" d="M60.53,58.41v.1c-.91.47-1.82.93-2.74,1.4l-.14-.03c-1.25.56-2.53,1.01-3.85,1.41l-2.94.71c-1.43.29-2.86.47-4.32.5,0,.04-.02.09-.05.09-.87.06-2.08.08-2.95,0l-.06-.09c-1.25-.03-2.47-.19-3.71-.41l-3.26-.74c-1.41-.4-2.75-.89-4.09-1.47-1.02-.44-1.98-.95-2.94-1.5-2.12-1.22-4.04-2.66-5.87-4.29-.66-.59-.85-1.5-.25-2.22.53-.64,1.54-.73,2.2-.13,1.55,1.42,3.21,2.65,5,3.74,1.17.71,2.36,1.29,3.61,1.84v-11.55s-3.98,3.31-3.98,3.31c-1.36,1.13-3.11,1.55-4.86,1.32-1.32-.16-2.48-.72-3.49-1.58l-4.55-3.88-3.52-3c-2.02-1.81-2.11-4.93-.36-6.94,1.89-2.12,5.07-2.23,7.22-.41l5.6,4.75,6.58-5.46c1.49-1.24,3.44-1.79,5.37-1.89h13.77c1.75.02,3.78.79,5.19,1.81l3.22,2.69,3.44,2.86,5.6-4.75c.87-.74,1.86-1.18,3.01-1.28,1.8-.16,3.57.63,4.58,2.13s1.13,3.31.42,4.91c-.32.72-.79,1.27-1.39,1.78l-7.49,6.4c-.77.66-1.55,1.21-2.52,1.55-2.05.71-4.42.43-6.11-.97l-4.06-3.36v11.56c3.22-1.32,6.09-3.26,8.62-5.55.63-.56,1.53-.6,2.13-.02s.66,1.58.03,2.12l-1.76,1.54c-1.37,1.13-2.81,2.1-4.34,2.99Z"/>
        <path class="cls-2" d="M52.8,58.41c-5.12,1.49-10.43,1.42-15.55-.02v-15.98c0-.61-.47-1.11-.93-1.31-.64-.27-1.2-.08-1.7.33l-6.4,5.31c-1.24,1.03-3.12.81-4.3-.19l-3.9-3.31-3.83-3.27c-.35-.3-.63-.6-.79-1.04-.21-.56-.15-1.17.19-1.7.29-.45.79-.79,1.37-.86.67-.08,1.22.14,1.73.57l5.7,4.82c1.12.95,2.79.81,3.89-.1l6.24-5.21c1.13-.94,2.54-1.38,4-1.38h13.14c1.37,0,2.69.4,3.75,1.28l6.6,5.47c1.05.87,2.68.78,3.7-.08l2.76-2.32,2.87-2.46c.7-.6,1.63-.82,2.47-.36.54.3.89.88.95,1.43.07.67-.16,1.3-.66,1.73l-7.86,6.71c-1.21,1.03-3.1,1.33-4.37.28l-6.71-5.53c-.42-.35-1.05-.29-1.52-.06-.42.21-.83.68-.83,1.23l-.02,16.01Z"/>
      </g>
      <g>
        <path class="cls-3" d="M60.53,58.41l4.43,4.37,3.36,3.31,3.9,3.87c2.56-1.88,5.42-2.52,8.56-2.06,3.68.65,6.77,3.03,8.3,6.44.58,1.29.91,2.62.96,4.03v1.16c-.12,2.57-1.17,4.99-2.9,6.88l-.63.63c-.91.91-1.98,1.57-3.16,2.08-1.3.57-2.65.87-4.06.91l-1.14-.02c-2.49-.14-4.83-1.16-6.68-2.82l-.89-.89c-1.73-1.9-2.73-4.33-2.83-6.91v-1.17c.11-2.23.91-4.36,2.29-6.13l-3.08-3.06-5.42-5.37-3.72-3.69c-.06-.06-.09-.08-.17-.09l2.88-1.47Z"/>
        <circle class="cls-2" cx="78.9" cy="78.9" r="8.11"/>
      </g>
      <g>
        <path class="cls-3" d="M46.55,62.51l.02,5.33c2.36.34,4.52,1.39,6.21,3.04.68.66,1.28,1.35,1.76,2.16,1.17,1.88,1.7,4.02,1.64,6.24-.05,2-.64,3.9-1.72,5.58-1.93,3-5.18,5-8.78,5.18h-1.39c-2.8-.17-5.41-1.43-7.34-3.46-.85-.89-1.55-1.88-2.06-3-1.46-3.18-1.36-6.84.29-9.92.85-1.6,2.1-2.96,3.61-3.99,1.41-.97,3.01-1.56,4.72-1.82l-.02-5.34,1.35.04,1.71-.03Z"/>
        <circle class="cls-2" cx="45.03" cy="78.9" r="8.11"/>
      </g>
      <g>
        <circle class="cls-1" cx="45.04" cy="18.27" r="10.81"/>
        <circle class="cls-2" cx="45.04" cy="18.26" r="7.76"/>
      </g>
    </g>
  </g>
</svg>