<?xml version="1.0" encoding="UTF-8"?>
<svg id="_레이어_2" data-name="레이어 2" xmlns="http://www.w3.org/2000/svg" viewBox="0 0 92 91.67">
  <defs>
    <style>
      .cls-1 {
        fill: #050202;
      }

      .cls-2 {
        fill: #040000;
      }

      .cls-3 {
        fill: #fff;
      }

      .cls-4 {
        fill: #3b9cd6;
      }

      .cls-5 {
        fill: #040101;
      }

      .cls-6 {
        fill: #969696;
      }
    </style>
  </defs>
  <g id="_레이어_1-2" data-name="레이어 1">
    <g id="_생성형_오브젝트" data-name="생성형 오브젝트">
      <g>
        <path class="cls-2" d="M92,69.25v.85c-.02.51-.07.95-.27,1.42-.19.44-.73,1.3-1.05,1.69l-1.26,1.23-4.04,3.15c-4.43,3.14-9.59,5.71-14.71,7.72l-8.52,3.19-5.35,1.71c-3.26.85-6.72,1.49-10.04,1.4-.23.01-.47.03-.72.04h-2.2c-.76-.02-1.53-.05-2.31-.09l-5.24-.55c-3.43-.58-6.87-1.2-10.27-1.96l-13.19-3.11H1.44c-.8-.1-1.4-.54-1.44-1.39v-25.79c.07-.07.06-.24.17-.45.27-.53.79-.82,1.41-.82h17.05s5.69.12,5.69.12c3.34.14,6.68.44,9.93,1.21,2.18.52,4.28,1.26,6.22,2.41,1.27.75,2.54,1.44,3.97,1.87.84.25,1.66.42,2.53.49l4.45.36,6.93.14c.88.02,1.71.12,2.53.42s1.5.72,2.13,1.27c.44.38.76.83,1.1,1.31l3.88-1.36,3.89-1.59,7.97-3.25c1.43-.58,3.26-.8,4.64-.06,1.64.89,2.39,2.85,2.11,4.72.84-.16,1.65-.26,2.47-.08,1.06.23,1.9.95,2.4,1.9.32.59.43,1.21.54,1.84Z"/>
        <path class="cls-6" d="M46.76,91.63v.04s-.72,0-.72,0c0-.03.04-.05.09-.05h.63Z"/>
        <path class="cls-3" d="M58.3,77.73c.79-.02,1.48-.12,2.22-.28l1.79-.38,4.39-1.18c3.27-.96,6.48-2.02,9.67-3.21l5.16-2.07,1.88-.82c1.22-.53,2.45-.96,3.74-1.29.36-.09.71-.12,1.07-.12.28,0,.43.15.56.35.34.53.35,1.11.11,1.67-.31.72-.83,1.23-1.44,1.71l-3.01,2.38c-2.55,1.86-5.22,3.51-8.05,4.93l-3.96,1.84c-3.61,1.55-7.28,2.88-10.97,4.22-2.25.82-4.52,1.57-6.86,2.11-4.14.96-8.37,1.3-12.61.98-2.57-.19-5.1-.47-7.63-.96l-5.32-1.03-14.5-3.35c-.07-.02-.1-.02-.14-.04-.05-.03-.04-.07-.04-.17v-22.48c0-.07.01-.08.03-.08h.11s8.08.08,8.08.08c2.27.02,4.48.2,6.73.46,1.72.2,3.37.48,5.04.93s3.33,1.15,4.86,2.06c1.21.72,2.43,1.34,3.76,1.81.8.29,1.57.47,2.41.61,1.53.25,3.04.39,4.6.48,2.81.17,5.58.21,8.4.2,2.28,0,3.87,1.68,3.88,3.91,0,1.94-1.56,3.62-3.4,3.71l-3.59.17-4.48.04h-12.42c-.32,0-.6.16-.84.33-.43.29-.62.75-.57,1.29.06.66.59,1.35,1.33,1.35h12.95s7.05-.17,7.05-.17Z"/>
        <path class="cls-3" d="M75.59,69.78l-2.32.84-4.63,1.56-3.83,1.17c.37-1.12.51-2.26.29-3.45,2.59-.79,5.1-1.75,7.59-2.83l8.54-3.49c.44-.18.88-.25,1.34-.24s.79.26.96.65c.33.73.2,1.44-.36,2.01-.33.34-.65.71-1.06.96-.91.56-1.85.95-2.84,1.35l-3.69,1.48Z"/>
        <g>
          <rect class="cls-3" x="-4.04" y="67.45" width="22.45" height="8.5" transform="translate(-64.5 78.88) rotate(-90)"/>
          <circle class="cls-5" cx="7.19" cy="64.91" r="1.5"/>
        </g>
      </g>
      <g>
        <g>
          <path class="cls-1" d="M29.3,38.33c-.1.76-.57,1.43-1.38,1.43h-6c-.75,0-1.27-.64-1.36-1.34l-.67-5.12c-.01-.1-.01-.2-.09-.26-.06-.04-.19-.14-.28-.07l-4.14,3.32c-.53.42-1.36.46-1.86-.06l-4.28-4.46c-.5-.52-.43-1.36-.03-1.91l3.07-4.25c.1-.14.06-.42-.13-.45l-4.86-.74c-.77-.12-1.46-.61-1.46-1.46v-6.2c0-.82.66-1.34,1.43-1.45l4.85-.7c.1-.01.17-.07.21-.14.05-.08.05-.18-.01-.28l-3.18-4.5c-.33-.47-.32-1.29.09-1.71l4.22-4.36c.53-.55,1.37-.57,1.97-.11l4.18,3.27c.08.06.19-.03.24-.06.07-.04.06-.17.07-.26l.69-5.23C20.66.51,21.29,0,22.01,0h5.88c.67,0,1.25.51,1.34,1.17l.77,5.51c.03.06.2.15.27.13l4.21-3.31c.67-.52,1.49-.34,2.04.22l3.83,3.93c.62.64.77,1.51.24,2.26l-3.06,4.29c-.06.09-.05.17-.02.24.03.08.1.16.21.18l4.83.69c.75.11,1.45.6,1.45,1.42v6.29c0,.81-.66,1.29-1.39,1.41l-4.92.77c-.17.03-.24.29-.14.43l3.03,4.19c.53.73.43,1.6-.18,2.24l-4.04,4.17c-.48.5-1.3.56-1.86.12l-4.2-3.34c-.08-.07-.3.03-.31.13l-.17,1.19-.52,4.03Z"/>
          <g>
            <path class="cls-3" d="M26.53,36.79h-3.23s-.76-5.3-.76-5.3c-.12-.45-.4-.78-.84-.93-.56-.18-1.08-.4-1.6-.7s-1.14-.23-1.61.17l-3.89,3.09-2.35-2.46,3-4.15c.33-.45.4-1.01.14-1.51-.29-.56-.54-1.1-.71-1.71-.13-.45-.51-.76-.96-.89l-4.97-.8v-3.48s5.01-.77,5.01-.77c.51-.11.86-.5.99-1,.14-.56.38-1.05.63-1.56.27-.53.21-1.13-.18-1.59l-2.92-4.16,2.31-2.39,4.04,3.16c.45.37,1.04.36,1.53.06s.97-.48,1.52-.65.82-.68.89-1.21l.71-5.06h3.23s.77,5.28.77,5.28c.13.54.51.91,1.03,1.04.48.12.91.33,1.33.6.48.3,1.05.32,1.51-.02l4.07-3.2,2.31,2.4-3.03,4.28c-.3.41-.35.94-.11,1.39.29.55.56,1.1.71,1.71.11.45.43.81.89.91l5.07.76v3.5s-4.8.77-4.8.77c-.59.07-1.02.47-1.18,1.03s-.34,1.04-.63,1.52c-.3.51-.27,1.11.1,1.59l2.99,4.18-2.33,2.44-3.97-3.13c-.46-.4-1.07-.43-1.58-.12s-1.06.52-1.63.71c-.44.14-.68.52-.8.96l-.72,5.23Z"/>
            <g>
              <circle class="cls-1" cx="24.92" cy="19.91" r="6.56"/>
              <circle class="cls-3" cx="24.92" cy="19.91" r="3.59"/>
            </g>
          </g>
        </g>
        <g>
          <path class="cls-4" d="M60.86,61.23c-.39.08-.73.14-1.08.03-.45-.14-.82-.49-.98-.95l-1.77-5.14c-.07-.08-.23-.09-.33-.1l-1.87,2.17-1.69,1.94c-.45.52-1.24.57-1.81.18l-4.93-3.36c-.65-.44-.68-1.26-.38-1.9l1.56-3.3.7-1.47c-.05-.12-.11-.21-.19-.31l-4.31.2c-.44.02-.82.09-1.27.02-.47-.07-1.03-.49-1.12-1l-1.14-5.87c-.16-.82.14-1.51.91-1.81l4.88-1.85c.09-.07.12-.34.03-.42l-3.88-3.67c-.48-.46-.54-1.27-.18-1.83l3.22-5.04c.4-.62,1.18-.86,1.85-.53l4.59,2.31c.12.06.36-.01.35-.16l-.11-2.23-.19-3.19c-.04-.72.3-1.45,1.06-1.61l5.69-1.17c.83-.17,1.56.18,1.84,1.01l1.68,4.94c.04.11.05.18.13.22.07.04.18.06.25-.02l1.92-2.25,1.55-1.78c.48-.55,1.27-.66,1.89-.24l4.95,3.38c.56.38.75,1.15.48,1.75l-1.42,3.07-.87,1.92c-.04.08.12.3.22.29l5.24-.2c.8-.03,1.3.68,1.44,1.39l1.08,5.74c.12.63-.16,1.27-.78,1.51l-3.6,1.37-1.46.56c-.04.12-.07.23-.07.37l2.41,2.21,1.44,1.3c.5.45.67,1.12.42,1.75l-.29.57-3.09,4.71c-.42.64-1.23.79-1.88.46l-3.21-1.59-1.38-.7c-.08-.04-.3.05-.33.14-.05.2.01.42.02.63l.24,4.8c.04.76-.37,1.42-1.14,1.59l-5.31,1.13Z"/>
          <g>
            <path class="cls-3" d="M60.26,55.53l-.79-2.3c-.2-.57-.65-.89-1.25-.93-.54-.04-1.06-.17-1.56-.35-.55-.19-1.11,0-1.47.45l-1.66,1.89-1.65,1.91-2.71-1.82,2.18-4.65c.24-.51.24-1.01-.14-1.45-.41-.49-.74-1.03-1.05-1.59-.19-.34-.5-.58-.88-.66l-1.25.03-4.02.2-.64-3.34,4.57-1.72c.57-.18.91-.63.96-1.21s.17-1.13.33-1.69c.14-.47.08-.96-.27-1.3l-.61-.6-.83-.79-.94-.9-.63-.58-.8-.77,1.75-2.76c.03-.05.11-.08.17-.05l1.26.64,3.16,1.59c.52.26,1.04.15,1.46-.21.44-.38.89-.7,1.4-.98s.73-.75.67-1.31l-.05-.9-.23-4.36,3.19-.66,1.71,5.02c.14.47.5.78.99.83.6.06,1.18.15,1.75.36.48.17,1.01.11,1.36-.28l2.43-2.83.99-1.18,2.79,1.88-2.12,4.55c-.27.57-.27,1.15.14,1.65.36.45.68.92.93,1.44.2.42.58.68,1.04.73l1.21-.03,3.94-.19.66,3.34-2.6,1.01-1.97.77c-.48.18-.83.57-.89,1.09-.07.63-.15,1.25-.35,1.85s.03,1.11.48,1.52l3.13,2.87.46.43-1.87,2.84-2.32-1.15-2.29-1.12c-.47-.17-.95-.09-1.32.24-.42.37-.86.7-1.35.97-.55.3-.85.81-.81,1.45l.15,2.74.04,1.22.04,1.11-3.11.66-.91-2.6Z"/>
            <g>
              <circle class="cls-4" cx="59.57" cy="41.26" r="6.57"/>
              <circle class="cls-3" cx="59.57" cy="41.27" r="3.59"/>
            </g>
          </g>
        </g>
      </g>
    </g>
  </g>
</svg>