<?xml version="1.0" encoding="UTF-8"?>
<svg id="_레이어_2" data-name="레이어 2" xmlns="http://www.w3.org/2000/svg" viewBox="0 0 81.71 75.37">
  <defs>
    <style>
      .cls-1 {
        fill: #040000;
      }

      .cls-2 {
        fill: #fff;
      }

      .cls-3 {
        fill: #3b9cd6;
      }
    </style>
  </defs>
  <g id="_레이어_1-2" data-name="레이어 1">
    <g id="_생성형_오브젝트" data-name="생성형 오브젝트">
      <path class="cls-1" d="M23.14,59.38c-.1-.79.39-1.42,1.14-1.55.77-.06,1.41.54,1.42,1.33l.02,1.41c.17,2.59,1.84,4.8,4.28,5.66.67.24,1.34.38,2.07.4l11.88.34c.76.02,1.48-.09,2.12-.5.68-.44,1.17-1.12,1.39-1.92l.54-2.63,1.63-8.81c.1-.54.22-1.01.48-1.48.44-.81,1.12-1.42,2.02-1.68l4.35-1.23.54-.19c.24-.09.35-.37.22-.63l-4.01-8.47-1.12-2.58c-.52-1.52-.66-3.1-.53-4.71.18-2.26.04-4.49-.39-6.71-.85-4.42-2.79-8.54-5.65-12.01-4.25-5.16-10.23-8.72-16.76-10.13-2.38-.52-4.78-.7-7.2-.7-.74,0-1.24-.66-1.22-1.3.02-.75.59-1.26,1.35-1.27,6.55-.07,12.68,1.6,18.23,5.08,2.15,1.35,4.12,2.95,5.89,4.76,4.95,5.08,7.94,11.71,8.34,18.8.07,1.28.07,2.49-.03,3.77-.12,1.5.09,2.97.73,4.34l4.06,8.61.72,1.58c.7,1.82-.27,3.63-2.13,4.15l-4.1,1.14c-.27.07-.52.13-.76.28-.19.12-.35.38-.4.63l-2.03,10.97c-.24,1.32-.69,2.51-1.61,3.52-1.06,1.18-2.58,1.91-4.21,1.87l-11.05-.28v4.94c0,.68-.61,1.16-1.23,1.19s-1.3-.46-1.3-1.15l-.02-5.15c-2.83-.41-5.23-2.17-6.6-4.64-.81-1.56-1.16-3.27-1.06-5.06Z"/>
      <path class="cls-1" d="M72.02,68.43c-.31-.22-.52-.57-.55-.9-.03-.39.09-.77.4-1.06,2.27-2.08,4.15-4.59,5.41-7.41,2.1-4.7,2.42-9.94.91-14.86-1.15-3.77-3.28-7.18-6.23-9.81-.53-.47-.63-1.23-.2-1.8.38-.51,1.24-.73,1.78-.26,1.55,1.33,2.87,2.86,4.01,4.55,2.72,4.04,4.18,8.84,4.16,13.73-.02,4.22-1.19,8.33-3.32,11.95-1.25,2.13-2.85,4.03-4.64,5.7-.5.46-1.13.6-1.73.18Z"/>
      <path class="cls-1" d="M68.7,63.52c-.56.53-1.29.61-1.87.11s-.58-1.41.01-1.94c1.57-1.42,2.81-3.12,3.7-5.05,1.57-3.39,1.83-7.22.68-10.77-.87-2.71-2.25-4.92-4.38-6.8-.57-.5-.61-1.38-.1-1.9.56-.57,1.39-.49,1.94.05.66.65,1.28,1.26,1.87,1.98,1.46,1.78,2.55,3.87,3.2,6.09,1.29,4.38.89,9.1-1.21,13.17-.98,1.9-2.28,3.59-3.85,5.06Z"/>
      <path class="cls-1" d="M61.86,57.12c1.48-1.34,2.49-3.02,2.88-4.98s.18-3.78-.64-5.53c-.51-1.07-1.22-2.06-2.12-2.82-.59-.5-.77-1.28-.3-1.9s1.36-.67,1.95-.15c2.74,2.42,4.18,6.02,3.83,9.67-.29,2.94-1.65,5.66-3.85,7.61-.55.49-1.34.42-1.82-.1-.45-.48-.48-1.31.08-1.82Z"/>
      <g>
        <path class="cls-3" d="M22.46,44.74h-3.91s0,3.29,0,3.29c0,.74-.58,1.31-1.33,1.27-.61-.02-1.2-.48-1.21-1.12l-.02-3.44h-3.88s0,3.33,0,3.33c0,.5-.32.9-.7,1.09-.47.24-1,.17-1.4-.14-.26-.23-.43-.54-.43-.89v-3.41c-2.15-.08-3.97-1.64-4.42-3.76H1.23c-.65,0-1.16-.5-1.22-1.14-.06-.69.4-1.39,1.13-1.4l3.96-.02v-2.32s-.02-1.79-.02-1.79l-3.99-.02c-.7,0-1.15-.73-1.07-1.4.05-.54.49-1.1,1.07-1.11l4.03-.02v-4.1s-3.93-.01-3.93-.01c-.69,0-1.19-.65-1.17-1.29s.53-1.24,1.22-1.24h3.98c.48-2.08,2.27-3.56,4.38-3.63v-3.86c0-.67.57-1.18,1.19-1.22.66-.03,1.2.41,1.33,1.09v3.98s3.89,0,3.89,0v-3.75c-.02-.72.52-1.27,1.2-1.31s1.27.47,1.35,1.16v3.9s3.88,0,3.88,0v-3.88c.09-.68.59-1.16,1.24-1.19.62-.02,1.3.44,1.3,1.13l.02,4.03c1.75.41,3.1,1.76,3.53,3.52l4.1.03c.67,0,1.09.67,1.08,1.27-.01.64-.46,1.17-1.13,1.26h-3.98s0,4.1,0,4.1h4.03c.64.1,1.07.64,1.08,1.25,0,.64-.42,1.19-1.08,1.29h-4.03s0,4.13,0,4.13l3.98.02c.67,0,1.14.61,1.13,1.25,0,.64-.46,1.26-1.13,1.27l-4.05.02c-.35,1.81-1.79,3.23-3.53,3.67v3.65c-.15.64-.67,1.06-1.31,1.04-.57,0-1.22-.43-1.22-1.08l-.03-3.48Z"/>
        <g>
          <path class="cls-2" d="M24.01,42.19h-14.36c-.94-.01-1.66-.76-1.9-1.6-.09-.33-.1-.59-.1-.94v-13.55c.02-1.15.98-2.14,2.14-2.14h14.2c1.11,0,2.07.99,2.07,2.1l.02,14.11c-.15,1.12-.91,1.95-2.07,2.02Z"/>
          <path class="cls-3" d="M22.54,36.91c0,.62-.45,1.1-1.1,1.17-.57.06-1.3-.32-1.3-.95v-8.75c0-.45.4-.82.77-.94.5-.17,1-.01,1.33.34.16.17.3.39.29.65v7.05s0,1.44,0,1.44Z"/>
          <g>
            <path class="cls-3" d="M12.77,36.27l-.39,1.02c-.15.39-.49.7-.94.77-.42.06-.84-.04-1.12-.3s-.43-.65-.29-1.02l3.22-8.54c.18-.47.56-.81,1.1-.83s1.01.28,1.19.78l3.26,8.66c.08.56-.26,1.06-.81,1.23-.57.15-1.21-.04-1.47-.56l-.47-1.2h-3.28Z"/>
            <polygon class="cls-2" points="15.29 34.15 13.53 34.15 14.41 31.88 15.29 34.15"/>
          </g>
        </g>
      </g>
    </g>
  </g>
</svg>