<?xml version="1.0" encoding="UTF-8"?>
<svg id="_레이어_2" data-name="레이어 2" xmlns="http://www.w3.org/2000/svg" viewBox="0 0 99.31 80">
  <defs>
    <style>
      .cls-1 {
        fill: #040000;
      }

      .cls-2 {
        fill: #fff;
      }

      .cls-3 {
        fill: #3b9cd6;
      }

      .cls-4 {
        fill: #9c9d9d;
      }

      .cls-5 {
        fill: #9ea09f;
      }
    </style>
  </defs>
  <g id="_레이어_1-2" data-name="레이어 1">
    <g id="_생성형_오브젝트" data-name="생성형 오브젝트">
      <path class="cls-3" d="M69.06,74.32s-.09.07-.18.07h-7.56c.31.96.3,1.98-.02,2.94-.43,1.26-1.43,2.21-2.71,2.67h-12.94c-.98-.36-1.86-1.04-2.4-2.06-.7-1.34-.75-2.93.09-4.33.64-1.08,1.91-2.13,3.39-2.13l10.6-.02c1.81,0,3.34,1.21,3.96,2.84l7.77.02Z"/>
      <g>
        <path class="cls-1" d="M51.29,0c16.02,0,32.08,11.87,33.11,28.63,3.67.05,7.25,1.62,9.95,4.09s4.76,6.06,4.95,9.7v4.48c-.15,3.6-2.23,7.11-4.88,9.54s-6.56,4.21-10.32,4.19c-1.09,7.59-6.26,16.24-14.56,16.86l-8.15.02-.11-.17c-.08-.3-.07-.63.05-.99l-.04-1.31c-.17-.54-.15-.77.08-.69,2.57.02,5.13.01,7.68-.03,2.41,0,4.61-1.18,6.37-2.87,3.6-3.46,5.77-9.09,5.9-14.04l.02-10.01.02-16.63c0-2.93-.52-5.76-1.5-8.5-3.04-8.53-10.18-14.6-18.66-17.45-11.25-3.78-24.35-1.79-33.46,5.92-5.94,5.03-9.56,12.25-9.56,20.12v28.15c-.01,1.1-.94,1.53-1.88,1.53-4.26.01-8.28-1.53-11.33-4.49-2.69-2.61-4.48-6.04-4.79-9.77-.07-.31-.13-.63-.17-.95v-1.65c.11-3.96,1.89-7.74,4.76-10.58s6.53-4.48,10.39-4.49c.37-7.42,4.09-14.39,9.52-19.39C30.84,3.57,39.42.04,47.71.08c.3-.02.6-.04.91-.08h2.67Z"/>
        <path class="cls-4" d="M.17,46.3l-.17-.35v-.6c.17.29.14.64.17.95Z"/>
        <path class="cls-5" d="M48.62,0c-.25.15-.6.09-.91.08l-.04-.08h.95Z"/>
        <path class="cls-2" d="M93.78,52.44c-2.2,2.98-5.83,4.85-9.44,5.07l.03-25.8c2.87.21,5.53,1.29,7.63,3.17s3.42,4.08,4.07,6.72c.94,3.79.11,7.73-2.29,10.84Z"/>
        <path class="cls-2" d="M6.81,53.68c-5.27-5.35-4.85-13.79.64-18.72,2.15-1.93,4.82-3.06,7.72-3.23v25.79c-3.18-.17-6.12-1.56-8.36-3.83Z"/>
      </g>
    </g>
  </g>
</svg>