<?xml version="1.0" encoding="UTF-8"?>
<svg id="_레이어_2" data-name="레이어 2" xmlns="http://www.w3.org/2000/svg" viewBox="0 0 81.41 87.65">
  <defs>
    <style>
      .cls-1 {
        fill: #fff;
      }

      .cls-2 {
        fill: #3b9cd6;
      }

      .cls-3 {
        fill: #040101;
      }
    </style>
  </defs>
  <g id="_레이어_1-2" data-name="레이어 1">
    <g id="_생성형_오브젝트" data-name="생성형 오브젝트">
      <g>
        <path class="cls-2" d="M27.04,0c.18.2.62.27.86.66l4.09,6.76c1.41,2.32,3.62,6.69,3.67,9.17.05,1.94-.77,3.77-2.1,5.29l-1.08.98,1.03,10.78h-.79c0-.24.04-.43-.04-.65-.28-.02-.62-.1-.87.02l-.37.35c-.11.1-.14.21-.1.31l-1.06.05-7.62-.02-3.51.02h-6.5s-.04-.06,0-.07h7.04s1.03-10.77,1.03-10.77c-1.98-1.54-3.06-3.68-3.2-5.97-.05-.89.19-1.72.42-2.57.36-1.03.73-1.99,1.21-2.98,1.1-2.3,2.32-4.48,3.67-6.67l2.35-3.8c.27-.43.61-.7,1.12-.86h.73Z"/>
        <path class="cls-1" d="M30.14,21.27c-2.69,1.76-6.17,1.23-8.24-1-1.42-1.52-1.82-3.47-1.16-5.35,1.33-3.73,3.74-7.6,5.86-11.08l1.65,2.67c1.29,2.18,2.49,4.35,3.53,6.63.43,1.08.9,2.08.98,3.24.14,1.9-.86,3.74-2.63,4.89Z"/>
        <path class="cls-1" d="M30.66,33.63h-8.09s.89-9.3.89-9.3c2.01.68,4.18.72,6.28,0l.92,9.3Z"/>
      </g>
      <g>
        <path class="cls-3" d="M12.66,33.63c2.25.05,4.61.06,7.07.04l.05-.12c3.86,0,7.72,0,11.59-.03l.13.15s0-.07.03-.1c.05-.06,1.28-.05,1.34-.01.03.02.05.06.05.12,3.75,0,7.51,0,11.26,0l.14-.12h22.03s.1.12.1.12c2.75-.02,5.49,0,8.22.06.08-.25.41-.1.6,0,.28.14.49.37.63.62l5.35,10.98.16.73v1.87c-.12.34-.45.53-.98.57l-4.37.03c-.06,12.57-.07,25.15-.04,37.76-.1.76-.32,1.34-1.33,1.39H5.86c-.78-.08-1.1-.53-1.21-1.17v-17.84S.17,59.74.17,59.74l-.17-.57V6.98c.54-1.59,1.91-2.35,3.75-2.54h4.79c2.62.23,4,1.45,4.27,3.72l.03,25.38-.18.09Z"/>
        <g>
          <polygon class="cls-1" points="32.43 45.78 12.66 45.78 12.65 36.21 36.13 36.21 32.43 45.78"/>
          <g>
            <path class="cls-1" d="M72.97,48.34v36.8s-33.31,0-33.31,0v-42.72s2,5.06,2,5.06c.24.48.7.8,1.34.86h29.97Z"/>
            <polygon class="cls-1" points="78.14 45.78 44.05 45.79 40.34 36.21 73.47 36.2 78.14 45.78"/>
          </g>
          <g>
            <path class="cls-1" d="M12.53,58.97c.09-.25.13-.43.13-.7v-9.93s20.49,0,20.49,0c.8.05,1.42-.31,1.68-.94l1.97-4.98v42.72s-29.1,0-29.1,0v-16.56s4.83-9.61,4.83-9.61Z"/>
            <g>
              <rect class="cls-1" x="2.69" y="15.01" width="7.12" height="42.12"/>
              <path class="cls-1" d="M9.8,12.48H2.69s0-4.26,0-4.26c0-.57.57-1.03,1.19-1.1h4.68c.66.08,1.18.53,1.24,1.11v4.26Z"/>
              <polygon class="cls-1" points="9.05 59.66 6.27 65.18 3.45 59.65 9.05 59.66"/>
            </g>
          </g>
        </g>
      </g>
      <g>
        <path class="cls-2" d="M59.13,0c.05.09.15.1.29.14.48.16.84.59.84,1.08v8.29c4.62,2.71,5.64,8.46,2.12,12.29l4.06,11.83h8.04c.11,0,.16.03.2.08l-8.17-.03h-3.18s-16.08,0-16.08,0h-3.22s-11.11,0-11.11,0l-1.42-.04c-.46-.04.2-.71.37-.78.6-.24,1.37-.09,1.2.59.32-.04.53.02.62.17h10.53s4.05-11.82,4.05-11.82c-.84-.87-1.36-1.81-1.68-2.87-.54-1.51-.56-3.04-.09-4.57.52-1.89,1.94-3.76,3.87-4.82l-.02-8.03c0-.76.4-1.34,1.27-1.53h7.52Z"/>
        <path class="cls-1" d="M63.42,33.63h-16.19s3.41-9.94,3.41-9.94c2.94,1.56,6.5,1.55,9.36,0l3.42,9.93Z"/>
        <path class="cls-1" d="M57.38,8.41c-1.39-.28-2.76-.3-4.13.03V2.54s4.13,0,4.13,0v5.87Z"/>
        <g>
          <path class="cls-1" d="M59.37,20.94c-2.28,1.83-5.61,1.84-7.93.1-3.09-2.31-3.16-6.57-.13-8.94,2.52-1.97,6.26-1.78,8.52.4,2.51,2.42,2.35,6.19-.45,8.44Z"/>
          <ellipse class="cls-2" cx="55.33" cy="16.53" rx="2.64" ry="2.29"/>
        </g>
      </g>
    </g>
  </g>
</svg>