<?xml version="1.0" encoding="UTF-8"?>
<svg id="_레이어_2" data-name="레이어 2" xmlns="http://www.w3.org/2000/svg" viewBox="0 0 84.34 89.34">
  <defs>
    <style>
      .cls-1 {
        fill: #040000;
      }

      .cls-2 {
        fill: #fff;
      }

      .cls-3 {
        fill: #3b9cd6;
      }
    </style>
  </defs>
  <g id="_레이어_1-2" data-name="레이어 1">
    <g id="_생성형_오브젝트" data-name="생성형 오브젝트">
      <g>
        <path class="cls-3" d="M44.43,37.17c-.1-.7-.34-1.28-.87-1.7-.93-.75-2.3-.63-3.06.3-.29.36-.5.75-.54,1.24-.05.67-.64,1.3-1.39,1.17-1.86-.32-3.61-.98-5.3-1.81-.8-.39-1.54-.81-2.24-1.35-.58-.45-.57-1.26-.12-1.78.37-.44.57-1.02.52-1.58-.07-.78-.55-1.44-1.15-1.76-.75-.4-1.61-.35-2.28.11-.28.19-.52.41-.88.45-.41.05-.91-.13-1.17-.5-1.48-2.18-2.5-4.65-2.96-7.24-.15-.82.46-1.4,1.21-1.46s1.42-.63,1.73-1.33.2-1.45-.21-2.09c-.37-.57-1-.94-1.73-1-.59-.05-1.14-.72-1.02-1.37.5-2.62,1.48-5.13,3.02-7.32.38-.54,1.25-.57,1.74-.19.75.57,1.68.74,2.51.27,1.25-.7,1.56-2.29.68-3.42-.38-.48-.4-1.27.11-1.66.96-.74,2-1.27,3.1-1.76,1.42-.63,2.87-1.11,4.41-1.34.68-.1,1.29.4,1.36,1.05.12,1.17,1.07,2.03,2.22,2.04s2.12-.82,2.26-1.99c.08-.7.7-1.25,1.45-1.11,2.6.49,5.21,1.53,7.37,3.06.54.38.57,1.17.11,1.8-.66.89-.58,2.07.17,2.87.82.88,2.1.95,3.05.2.54-.43,1.43-.35,1.83.24,1.48,2.17,2.45,4.6,2.95,7.17.14.71-.35,1.37-1.05,1.45-1.17.13-2.05,1.06-2.06,2.21s.87,2.14,2.06,2.25c.77.08,1.2.8,1.05,1.54-.52,2.55-1.49,4.97-2.96,7.12-.25.36-.72.53-1.13.5-.3-.02-.54-.17-.75-.34-1.01-.81-2.44-.6-3.19.45-.6.85-.5,1.92.15,2.69.44.52.43,1.34-.14,1.77-.81.61-1.68,1.09-2.61,1.52-1.59.74-3.21,1.34-4.94,1.63-.66.11-1.25-.37-1.34-1Z"/>
        <g>
          <path class="cls-2" d="M46.54,35.48c-.77-1.74-2.21-2.85-4.13-2.97-.56-.04-1.1.05-1.65.21-1.34.45-2.39,1.44-2.94,2.76-1.5-.44-2.94-1.01-4.32-1.8.83-1.88.34-4.07-1.23-5.43-.75-.64-1.69-1.02-2.69-1.11-.77-.06-1.51.1-2.21.41-.47-.78-.81-1.59-1.13-2.43-.23-.58-.44-1.13-.57-1.74.7-.25,1.23-.68,1.73-1.2.84-.89,1.26-2.07,1.2-3.31-.08-1.85-1.22-3.45-2.91-4.13.38-1.49.96-2.89,1.71-4.22.77.35,1.57.47,2.41.36.96-.13,1.85-.52,2.57-1.14,1.5-1.39,1.92-3.41,1.19-5.3,1.33-.8,2.73-1.34,4.25-1.76.27.68.66,1.24,1.2,1.71,1.21,1.07,2.8,1.47,4.38,1.05.77-.21,1.44-.61,2.03-1.14.49-.44.82-.99,1.07-1.62,1.51.42,2.91.97,4.26,1.77-.67,1.71-.39,3.57.84,4.93.38.45.84.77,1.38,1.04,1.24.62,2.67.68,3.94.1.76,1.33,1.33,2.73,1.72,4.23-1.52.61-2.59,1.96-2.86,3.59-.24,1.41.17,2.81,1.14,3.85.49.53,1.03.94,1.73,1.2-.35,1.42-.97,2.87-1.7,4.17-1.11-.52-2.32-.54-3.45-.13-2.54.92-3.76,3.8-2.67,6.26-1.38.79-2.8,1.36-4.3,1.8Z"/>
          <g>
            <circle class="cls-3" cx="42.17" cy="19.05" r="8.95"/>
            <circle class="cls-2" cx="42.16" cy="19.05" r="6.47"/>
          </g>
        </g>
      </g>
      <g>
        <path class="cls-1" d="M77.69,44.74v24.25c0,.53-.36.92-.79,1.16l-33.95,18.92c-.43.24-.89.39-1.35.13l-5.88-3.29-21.75-12.11-6.58-3.68c-.5-.28-.77-.69-.77-1.28v-24.12s-6.03-3.42-6.03-3.42c-.64-.36-.77-1.2-.4-1.79l6.67-9.98c.1-.14.22-.24.38-.33l9.87-5.51c.61-.34,1.36.13,1.57.69.26.66-.07,1.27-.68,1.61l-7.52,4.22s-.08.04-.08.06c0,.05.03.05.1.09l13.52,7.63,10.8,6.09,7.34,4.15,2.31-1.32,5.19-2.93,21.95-12.37,2.25-1.26s.07,0,.07-.04c0-.03,0-.04-.04-.06l-7.77-4.38c-.57-.32-.71-1.03-.45-1.56s.96-.94,1.54-.61l9.78,5.45c.26.14.42.29.58.53l6.59,9.87c.39.68.1,1.5-.61,1.86l-5.86,3.3Z"/>
        <path class="cls-2" d="M43.39,86.01v-32.43s4.5,6.64,4.5,6.64c.39.58,1.16.67,1.72.33l7.96-4.48,17.67-9.93v22.14s-9.56,5.31-9.56,5.31l-18.19,10.14-4.1,2.29Z"/>
        <path class="cls-2" d="M40.94,86l-4.65-2.59-15.66-8.72-11.54-6.44v-22.12s25.8,14.5,25.8,14.5c.58.25,1.17.05,1.57-.43l4.47-6.63v32.42Z"/>
        <polygon class="cls-2" points="56.51 53.84 49.3 57.9 44 50.03 53.29 44.8 66.01 37.63 76.09 31.94 81.37 39.85 73.1 44.5 61.66 50.94 56.51 53.84"/>
        <polygon class="cls-2" points="40.34 50.05 35.04 57.89 27.71 53.76 21.83 50.47 2.98 39.85 8.25 31.94 13.5 34.91 19.39 38.24 35.48 47.3 40.34 50.05"/>
      </g>
    </g>
  </g>
</svg>