<?xml version="1.0" encoding="UTF-8"?>
<svg id="_레이어_2" data-name="레이어 2" xmlns="http://www.w3.org/2000/svg" viewBox="0 0 75.16 77.98">
  <defs>
    <style>
      .cls-1 {
        fill: #fff;
      }

      .cls-2 {
        fill: #3b9cd6;
      }

      .cls-3 {
        fill: #040101;
      }
    </style>
  </defs>
  <g id="_레이어_1-2" data-name="레이어 1">
    <g>
      <g id="_생성형_오브젝트" data-name="생성형 오브젝트">
        <path class="cls-2" d="M0,37.7v-.39s.05-.07.07-.12c.15-.51.57-.83,1.08-.81l.45.02,1.54.03,1.93.04,1.67.04,1.89.04,1.47.03.6.03c.55.06.97.62.95,1.18s-.43,1.12-.99,1.11l-1.5-.02-1.75-.03-1.58-.04-1.71-.03-1.66-.04-1.39-.03c-.51-.01-.92-.4-1-.92,0-.04-.02-.06-.04-.07Z"/>
        <g>
          <path class="cls-2" d="M38.67,11.38c0,.26-.16.51-.31.67-.3.32-.76.4-1.17.23-.32-.13-.7-.47-.7-.93V1.09c0-.62.51-1.06,1.05-1.08s1.11.4,1.12,1l.02,3.5v6.88Z"/>
          <path class="cls-2" d="M4.23,56.83c-.53.3-1.14.01-1.41-.45-.29-.51-.19-1.22.32-1.51l1.34-.79,7.05-4.03c.57-.33,1.26-.22,1.58.38.31.57.12,1.29-.46,1.61l-3.27,1.85-5.14,2.93Z"/>
          <path class="cls-2" d="M65.94,38.89l-1.22.03c-.63.02-1.16-.47-1.19-1.12s.44-1.21,1.08-1.22l1.47-.03,2.04-.04,1.78-.04,2.05-.04,1.91-.05c.49-.01.95.17,1.17.61.23.46.15,1.05-.21,1.39-.24.22-.51.31-.82.32l-1.15.03-1.42.03-1.87.03-1.66.04-1.95.04Z"/>
          <path class="cls-2" d="M25.09,14.24c.32.55.19,1.22-.27,1.57s-1.2.32-1.52-.22l-2.61-4.4-2.38-4.06c-.35-.59-.25-1.31.33-1.69.5-.33,1.18-.14,1.5.4l2.58,4.39,2.37,4.02Z"/>
          <path class="cls-2" d="M51.89,15.57c-.31.53-1,.58-1.46.28-.43-.29-.69-.97-.38-1.5l5.05-8.61c.34-.58,1.12-.6,1.57-.2s.5,1.07.19,1.6l-1.33,2.26-3.64,6.18Z"/>
          <path class="cls-2" d="M70.59,56.91c-.32-.08-.56-.27-.84-.42l-7.75-4.42c-.27-.16-.47-.39-.55-.67-.14-.46-.03-.87.29-1.2s.82-.44,1.26-.19l4.91,2.8,3.33,1.91c.4.23.72.62.69,1.11-.05.69-.69,1.23-1.35,1.07Z"/>
          <path class="cls-2" d="M59.91,23.53l3.49-2.15,4.67-2.83c.53-.32,1.15-.16,1.48.36.29.45.24,1.25-.31,1.58l-8.19,4.98c-.51.31-1.16.05-1.43-.42s-.23-1.21.29-1.53Z"/>
          <path class="cls-2" d="M15.03,24.19c.48.39.48,1.14.12,1.59-.4.5-1.06.55-1.56.14l-7.28-5.91c-.54-.44-.62-1.19-.21-1.69.45-.56,1.1-.5,1.63-.07l7.29,5.94Z"/>
          <g>
            <path class="cls-3" d="M32.3,73.98l-.28-1.21-2.92-.02c-.79,0-1.54-.39-2.1-.97-.72-.75-1.05-1.81-.91-2.86.07-.48.25-.91.46-1.33l.3-.41c-1.05-1.31-1.09-3.1,0-4.43-.87-1.08-1.08-2.44-.44-3.72-1.42-.93-2.77-1.99-3.97-3.24-1.97-2.04-3.56-4.44-4.68-7.09-1.28-3.05-1.86-6.38-1.74-9.71.14-3.97,1.27-7.8,3.29-11.17,3.26-5.41,8.74-9.26,14.8-10.28,1.35-.23,2.68-.3,4.05-.27,2.98.07,5.89.77,8.58,2.11,2.85,1.41,5.36,3.44,7.4,5.96,4.31,5.33,5.98,12.67,4.48,19.48-.37,1.7-.93,3.35-1.68,4.91-.97,2-2.19,3.85-3.67,5.47-1.31,1.45-2.78,2.7-4.4,3.73-.07.05-.13.08-.09.17.57,1.17.39,2.58-.42,3.58-.05.06-.02.09.02.15.99,1.27.98,3.08-.07,4.34.89,1.08,1.07,2.65.38,3.88-.56,1.01-1.52,1.64-2.63,1.71h-2.86c-.08,0-.07.06-.08.12-.18,1.24-.71,2.38-1.51,3.28-2.24,2.49-6.01,2.42-8.17-.15-.49-.58-.88-1.25-1.13-2.02Z"/>
            <path class="cls-1" d="M45.88,66h-16.67c-.56,0-.96-.61-.92-1.1.04-.61.5-1,1.07-1h16.57c.55.01.92.55.92,1.06s-.4,1.04-.98,1.04Z"/>
            <path class="cls-1" d="M45.92,61.57h-16.71c-.49-.06-.87-.45-.92-.95-.06-.58.34-1.05.89-1.15h16.75c.53,0,.9.5.92,1,.02.58-.35,1.04-.94,1.1Z"/>
            <path class="cls-1" d="M45.99,70.44h-16.74c-.64,0-1.09-.73-.92-1.34.11-.38.47-.76.88-.76h16.76c.53,0,.88.57.88,1.03,0,.54-.33.98-.87,1.08Z"/>
            <path class="cls-1" d="M40.01,74.54c-.83.95-2.03,1.34-3.21,1.03-1.28-.34-2.25-1.44-2.51-2.81h6.57c-.14.67-.41,1.27-.86,1.78Z"/>
            <path class="cls-1" d="M45.98,57.15h-16.51c-.48,0-.9.06-1.33.23l-1.18-.74c-1.58-1.1-3-2.42-4.23-3.95-1.02-1.25-1.85-2.62-2.55-4.09-1.78-3.75-2.38-7.97-1.7-12.1.31-1.88.84-3.71,1.64-5.43,1.11-2.4,2.64-4.57,4.55-6.34,4.41-4.07,10.13-5.87,15.96-4.92,2.53.41,4.93,1.36,7.11,2.77,3.77,2.44,6.65,6.15,8.11,10.54.44,1.33.74,2.71.93,4.11.66,5.02-.59,10.11-3.41,14.22-.96,1.4-2.06,2.64-3.32,3.75-.95.83-1.95,1.57-3.04,2.17-.34-.12-.63-.22-1.02-.22Z"/>
          </g>
        </g>
      </g>
      <path class="cls-2" d="M43.03,48.08c-.22-.24-.37-.54-.37-.88v-13.31c0-.42.27-.82.58-1.04.48-.34,1.05-.41,1.59-.18.46.19.87.65.87,1.22v13.28c0,.64-.36,1.15-.94,1.35-.63.23-1.28.08-1.74-.43Z"/>
      <g>
        <path class="cls-2" d="M36.81,45.92h-5.17s-.65,1.82-.65,1.82c-.26.72-1.07,1.03-1.85.8-.69-.21-1.28-.93-1.02-1.67l3.5-10.04,1.23-3.44c.18-.49.7-.77,1.23-.83.73-.09,1.38.29,1.61.95l2.83,8.13,1.84,5.29c.23.66-.27,1.31-.88,1.55-.78.34-1.64.05-1.98-.7l-.68-1.86Z"/>
        <polygon class="cls-1" points="35.8 43.08 32.65 43.08 34.23 38.59 35.8 43.08"/>
      </g>
    </g>
  </g>
</svg>