<?xml version="1.0" encoding="UTF-8"?>
<svg id="_레이어_2" data-name="레이어 2" xmlns="http://www.w3.org/2000/svg" viewBox="0 0 65 71.17">
  <defs>
    <style>
      .cls-1 {
        fill: #040000;
      }

      .cls-2 {
        fill: #3b9cd6;
      }
    </style>
  </defs>
  <g id="_레이어_1-2" data-name="레이어 1">
    <g id="_생성형_오브젝트" data-name="생성형 오브젝트">
      <g>
        <g>
          <g>
            <path class="cls-2" d="M19.58,62.89c.02-.55.3-1,.74-1.3l9.54-6.42c.5-.33,1.03-.49,1.62-.28.58.24,1.1.78,1.1,1.46l.02,5.51c7.58-.02,14.79-3,20.23-8.23l.82-.82c.79-.79,1.5-1.66,2.19-2.56,2.65-3.46,4.49-7.45,5.4-11.72.34-1.57.55-3.15.61-4.76.14-4.26-.48-8.07-2.06-12.03-1.36-3.42-3.35-6.53-5.85-9.22l-1.53-1.53c-2.36-2.2-5.06-3.97-8-5.3-2.09-.94-4.26-1.61-6.51-2.05-1.87-.37-3.93-.51-5.84-.51-.6,0-1.16-.39-1.4-.93-.22-.49-.19-1.01.1-1.49.22-.36.65-.7,1.17-.72,1.5-.07,2.96.05,4.46.21,1.08.11,2.1.31,3.16.55,2.62.58,5.12,1.5,7.52,2.7,1.31.66,2.56,1.38,3.77,2.22,3.93,2.72,7.12,6.09,9.59,10.19.58.97,1.1,1.92,1.57,2.95,1.8,3.87,2.86,8.1,3.02,12.36v2.94c-.12,2.47-.54,4.91-1.23,7.29-1.41,4.87-3.95,9.32-7.35,13.05l-.64.68-.68.68c-2.56,2.48-5.49,4.54-8.73,6.08-4.24,2.01-9,3.14-13.7,3.08-.04,0-.08,0-.08.02v.1s-.02,4.53-.02,4.53c0,.57-.4,1.06-.83,1.3-.51.29-1.17.33-1.67-.01l-9.68-6.53c-.52-.35-.84-.84-.81-1.51Z"/>
            <polygon class="cls-2" points="29.4 66.67 23.91 62.95 29.45 59.23 29.45 66.3 29.4 66.67"/>
          </g>
          <g>
            <path class="cls-1" d="M16.68,41.05c-.24-.82.06-1.61.61-2.19l.78-.82,5.52-5.42,1.92-1.94c1.19-1.2,1.66-3.47.33-4.69-.81-.74-1.92-.87-3-.72-1.16.16-2.12.86-2.66,1.9-.36.69-1.08,1.05-1.85.88-.7-.16-1.28-.81-1.24-1.59.02-.44.19-.83.42-1.19,1.59-2.49,4.51-3.33,7.36-2.98,2.32.29,4.38,1.57,4.95,3.92.47,1.96.03,3.99-1.17,5.61-.44.59-.93,1.11-1.46,1.63l-2.49,2.44-1.87,1.83-1.45,1.44,8.33.03c.85,0,1.42.9,1.3,1.7-.1.66-.62,1.29-1.34,1.29h-11.65c-.64,0-1.18-.54-1.35-1.12Z"/>
            <path class="cls-1" d="M48.38,36.23c.25.94-.39,1.85-1.34,1.9h-1.72s-.01,2.87-.01,2.87c0,.74-.55,1.33-1.26,1.47-.99.2-1.9-.52-1.9-1.54v-2.79s-8.58,0-8.58,0c-.71,0-1.29-.47-1.47-1.15-.15-.54-.06-1.14.27-1.62l1.59-2.31,6.89-9.96c.51-.74,1.48-1,2.25-.5s.88,1.51.36,2.25l-1.95,2.79-3.03,4.37-2.17,3.11h5.85s0-4.34,0-4.34c0-.51.21-.95.57-1.26.38-.32.88-.43,1.37-.33.71.15,1.22.76,1.22,1.5v4.43s1.71,0,1.71,0c.65,0,1.19.45,1.36,1.09Z"/>
          </g>
        </g>
        <path class="cls-2" d="M2.64,34.34c-.47.43-1.11.52-1.7.27C.43,34.39,0,33.87,0,33.25v-1.73c0-.27.07-.54.2-.77.33-.6,1.02-.9,1.69-.78.63.12,1.2.65,1.26,1.35v1.89c.02.44-.18.83-.51,1.13Z"/>
        <path class="cls-2" d="M1.22,41.81l-.49-1.9c-.14-.54.06-1.08.46-1.45s.97-.54,1.55-.36c.44.13.91.52,1.04,1.04l.46,1.85c.19.78-.41,1.52-1.14,1.73s-1.61-.15-1.88-.9Z"/>
        <path class="cls-2" d="M3.87,25.73c-.22.78-1.1,1.12-1.82.94s-1.31-.91-1.19-1.71l.47-1.79c.17-.66.71-1.14,1.4-1.19.5-.03.98.16,1.3.51s.51.89.37,1.39l-.53,1.84Z"/>
        <path class="cls-2" d="M4.44,49.42l-.79-1.42c-.3-.55-.23-1.22.17-1.7.31-.38.73-.59,1.22-.61.6-.03,1.14.31,1.43.84l.82,1.46c.41.74.03,1.71-.7,2.08s-1.71.13-2.14-.65Z"/>
        <path class="cls-2" d="M6.3,18.86c-.72.52-1.66.36-2.21-.32-.39-.47-.46-1.16-.14-1.71l.8-1.39c.26-.45.71-.72,1.2-.77.54-.06,1.02.16,1.38.57s.49,1.02.28,1.54l-.48.86-.49.86c-.07.12-.2.25-.33.34Z"/>
        <path class="cls-2" d="M9.41,12.5c-1.01-.46-1.13-1.8-.59-2.36l.57-.59.76-.77c.59-.48,1.41-.46,1.98.02.66.55.82,1.53.23,2.2l-1.34,1.35c-.4.4-1.09.39-1.61.15Z"/>
        <path class="cls-2" d="M14.93,5.31c.15-.27.39-.49.65-.64l1.4-.8c.78-.38,1.7-.03,2.07.72s.07,1.69-.72,2.09l-1.43.83c-.61.29-1.32.07-1.74-.4s-.57-1.2-.22-1.81Z"/>
        <path class="cls-2" d="M24.06,4.34c-.53.15-1.08,0-1.48-.35-.66-.58-.7-1.62-.1-2.26.23-.24.51-.35.81-.43l1.28-.38c.69-.2,1.4.04,1.81.64.3.43.36.96.15,1.48-.16.4-.55.76-1.03.9l-1.43.4Z"/>
        <path class="cls-2" d="M10.43,56.01c-.56.04-1.02-.16-1.37-.55-.22-.25-.48-.45-.66-.73-.43-.7-.24-1.58.41-2.09s1.59-.4,2.17.2l.6.64c.4.42.41,1.09.16,1.62-.22.48-.72.86-1.31.91Z"/>
      </g>
    </g>
  </g>
</svg>