<svg width="1267" height="662" viewBox="0 0 1267 662" fill="none" xmlns="http://www.w3.org/2000/svg">
<path d="M1195.89 243.649L1193.96 243.507C1193.57 243.403 1191.66 242.697 1191.66 242.697L1191.16 242.214C1189 241.181 1190.61 239.429 1190.61 239.429L1192.99 237.075C1193.73 236.108 1195 235.469 1195 235.469C1195.63 235.123 1196.18 234.806 1197.01 234.403C1198.23 233.74 1199.54 233.186 1200.99 232.509C1202.54 231.845 1201.47 232.362 1203.15 231.561C1203.38 231.452 1203.62 231.353 1203.79 231.206C1203.69 230.983 1203.62 230.718 1203.48 230.472C1200.44 224.565 1197.34 217.963 1193.99 212.127C1193.4 211.194 1192.89 210.176 1192.28 209.19L1191.44 209.716L1185.2 213.662L1181.69 216.158L1180.66 216.565L1178.64 216.579C1177.48 216.641 1176.12 216.087 1176.12 216.087C1174.83 215.916 1174.39 214.206 1174.39 214.206L1174.14 213.406L1174.39 212.596L1175.09 211.611L1176.3 209.816L1178.94 207.253C1181.69 205.486 1184.26 202.791 1186.96 200.939C1187.1 200.788 1187.23 200.717 1187.36 200.589C1182.66 192.556 1177.57 184.669 1170.81 178.403C1170.37 178.929 1169.96 179.407 1169.55 179.975C1166.95 183.897 1162.92 187.099 1160.36 191.083L1157.45 192.726C1155.89 193.536 1155.08 192.74 1155.08 192.74C1154.11 192.579 1153.45 191.386 1153.45 191.386L1152.98 190.571C1152.03 189.818 1152.42 188.331 1152.42 188.331L1152.67 186.436L1153.98 183.793C1155.56 182.149 1155.52 181.538 1156.75 179.667L1158.52 177.422C1159.88 175.689 1161.32 173.931 1162.64 172.236C1157.65 169.545 1150.16 166.523 1146.02 166.064C1143.32 165.789 1140.13 166.083 1137.63 167.665C1136.66 170.232 1135.85 172.951 1135.22 175.566C1134.39 179.094 1133.98 180.998 1133.68 183.637C1133.62 183.959 1133.33 185.465 1132.92 186.436C1132.53 189.212 1132.25 191.722 1131.61 194.592C1131.18 196.771 1130.57 199.163 1130.14 201.044C1129.59 203.099 1129.28 205.027 1128.77 207.073C1127.61 211.71 1126.74 216.291 1126.27 221.07C1126.03 223.054 1125.92 225.854 1125.78 227.753C1125.57 229.776 1124.99 232.243 1124.99 234.597C1125.25 238.936 1124.13 242.687 1124.4 246.87C1124.62 250.716 1125.53 255.543 1128.71 258.261C1130.27 259.588 1132.42 260.966 1134.19 261.904C1136.67 263.211 1139.91 263.656 1142.63 264.627C1144.94 265.414 1147.61 265.906 1150.46 265.83C1153.91 265.669 1158.01 263.562 1161.37 262.609C1169.93 260.113 1178.64 263.95 1186.59 265.248C1188.14 265.508 1189.73 265.878 1191.28 266.257C1193.72 265.409 1196.03 264.476 1197.27 263.268C1200.43 260.274 1205.69 254.657 1206.32 250.678C1206.93 246.87 1206.81 242.744 1206.11 238.808C1203.61 240.134 1201.35 241.503 1198.55 243.128C1197.87 243.545 1195.89 243.649 1195.89 243.649H1195.89Z" fill="#F3C300"/>
<path d="M1265.82 156.458C1265.66 155.245 1265.55 153.91 1264.71 152.91C1264.08 152.299 1261.39 150.66 1260.75 150.452C1255.79 148.941 1252.58 152.124 1252.58 152.124L1250.78 153.446C1250.49 153.635 1250.32 153.905 1250.01 154.075C1249.36 154.54 1248.79 154.772 1248.11 155.231C1247.21 155.771 1246.46 156.804 1245.52 157.514C1243.29 159.295 1240.19 161.469 1238.09 163.496C1235.03 166.409 1233.35 168.048 1230.07 169.825C1228.71 170.573 1227.74 171.629 1226.77 172.505C1225.8 173.206 1224.95 173.694 1223.83 174.272C1220.58 175.992 1217.48 177.711 1214.45 179.937C1212.37 181.538 1208.7 183.954 1206.32 186.18C1205.18 187.227 1204.16 188.33 1203.07 189.027C1202.03 189.789 1200.72 190.727 1199.68 191.528C1198.51 192.432 1197.42 192.948 1196.34 193.972C1195.33 194.853 1194.06 195.397 1193.03 196.33C1191.35 197.946 1189.34 199.229 1187.37 200.589C1187.24 200.716 1187.11 200.788 1186.97 200.939C1184.27 202.791 1181.69 205.486 1178.95 207.253L1176.31 209.815L1175.1 211.611L1174.4 212.596L1174.15 213.406L1174.4 214.206C1174.4 214.206 1174.84 215.916 1176.13 216.087C1176.13 216.087 1177.49 216.636 1178.65 216.579L1180.67 216.565L1181.7 216.158L1185.21 213.661L1191.45 209.716L1192.29 209.19L1200.45 204.198C1205.4 201.408 1208.44 198.334 1212.9 195.928L1213.78 195.326C1214.6 194.971 1216.25 194.27 1217.07 193.882C1221.67 191.523 1223.77 190.367 1227.6 187.639C1230.88 185.356 1234.64 182.76 1238.18 180.572C1240.2 179.331 1242.1 178.597 1243.76 177.147C1243.97 176.892 1244.27 176.655 1244.56 176.46L1256.98 168.906L1262.84 164.027C1263.44 163.62 1264.02 163.141 1264.54 162.791C1266.49 161.038 1266.17 159.011 1265.83 156.453L1265.82 156.458Z" fill="#6F7271"/>
<path d="M1206.33 124.161C1205.64 123.46 1204.62 122.508 1203.65 122.309C1201.46 121.707 1199.62 123.251 1198.01 124.232C1196.58 125.042 1194.67 125.965 1193.73 127.23C1193.11 128.13 1192.77 129.233 1192.04 130.152C1191.44 130.948 1190.95 131.753 1190.3 132.573C1189.74 133.435 1189.25 134.302 1188.62 135.187C1187.89 136.173 1187.68 136.968 1186.85 137.906C1185.77 139.043 1184.66 140.383 1184.04 141.809C1183.47 142.88 1182.64 143.888 1181.74 144.836C1179.18 147.829 1177.71 150.894 1175.24 154.157C1174.3 155.46 1172.88 156.938 1172.28 158.368C1171.88 159.23 1170.93 160.727 1170.42 161.504C1169.65 162.792 1168.88 163.834 1167.72 165.018C1166.68 166.117 1165.89 167.401 1165.09 168.732C1164.19 170.143 1163.69 170.844 1162.85 171.962C1162.83 172.047 1162.69 172.185 1162.66 172.232C1161.33 173.928 1159.89 175.685 1158.53 177.419L1156.77 179.664C1155.54 181.535 1155.57 182.146 1153.99 183.789L1152.68 186.432L1152.44 188.327C1152.44 188.327 1152.04 189.814 1153 190.567L1153.46 191.382C1153.46 191.382 1154.12 192.576 1155.09 192.737C1155.09 192.737 1155.91 193.532 1157.47 192.722L1160.37 191.079C1162.94 187.095 1166.96 183.893 1169.56 179.972C1169.98 179.403 1170.38 178.925 1170.83 178.399C1172.98 175.586 1175.53 172.947 1177.31 169.916C1178.29 168.272 1179.51 166.553 1180.67 165.051C1183.36 161.565 1186 158.273 1188.94 155.1C1191.78 151.983 1194.5 148.829 1196.58 145.442C1198.28 142.936 1201.1 141.113 1202.86 138.735C1204.07 137.077 1205.35 135.505 1205.81 133.638C1206.5 131.365 1207.46 129.224 1207.21 126.747C1207.18 125.875 1207.07 124.838 1206.34 124.151L1206.33 124.161Z" fill="#6F7271"/>
<path d="M1266.27 203.293C1265.7 201.882 1264.49 201.067 1262.76 201.19C1261.32 201.294 1259.82 201.853 1258.56 202.223C1257.24 202.639 1255.86 203.255 1254.54 203.956C1253.41 204.444 1252.5 205.216 1251.39 205.747C1248.97 206.988 1246.46 208.143 1244.36 209.687C1240.55 212.515 1236.41 214.173 1232.1 216.276C1228.51 218.062 1225.02 220.241 1221.67 222.476C1220.61 223.172 1219.44 223.959 1218.09 224.551C1211.65 227.303 1211 228.151 1207.46 229.609C1205.95 230.277 1205.04 230.618 1203.78 231.196C1203.62 231.343 1203.37 231.443 1203.14 231.551C1201.46 232.352 1202.55 231.836 1200.99 232.499C1199.54 233.176 1198.23 233.726 1197.01 234.393C1196.17 234.796 1195.63 235.113 1194.99 235.459C1194.99 235.459 1193.73 236.094 1192.98 237.065L1190.61 239.419C1190.61 239.419 1188.99 241.171 1191.15 242.204L1191.66 242.687C1191.66 242.687 1193.57 243.393 1193.95 243.497L1195.89 243.639C1195.89 243.639 1197.87 243.535 1198.55 243.118C1201.36 241.494 1203.61 240.125 1206.12 238.798C1207.92 237.865 1209.92 236.946 1212.36 236.023C1215.76 234.744 1219.48 233.527 1222.83 231.968C1228.49 229.25 1234.25 225.915 1240.1 223.902C1243.45 222.685 1247.38 221.249 1250.72 219.255C1253.55 217.569 1256.92 216.333 1260.01 215.201C1261.65 214.561 1262.27 214.254 1263.56 213.088C1264.63 212.089 1265.65 211.094 1266.41 209.806C1267.26 208.224 1266.92 205.017 1266.26 203.284L1266.27 203.293Z" fill="#6F7271"/>
<path d="M1225.21 278.501C1220.33 276.138 1213.97 274.579 1209.11 272.415C1203.54 270.084 1197.39 267.778 1191.29 266.262C1189.74 265.883 1188.15 265.514 1186.6 265.253C1178.64 263.955 1169.94 260.119 1161.38 262.615C1158.01 263.567 1153.92 265.675 1150.46 265.836C1147.62 265.912 1144.94 265.419 1142.63 264.633C1139.92 263.662 1136.68 263.221 1134.2 261.909C1132.43 260.971 1130.28 259.598 1128.72 258.267C1125.54 255.548 1124.63 250.726 1124.41 246.875C1124.14 242.693 1125.26 238.941 1125 234.603C1125 232.249 1125.57 229.781 1125.79 227.758C1125.92 225.859 1126.04 223.06 1126.27 221.075C1126.75 216.296 1127.62 211.716 1128.77 207.079C1129.29 205.028 1129.59 203.1 1130.15 201.049C1130.57 199.169 1131.19 196.777 1131.61 194.598C1132.25 191.727 1132.53 189.217 1132.93 186.441C1133.33 185.47 1133.63 183.964 1133.68 183.642C1133.99 180.999 1134.4 179.095 1135.22 175.571C1135.85 172.956 1136.66 170.242 1137.63 167.67C1138.1 166.529 1138.59 165.411 1139.09 164.293C1141.36 159.708 1142.85 154.166 1145.38 149.411C1145.38 149.411 1146.89 146.943 1147.15 146.171C1147.54 145.508 1148.02 144.537 1148.02 144.537C1148.02 144.537 1148.94 143.211 1149.98 141.619C1151.39 139.327 1151.19 140.16 1152.03 138.602C1152.42 138.28 1152.74 137.778 1152.93 137.285C1153.31 136.707 1153.67 136.21 1153.84 135.405C1154.11 133.832 1153.85 131.952 1153.07 130.626C1152.04 129.001 1150.54 126.718 1148.15 126.557C1146.15 126.476 1143.78 127.765 1142.2 128.807C1141.27 129.46 1140.5 130.218 1139.91 131.095C1137.49 133.562 1135.65 137.423 1134.75 140.231C1133.57 144.385 1131.89 148.416 1130.91 152.655C1129.9 157.032 1127.9 159.656 1126.64 163.843C1126.06 165.856 1124.92 168.566 1124.58 170.64C1124.26 172.36 1123.88 175.95 1123.91 177.522C1123.44 180.156 1122.27 186.181 1121.92 188.17C1121.08 193.461 1120.54 198.34 1118.94 203.555C1116.45 211.673 1113.39 220.753 1113.67 229.625C1114.02 237.928 1113.28 247.699 1115.77 255.505C1116.34 257.225 1117.01 258.736 1118.04 260.308C1118.41 260.971 1118.8 261.597 1119.25 262.236C1120.11 263.439 1120.54 264.003 1121.58 264.997C1122.35 265.727 1122.97 266.262 1123.62 266.977C1124.84 268.389 1126.92 269.383 1128.55 270.369C1130.46 271.548 1131.29 272.609 1133.43 273.362C1135.27 274.077 1136.89 274.655 1138.62 274.873C1140.58 275.195 1143.12 275.157 1145.1 274.902C1147.79 274.561 1150.78 273.855 1153.55 274.021C1155.72 274.106 1157.65 274.215 1159.94 274.106C1164.61 273.717 1169.12 271.42 1173.75 271.894C1178.99 272.372 1183.37 274.864 1188.66 276.749C1192.34 278.066 1195.17 278.714 1197.5 280.14C1199.79 281.566 1201.97 283.077 1204.01 284.45C1207.98 287.06 1212.08 289.661 1216.79 291.74C1219.42 292.943 1221.14 294.255 1222.98 295.184C1226.12 296.728 1230.43 297.774 1233.88 298.963C1235.95 299.631 1238.48 300.882 1240.26 299.631C1241.62 298.594 1242.26 296.571 1242.22 295.169C1244 285.511 1232.72 282.148 1225.2 278.511L1225.21 278.501Z" fill="#6F7271"/>
<path d="M1007.81 35.9264C1012.42 35.0217 1016.79 35.9264 1021.58 37.1484L1031.62 40.9377C1035.87 42.1455 1038.71 42.9886 1041.73 45.5748L1047.45 50.264C1051.27 53.2859 1055.15 56.3552 1058.6 60.045C1060.01 61.6601 1060.97 63.5074 1061.89 65.4731L1063.31 68.3008C1066.77 74.3163 1067.57 83.9457 1067.57 84.0404C1068.3 88.4549 1067.62 90.3022 1066.3 94.1151L1064.59 99.1264C1063.42 102.774 1062.28 106.198 1060.31 109.561C1057.67 114.028 1053.38 118.291 1050.45 121.09C1048.55 122.918 1045.87 124.169 1043.32 125.381L1037.98 128.185L1035.92 129.649L1031.58 132.353C1031.35 132.448 1031.18 132.486 1030.98 132.562L1036.65 132.893L1039.58 133.358C1041.93 133.793 1044.41 134.229 1047.03 133.917C1049.62 133.594 1052.02 132.604 1054.26 131.7L1060.49 129.687L1068.09 128.114C1074.07 126.295 1077.95 123.704 1080.57 119.593L1082.3 116.955C1085.36 112.322 1088.25 107.974 1089.38 102.504L1091.58 91.7705L1091.89 84.0357V76.8693C1091.92 73.1179 1092.12 69.5465 1091.16 65.6768L1090.66 63.7537C1089.43 58.174 1087.91 51.8081 1084.66 47.2752C1080.53 41.4776 1076.09 36.419 1071.49 32.0708C1067.32 30.1383 1063.05 28.5468 1058.81 27.2537C1021.37 22.2708 998.998 31.4882 987.313 48.0046C993.165 41.8376 1000.63 37.2289 1007.8 35.9216L1007.81 35.9264Z" fill="#F18A00"/>
<path d="M1104.21 74.5766L1104.74 77.7454L1105.21 80.3789C1105.21 80.3789 1104.87 87.6448 1104.83 87.8864C1104.32 91.0694 1102.67 94.366 1101.05 97.4732L1099.03 101.622C1097.76 104.535 1095.67 106.97 1093.57 109.362L1090.2 113.336L1086.05 117.4L1083.92 119.219L1081.01 122.122L1076.84 126.153L1074.36 127.64L1070.06 130.478C1066.89 133.32 1064.24 134.257 1060.24 135.688L1059.18 136.09C1050.39 139.198 1042.37 141.05 1033.98 141.694C1023.45 142.575 1011.67 141.627 997.024 138.719C995.438 138.411 993.989 137.886 992.521 137.308C1000 149.585 1010.99 158.888 1028.12 162.696C1078.47 165.637 1112.45 124.334 1113.71 85.2339C1112.42 73.3546 1108.04 63.4694 1101.79 55.2704C1102.96 58.3444 1103.8 61.4895 1104.03 64.4214L1104.22 74.5719L1104.21 74.5766Z" fill="#F18A00"/>
<path d="M1032.33 119.822C1038.66 117.169 1045.22 114.417 1049.57 108.691L1052.62 105.252C1054.81 103.026 1057.01 100.676 1058.02 98.0665C1058.76 96.0867 1058.35 93.2068 1058.02 90.8954L1057.79 88.9865C1057.23 81.498 1055.72 74.7911 1053.38 69.0077C1051.5 64.3422 1049.15 61.5002 1046.06 57.9147C1045.99 57.8815 1040.55 51.6671 1040.55 51.6671C1040.4 51.4682 1039.59 50.7861 1039.59 50.7861C1035.65 47.4847 1030.78 43.3497 1025.54 43.5534L1014.93 44.4581C1010.15 45.1638 1006.07 48.4463 1002.05 51.6624L998.411 54.4854C994.727 57.081 991.238 60.6477 989.444 63.5701L984.851 71.3191C981.338 76.4489 980.334 83.0658 979.676 88.9108C979.127 95.0541 980.666 100.904 984.037 105.048L986.039 107.601C987.905 110.055 990.031 112.92 992.54 114.55L998.439 116.98L1005.9 121.233C1014.35 125.771 1022.33 124.08 1031.62 120.134L1032.32 119.822H1032.33Z" fill="#F18A00"/>
<path d="M1014.36 1.19361L1001.99 4.99707L994.121 8.94737C990.006 10.9651 985.423 13.4945 981.886 17.5869L978.156 23.8297C978.156 23.8297 974.723 28.5946 974.415 28.9404L972.465 32.6255L969.865 35.2874C964.757 42.056 962.186 49.4687 959.885 58.6576L958.133 67.0745L957.967 74.8899C957.328 80.9337 957.328 85.5092 958.01 89.6869L958.64 94.0161L959.913 101.4L963.767 112.238C965.088 115.643 966.035 118.135 968.71 120.683L971.271 123.842C972.469 125.6 973.615 127.238 975.533 128.1L983.444 132.496C986.361 134.258 989.377 136.02 992.52 137.313C993.993 137.891 995.437 138.417 997.023 138.725C1011.67 141.633 1023.45 142.585 1033.98 141.699C1042.37 141.05 1050.39 139.203 1059.18 136.096L1060.23 135.693C1064.23 134.263 1066.89 133.325 1070.06 130.483L1074.36 127.646L1076.84 126.158L1081.01 122.128L1083.92 119.224L1086.05 117.405L1090.2 113.341L1093.57 109.367C1095.67 106.975 1097.76 104.541 1099.02 101.628L1101.05 97.4786C1102.67 94.3714 1104.32 91.0747 1104.82 87.8917C1104.88 87.6502 1105.24 80.4032 1105.24 80.4032L1104.74 77.746L1104.21 74.5772L1104.03 64.4268C1103.8 61.4949 1102.96 58.3498 1101.78 55.2757C1100.45 51.728 1096.61 43.8369 1096.61 43.8369C1095.11 40.7771 1092.94 37.9209 1090.89 35.1974L1086.05 28.7794C1082.03 23.2944 1077.75 17.5821 1072.98 12.8882C1070.8 10.7567 1067.33 9.80942 1064.23 8.96158L1048.89 4.04028C1042.65 1.9183 1034.57 -0.426301 1027.24 0.0663025L1014.37 1.19361H1014.36ZM1005.91 121.232L998.448 116.979L992.549 114.549C990.044 112.92 987.914 110.054 986.048 107.601L984.045 105.048C980.67 100.908 979.136 95.0534 979.685 88.9101C980.343 83.0652 981.347 76.4482 984.86 71.3185L989.452 63.5695C991.247 60.6517 994.736 57.0851 998.42 54.4847L1002.06 51.6617C1006.08 48.4409 1010.16 45.1632 1014.94 44.4574L1025.55 43.5527C1030.79 43.3491 1035.66 47.4841 1039.6 50.7855C1039.6 50.7855 1040.41 51.4675 1040.56 51.6665C1040.56 51.6665 1046.01 57.8808 1046.07 57.914C1049.16 61.4996 1051.52 64.3415 1053.39 69.007C1055.73 74.7904 1057.24 81.4974 1057.8 88.9859L1058.03 90.8947C1058.36 93.2062 1058.77 96.0907 1058.03 98.0659C1057.01 100.68 1054.82 103.03 1052.63 105.251L1049.58 108.69C1045.23 114.417 1038.67 117.168 1032.34 119.821L1031.64 120.134C1022.35 124.079 1014.37 125.77 1005.92 121.232H1005.91ZM1091.89 76.8745V84.0409L1091.59 91.7757L1089.38 102.509C1088.26 107.98 1085.37 112.328 1082.31 116.96L1080.58 119.598C1077.96 123.71 1074.08 126.296 1068.1 128.119L1060.5 129.692L1054.27 131.705C1052.03 132.605 1049.64 133.6 1047.03 133.922C1044.42 134.234 1041.94 133.799 1039.59 133.363L1036.66 132.899L1030.99 132.567C1031.18 132.491 1031.36 132.453 1031.59 132.359L1035.93 129.654L1037.99 128.19L1043.33 125.386C1045.88 124.179 1048.55 122.923 1050.46 121.095C1053.39 118.291 1057.68 114.028 1060.32 109.566C1062.28 106.203 1063.43 102.779 1064.59 99.1316L1066.31 94.1203C1067.62 90.3074 1068.31 88.4601 1067.58 84.0456C1067.58 83.9557 1066.78 74.3215 1063.32 68.306L1061.9 65.4783C1060.98 63.5126 1060.02 61.6654 1058.61 60.0502C1055.15 56.3604 1051.28 53.2911 1047.46 50.2692L1041.74 45.58C1038.72 42.9938 1035.88 42.1507 1031.63 40.9429L1021.59 37.1536C1016.79 35.9316 1012.43 35.0269 1007.82 35.9316C1000.64 37.2389 993.174 41.8476 987.327 48.0146C984.169 51.3112 981.508 55.0294 979.671 58.9892C976.205 66.3877 972.583 75.1125 973.752 84.1783L973.951 86.6839C974.221 90.1748 974.51 93.443 976.096 96.5928C977.209 98.7858 977.725 101.4 978.156 103.693C978.852 108.017 980.674 112.02 982.833 115.729L979.226 112.512L973.269 106.904C970.334 103.887 969.141 100.87 967.526 96.5123L964.118 90.5584L963.204 89.2464C961.959 87.3328 961.992 84.453 962.015 81.8431L962.025 73.7057C962.797 68.4292 965.041 63.5979 967.143 58.9324L968.985 54.7737C970.433 51.3586 972.162 49.104 974.15 46.5747L980.584 38.9109L982.762 35.4058L985.523 31.2187C987.237 29.2578 989.751 27.4484 992.213 25.6485L995.053 23.5644L1003.92 17.4258C1009.53 14.3565 1015.18 11.5998 1022.11 11.2209L1032.16 11.2967C1032.69 11.382 1044.56 13.826 1049.3 16.1943L1053.9 19.0173L1056.79 20.9214C1062 24.0428 1066.89 27.7184 1071.5 32.0713C1076.1 36.4195 1080.54 41.4781 1084.66 47.2757C1087.92 51.8086 1089.44 58.1745 1090.67 63.7542L1091.17 65.6772C1092.13 69.5518 1091.93 73.1231 1091.89 76.8697V76.8745Z" fill="#6F7271"/>
<path d="M880.614 320.268C871.457 320.268 865.525 327.453 865.288 338.475V421.962C865.288 434.248 862.978 441.907 857.969 445.261L852.079 449.472C847.093 452.892 844.693 457.339 844.693 463.061C844.693 472.643 852.079 479.478 862.561 479.478C876.258 479.478 890.159 466.76 894.183 450.708C895.689 445.043 895.689 443.068 895.689 429.337V338.47C895.689 327.671 889.738 320.263 880.624 320.263L880.614 320.268Z" fill="#55585F"/>
<path d="M939.559 320.267C930.649 320.267 924.669 327.452 924.461 338.474V422.643C924.461 433.509 930.653 440.846 939.777 440.846C948.9 440.846 954.61 433.713 954.866 422.643V338.474C954.866 327.675 948.683 320.267 939.564 320.267H939.559Z" fill="#55585F"/>
<path d="M648.28 320.267C616.269 320.267 591.19 347.322 591.19 382.041V422.146C591.19 433.315 597.549 440.874 606.89 440.874C616.231 440.874 622.064 433.542 622.311 422.146V381.123C622.552 365.132 633.546 352.987 648.28 352.987C663.014 352.987 673.491 365.075 673.766 380.346V422.141C673.766 433.31 679.992 440.87 689.347 440.87C698.703 440.87 704.522 433.537 704.777 422.141V381.279C704.768 347.308 679.533 320.267 648.275 320.267H648.28Z" fill="#55585F"/>
<path d="M1037.15 320.267C1005.1 320.267 979.969 347.322 979.969 382.041V422.146C979.969 433.315 986.351 440.874 995.735 440.874C1005.12 440.874 1010.89 433.542 1011.18 422.146V381.123C1011.34 365.132 1022.36 352.987 1037.15 352.987C1051.07 352.987 1062.32 365.075 1062.67 380.346V422.141C1062.67 433.31 1068.81 440.87 1078.16 440.87C1087.51 440.87 1093.32 433.537 1093.6 422.141V381.279C1093.57 347.308 1068.43 320.267 1037.15 320.267Z" fill="#55585F"/>
<path d="M306.774 320.268C297.66 320.268 291.68 327.454 291.415 338.452V386.931C291.415 398.791 283.49 408.155 272.993 408.155C265.849 408.155 259.031 403.476 256.271 396.854C254.642 392.615 254.22 389.716 254.22 379.897V338.447C254.22 327.657 248.066 320.264 239.193 320.264H238.947C229.998 320.264 224.061 327.449 223.872 338.447V386.926C223.872 398.786 215.861 408.151 205.331 408.151C198.187 408.151 191.421 403.471 188.604 396.849C187.013 392.61 186.578 389.711 186.578 379.892V338.443C186.578 327.653 180.437 320.259 171.228 320.259C162.019 320.259 156.461 327.444 156.172 338.443V382.767C156.172 395.85 158.473 407.123 162.796 414.801C171.986 430.82 188.609 440.866 205.535 440.866C218.034 440.866 230.192 435.414 239.193 426.088C248.487 435.41 260.778 440.866 273.164 440.866C287.755 440.866 301.954 433.51 311.069 421.138C318.691 410.817 321.83 399.772 321.83 383.772V338.447C321.83 327.657 315.637 320.264 306.774 320.264V320.268Z" fill="#55585F"/>
<path d="M465.809 397.682C472.508 423.217 494.141 441.547 519.939 441.547C551.893 441.547 577.114 414.582 577.114 379.896C577.114 347.38 551.277 320.263 520.2 320.263C494.23 320.263 472.167 339.403 465.596 364.9H446.657C440.114 339.588 417.829 320.609 391.784 320.609C360.73 320.609 335.149 347.91 335.149 380.934C335.149 413.957 360.19 441.969 391.528 441.969C417.909 441.969 439.584 423.534 446.397 397.682H465.809ZM520.2 353.49C534.37 353.49 546.027 365.848 546.027 380.346C546.027 396.564 534.815 408.894 519.939 408.894C505.063 408.894 494.425 396.564 494.425 381.066C494.425 365.568 506.029 353.485 520.2 353.485V353.49ZM391.528 409.235C377.414 409.235 365.98 396.905 365.98 381.44C365.98 365.976 377.599 353.798 391.784 353.798C405.968 353.798 417.597 366.137 417.597 380.716C417.597 396.905 406.385 409.235 391.533 409.235H391.528Z" fill="#55585F"/>
<path d="M794.615 448.401V431.558C818.364 424.799 835.47 403.248 835.47 377.381C835.47 345.424 810.348 320.263 778.182 320.263C747.989 320.263 722.863 346.101 722.863 377.22C722.863 403.139 740.599 425.225 764.305 431.771V448.169C740.821 454.758 723.204 477.058 723.204 503.137C723.204 534.209 748.491 559.772 779.124 559.772C809.756 559.772 835.797 534.659 835.797 503.331C835.797 476.906 818.71 455.269 794.62 448.397L794.615 448.401ZM753.713 377.225C753.713 363.029 765.147 351.373 778.612 351.373C793.697 351.373 805.131 362.556 805.131 377.381C805.131 392.207 793.697 402.997 779.28 402.997C764.863 402.997 753.718 391.316 753.718 377.225H753.713ZM779.697 528.928C765.384 528.928 753.917 517.295 753.917 503.147C753.917 488.998 765.379 477.294 778.896 477.294C793.986 477.294 805.443 488.449 805.443 503.341C805.443 518.233 793.99 528.928 779.697 528.928Z" fill="#55585F"/>
<path d="M137.508 277.832C134.293 275.279 132.148 273.484 132.148 273.484C126.599 269.089 121.794 265.858 116.288 261.472C115.388 260.681 113.584 258.753 112.694 258.029C111.032 256.693 109.403 255.376 107.789 254.097C106.17 252.785 104.451 251.8 102.851 250.535C101.667 249.564 100.536 248.262 99.4324 247.291C96.8758 245.216 94.357 243.199 91.966 241.233C89.2531 238.974 86.668 237.264 84.1208 235.189C81.5168 232.93 79.0027 230.339 76.6212 228.259L74.6422 226.587L73.842 228.785C72.701 232.03 72.701 235.686 72.7389 239.253L72.1565 247.551C68.9749 267.748 62.0908 292.554 55.3535 316.492C70.4521 312.855 78.3825 308.866 94.6789 304.134C104.044 301.368 111.274 297.068 120.184 293.435C129.791 289.513 136.253 288.793 145.339 284.146C143.9 282.967 142.541 282.043 141.149 280.94C139.932 279.954 138.55 278.68 137.508 277.828V277.832Z" fill="#00A0DF"/>
<path d="M63.3461 157.789C69.6857 151.632 65.9738 143.523 64.0042 137.597C52.1394 122.994 42.0926 126.585 32.9312 133.514C29.2808 139.127 23.642 146.758 28.8358 154.45C39.6969 163.393 51.0646 163.023 63.3461 157.794V157.789Z" fill="#CF3339"/>
<path d="M62.697 214.391C64.0701 219.123 64.9318 223.925 65.1259 224.304C65.178 227.582 65.2774 230.879 65.0454 234.119C64.9696 235.511 65.0454 236.477 64.8939 237.889C64.7803 239.007 64.4346 240.579 64.3068 241.702C63.5682 246.879 62.484 252.013 61.1583 257.181C60.3771 260.302 59.4775 263.48 58.6064 266.626C57.4606 270.609 56.8214 273.446 56.0213 276.151C55.2732 278.462 54.099 281.195 53.3036 283.592C51.8975 288.191 50.425 292.899 48.9904 297.745C47.2339 303.628 46.4811 309.97 45.1223 316.165C44.0191 321.025 41.595 326.425 40.6434 330.906C40.0421 334.089 39.0242 336.94 38.7069 339.531C38.4797 341.066 38.9105 342.33 38.7069 343.723C38.991 343.822 40.4635 348.071 41.595 348.436C43.38 349.085 47.2055 345.769 47.4801 345.84C47.5985 345.215 48.3276 344.357 48.8721 342.477C49.2508 341.065 49.3739 338.764 49.8805 336.973C50.8132 333.369 52.5366 330.726 53.512 327.164L55.349 316.483C62.0863 292.544 68.9703 267.734 72.152 247.542L72.7343 239.243C72.6917 235.677 72.6917 232.02 73.8375 228.776L74.6376 226.578L76.6167 228.25C78.9982 230.329 81.5122 232.92 84.1163 235.18C86.6635 237.254 89.2485 238.964 91.9615 241.223C94.3524 243.189 96.8712 245.202 99.4279 247.281C100.531 248.252 101.663 249.555 102.846 250.526C104.451 251.791 106.165 252.771 107.784 254.088C109.394 255.367 111.028 256.684 112.689 258.019C113.58 258.744 115.383 260.672 116.283 261.463C121.789 265.844 126.595 269.079 132.144 273.475C132.144 273.475 134.289 275.27 137.503 277.823C138.54 278.675 139.927 279.945 141.144 280.935C142.531 282.038 143.89 282.962 145.334 284.141C145.699 284.43 146.092 284.677 146.509 285.022C147.271 285.6 147.957 286.519 148.672 287.159C149.572 287.808 150.533 288.239 151.385 288.949C153.814 290.867 156.238 293.454 158.293 295.107C159.656 296.234 160.802 296.494 161.867 297.342C163.851 298.934 165.172 299.933 165.281 300.094C165.726 300.175 167.412 300.189 168.562 300.094C170.072 299.843 171.005 299.1 171.005 299.1C172.085 298.484 173.283 295.808 173.638 293.989C173.822 293.027 172.407 291.578 172.587 291.388C171.37 290.233 170.437 288.982 169.036 287.713C167.525 286.325 165.068 284.786 163.411 283.317C159.59 280.096 155.722 276.643 151.328 273.167C149.752 271.926 147.342 270.6 145.675 269.335C141.618 266.247 138.053 263.154 133.905 260.084C129.687 256.954 125.544 253.633 121.581 250.687C115.63 246.457 110.123 242.857 105.375 239.466C103.779 238.348 102.543 237.254 101.052 236.274C98.5899 234.64 95.7728 233.157 93.3913 231.518C92.7095 231.125 92.3923 230.67 91.8052 230.211C91.2986 229.908 90.5269 229.562 90.0629 229.169C87.866 227.606 85.7308 225.92 83.4866 223.925C82.6012 223.139 81.6922 222.509 80.7452 221.548C79.5237 220.311 78.2501 218.687 76.9765 217.214L74.1452 211.842L71.385 206.646C72.8574 206.083 74.292 205.453 75.8544 204.918C78.3211 203.999 80.3097 203.103 83.4818 201.559C86.4883 200.115 90.1102 199.058 93.0362 197.486C95.9858 195.904 98.3011 193.834 101.222 191.944C104.963 189.571 108.817 186.985 112.633 184.134C115.298 182.106 118.295 180.444 121.931 177.251C124.838 174.67 128.219 170.814 131.121 167.826C134.435 164.605 136.566 161.663 139.587 158.059C140.486 157.021 142.143 155.776 143.057 154.705C149.032 147.591 154.676 140.012 159.055 132.495C161.953 127.465 164.348 122.506 165.963 117.713C167.781 112.294 168.089 107.415 167.634 102.598C167.416 100.832 166.214 98.4585 165.684 96.8528C161.754 96.8859 159.136 97.0707 156.522 98.1743C149.16 101.395 145.642 109.575 142.953 117.362C142.153 119.825 140.704 122.525 139.785 125.092C138.46 128.919 137.432 132.5 135.112 135.925C133.739 137.943 131.031 140.055 129.303 142.03C125.307 146.724 121.581 151.148 116.326 155.558C114.271 157.301 112.637 159.527 110.478 161.194C107.851 163.326 104.712 164.879 102.06 166.978C97.9318 170.094 93.9689 173.178 90.3612 176.039C84.9022 180.363 79.2586 183.376 74.7986 186.042C71.6927 187.894 68.8757 189.519 65.8408 191.11C65.6751 190.087 65.41 188.719 65.4762 188.818C65.2253 187.331 63.7528 183.205 62.2046 179.615C61.5513 178.132 61.0778 176.555 60.4765 175.314C59.6101 173.514 58.6442 172.088 58.3365 171.027C57.2665 168.446 55.1975 168.361 55.1975 168.361C55.1975 168.361 53.8339 168.555 52.7355 169.228C52.3046 169.526 52.1058 170.056 51.746 170.374C51.6844 170.9 52.0206 172.363 52.3046 173.718C52.5698 175.063 52.7355 176.276 52.9864 177.351C53.3699 178.938 53.4125 181.311 54.1038 183.347L55.1975 189.429C55.1975 189.429 56.9493 194.895 57.1718 195.421C55.1501 196.335 53.0385 197.254 50.6759 198.225C48.8389 198.987 45.4395 200.029 43.4273 200.868C40.2883 202.218 35.852 204.378 30.1942 206.504C27.4765 207.513 23.9682 208.323 21.1417 209.432C17.6049 210.871 14.1108 211.833 11.0759 213.349C9.37624 214.173 7.79015 215.438 6.39345 216.238C4.23449 217.526 1.99503 218.644 0.915547 219.786C-0.803104 221.718 -0.0739796 223.67 2.86619 225.11C4.80737 226.047 9.79761 224.484 9.79761 224.484C13.4953 223.475 17.1741 222.533 20.7629 221.552C24.4511 220.586 28.2814 219.947 31.8797 219.028C35.0376 218.213 38.0252 217.086 41.0884 216.224C48.1193 214.305 54.9039 212.326 61.6081 210.114L62.7065 214.367L62.697 214.391Z" fill="#6F7271"/>
<path d="M635.719 563.42L632.835 563.363C628.323 563.519 624.109 564.467 621.018 565.315C618.598 565.973 616.118 566.11 613.665 566.319C611.927 566.432 610.09 566.527 608.329 566.859L604.579 567.598C602.605 568.071 600.579 568.531 598.301 568.701L591.787 569.118C584.391 569.544 576.778 569.985 569.491 572.069C565.102 573.334 560.766 575.138 556.637 576.881C556.637 576.881 555.813 577.213 555.193 577.473V578.032C555.733 578.354 556.296 578.544 556.822 578.71C560.728 580.05 565.164 581.945 569.264 582.584C577.507 583.896 584.42 587.027 592.151 589.362C596.853 590.821 595.972 591.337 600.654 592.436C606.113 593.677 604.92 593.857 610.346 595.089C613.722 595.804 613.362 597.116 616.851 597.618C618.864 597.992 620.701 598.31 622.718 598.831C623.735 598.996 624.843 599.622 625.568 599.768C628.461 600.493 629.242 597.817 629.242 597.817C629.133 597.324 629.914 596.585 630.17 596.135C630.766 595.093 631.59 592.881 631.86 591.209C632.333 589.722 633.706 587.648 633.986 586.099C635.837 576.806 640.127 571.752 641.897 566.395C641.997 566.162 642.508 563.321 642.844 562.719C642.593 562.771 640.818 563.268 640.818 563.268C639.161 563.619 637.437 563.557 635.733 563.42H635.719Z" fill="#CF3339"/>
<path d="M543.034 589.101C542.405 587.357 541.538 585.008 541.018 583.658C537.282 584.909 533.674 586.197 530.076 588.684L528.622 589.659C524.982 592.241 521.535 594.77 517.562 597.105L514.461 598.758C514.352 598.853 511.247 602.083 511.247 602.083L506.072 607.895C504.561 609.733 504.808 608.506 503.359 610.377L495.485 616.876L488.596 621.84C488.596 621.84 486.631 624.066 484.401 626.103C482.749 627.642 480.628 629.12 480.585 629.12C480.06 629.702 479.87 630.119 479.87 630.527C479.87 631.029 480.126 631.374 480.287 631.545L484.004 634.046C485.907 635.05 488.814 636.021 490.287 637.963L502.426 642.927L510.177 647.507C510.177 647.507 514.627 650.449 514.362 650.311L520.711 653.295L522.297 654.342C522.297 654.342 525.843 656.08 526.388 656.327C526.871 656.71 527.264 656.848 527.586 656.762C528.717 656.27 529.645 652.803 529.882 650.728C529.853 647.299 530.99 644.447 532.022 641.686C533.054 639.19 534.1 636.589 534.223 633.487L536.094 627.429C537.755 622.853 539.943 616.615 539.943 612.475L540.899 606.465C540.899 606.465 542.892 595.808 543.584 592.44C543.541 591.995 543.437 591.592 543.352 591.109C543.276 590.379 543.177 589.773 543.044 589.096L543.034 589.101Z" fill="#A8AD00"/>
<path d="M578.213 488.884C577.72 497.14 574.34 503.639 571.04 509.967C568.886 514.007 566.66 518.299 565.321 523.054L563.308 529.292L561.031 537.008L560.259 540.238L559.426 543.876L558.257 548.546L557.499 551.587L556.628 555.149L555.241 560.193C555.113 560.89 554.9 561.614 554.658 562.273C554.976 562.363 555.913 562.571 557.045 563.054L557.717 562.945C559.431 562.69 561.097 562.661 562.726 562.614C563.896 562.098 565.051 561.69 566.556 561.226C572.025 559.62 571.532 557.981 576.22 554.467C578.743 552.587 584.316 550.289 586.782 548.508C589.983 546.187 595.409 543.066 598.624 541.176L607.723 535.18C608.415 534.9 609.807 534.313 611.18 533.654C611.18 533.654 614.096 532.38 611.568 528.25C608.912 524.769 605.224 520.321 603.86 518.422C600.006 513.211 601.568 514.358 598.657 511.189C596.919 509.247 595.499 505.093 593.515 503.326C591.763 501.754 586.626 490.983 584.799 489.486C581.29 486.63 579.723 481.235 576.149 478.862L576.097 478.923C577.716 481.045 578.232 483.954 578.232 486.753C578.232 487.487 578.232 488.202 578.208 488.889L578.213 488.884Z" fill="#F3C300"/>
<path d="M663.453 556.196C661.791 548.949 646.323 550.768 644.543 550.981H644.529C642.966 551.204 641.57 551.46 640.182 551.91C636.428 552.999 634.122 552.909 634.122 552.909C631.39 553.179 628.53 553.463 625.789 553.88L619.615 554.695C616.041 555.135 612.66 555.443 609.086 556.499C605.222 557.655 601.084 558.787 596.837 559.152C594.361 559.327 592.235 559.266 590.124 559.204C586.473 559.105 583.017 559.005 579.026 560.303C576.829 560.985 574.552 561.298 572.217 561.7L569.126 562.164C567.17 562.548 562.895 562.624 562.725 562.624C561.096 562.676 559.425 562.7 557.715 562.955L557.043 563.064C555.912 562.581 554.974 562.373 554.657 562.283C554.898 561.624 555.111 560.904 555.239 560.203L556.626 555.159L557.498 551.597L558.255 548.556L559.425 543.886L560.258 540.248L561.03 537.018L563.307 529.302L565.319 523.064C566.659 518.309 568.884 514.017 571.039 509.977C574.339 503.649 577.719 497.15 578.211 488.894C578.235 488.208 578.235 487.492 578.235 486.758C578.235 483.959 577.719 481.051 576.043 479.004C575.224 477.901 574.125 477.015 572.459 476.622L570.788 475.926L569.249 476.091C567.222 476.324 564.718 476.546 563.307 478.597C562.45 479.938 562.076 481.425 561.768 482.888L560.547 487.005L559.581 490.164L558.8 493.593C557.985 498.017 556.073 501.925 556.073 501.925C555.547 503.18 554.875 504.445 554.325 505.97C553.899 507.244 553.653 508.532 553.445 509.702C553.094 511.227 552.815 512.672 552.124 514.207C550.817 517.011 550.519 519.639 550.173 522.145C549.88 524.116 549.676 526.005 549.013 528.023L546.958 535.048L545.656 539.779C544.193 544.634 542.39 551 541.646 556.514C539.208 554.965 537.314 553.53 535.96 552.028C535.96 552.028 526.164 542.195 523.906 539.173C521.685 536.284 519.043 534.01 516.425 531.779C514.929 530.42 513.376 529.113 511.927 527.616C509.446 525.162 506.317 522.074 502.951 517.773C502.951 517.773 498.14 511.606 496.568 509.318C495.257 507.433 493.903 505.61 492.175 503.511C490.925 501.887 490.191 501.536 489.192 500.944L487.577 499.897L485.631 499.481C485.631 499.481 483.529 500.338 482.994 501.2C482.398 502.109 482.27 503.118 482.27 503.98C482.27 504.705 482.308 505.302 482.45 505.671C482.919 507.869 484.154 508.977 485.224 509.986L486.455 511.152C488.127 513.07 489.187 515.623 490.338 518.28C491.351 520.615 492.43 523.045 493.907 525.049C493.907 525.049 500.195 534.721 502.136 536.217L504.792 539.083C505.782 540.324 506.629 541.92 507.609 543.545C508.949 545.994 510.327 548.419 512.282 550.214C513.319 551.18 514.763 553.113 515.961 554.638C515.961 554.638 523.016 563.543 524.876 566.721C525.823 568.303 526.69 569.497 527.495 570.567C524.46 571.576 521.264 572.746 518.111 574.266C518.111 574.266 505.971 580.717 502.747 582.058C500.479 583.038 498.112 583.796 495.754 584.53C493.131 585.392 490.413 586.221 487.97 587.382C485.229 588.571 482.999 590.148 480.793 591.631L476.783 594.297C474.491 595.609 465.571 599.801 463.635 600.843L454.833 606.02C448.295 609.611 443.565 612.211 442.651 619.008C442.528 619.889 442.452 620.689 442.452 621.476C442.452 625.814 444.474 628.491 448.953 630.669C455.392 633.696 457.911 632.654 464.629 629.817L467.328 628.206C469.278 626.435 471.29 625.118 473.435 623.792L476.001 622.262C476.001 622.262 483.529 617.014 485.423 615.958L491.019 613.154C493.264 612.078 495.541 610.97 497.724 609.762C500.313 608.209 501.705 607.062 503.41 605.622L504.977 604.348C507.349 602.444 509.967 601.071 512.761 599.678L514.446 598.788L517.547 597.134C521.52 594.799 524.966 592.27 528.607 589.689L530.061 588.713C533.659 586.226 537.267 584.938 541.002 583.687C541.523 585.033 542.385 587.387 543.019 589.13C543.152 589.807 543.251 590.409 543.327 591.143C543.412 591.626 543.516 592.028 543.559 592.474C543.791 593.776 544.151 594.927 544.506 596.13L545.211 598.934C545.884 601.577 546.925 603.766 547.929 605.85C549.108 608.284 550.254 610.582 550.704 613.532C551.916 621.102 555.788 628.794 559.41 636.258C562.758 643.093 564.429 647.119 564.429 647.119C566.342 651.619 569.722 659.946 573.605 661.604C575.527 662.343 576.531 661.912 577.037 661.414C577.601 660.837 577.861 660.074 577.861 659.112C577.861 658.151 577.605 657.114 577.222 656.228L575.977 653.073C575.271 651.472 574.537 650.028 574.064 648.332L571.91 641.696C570.399 637.016 568.87 632.569 567.904 627.813C567.615 626.482 567.151 625.085 566.64 623.697C566.044 622.011 565.442 620.282 565.3 618.657C564.836 615.82 564.046 613.187 563.264 610.653L560.49 600.261C559.808 597.291 559.093 594.259 558.146 591.147L557.697 589.812C556.466 585.966 555.22 582.011 555.163 578.212V577.516C555.788 577.26 556.608 576.924 556.608 576.924C560.736 575.18 565.078 573.376 569.462 572.111C576.748 570.022 584.362 569.582 591.757 569.16L598.272 568.743C600.549 568.568 602.576 568.114 604.55 567.64L608.3 566.901C610.061 566.569 611.898 566.475 613.635 566.361C616.093 566.153 618.574 566.015 620.988 565.357C624.08 564.509 628.294 563.562 632.806 563.405L635.689 563.462C637.394 563.6 639.117 563.661 640.727 563.311C640.727 563.311 644.647 562.108 646.186 562.108C648.179 562.136 649.869 562.108 651.787 561.861L653.467 561.766C656.474 561.653 661.194 561.373 662.885 559.133C663.491 558.356 663.699 557.314 663.434 556.229L663.453 556.196Z" fill="#6F7271"/>
<path d="M1142.38 555.022C1146.54 555.515 1149.19 556.746 1153.43 557.457C1155.56 557.774 1157.68 558.821 1159.86 558.821C1161.5 558.821 1164.25 559.171 1165.65 559.853H1165.78C1165.91 560.005 1166.04 560.062 1166.14 560.147C1167.55 560.384 1168.9 560.516 1170.36 560.824C1174.01 561.587 1177.94 563.216 1181.6 564.301C1184.26 565.059 1186.18 565.533 1188.76 566.39C1193.48 567.882 1196.32 567.64 1200.8 568.213C1202.17 568.412 1203.87 569.042 1205.11 569.075C1205.11 569.075 1208.09 569.611 1206.38 567.143C1203.51 563.96 1201.51 562.871 1198.95 559.46C1197.38 557.414 1195.22 555.098 1193.76 552.947C1190.84 548.585 1189.2 546.24 1186.62 541.58C1185.02 538.78 1186.18 538.231 1184.7 535.351C1182.92 531.604 1180.06 525.229 1178.67 521.284C1177.5 517.651 1176.61 513.179 1175.7 510.404C1174.32 506.089 1174.1 499.543 1173.18 495.176C1172.52 492.03 1171.53 480.336 1170.8 473.747C1170.4 470.47 1170.65 467.391 1170.61 464.255C1170.54 464.047 1170.4 463.952 1170.29 463.758C1169.8 463.227 1169.04 461.679 1166.15 463.767C1165.06 464.615 1161.31 468.438 1160.89 469.082C1160.63 469.465 1158.16 473.79 1157.94 474.259C1155.15 477.295 1152.73 481.326 1151.09 484.064C1143.63 496.606 1137.56 506.396 1133.86 512.113C1127.64 521.497 1121.95 529.321 1116.27 539.022C1114.17 542.598 1112.24 545.937 1115.12 548.467C1117.36 550.546 1122.71 551.711 1126.26 552.985C1128.7 553.971 1131.16 554.757 1133.57 555.51C1133.9 555.24 1134.26 555.027 1134.61 554.894C1136.83 554.364 1140.26 554.757 1142.38 555.027V555.022Z" fill="#CF3339"/>
<path d="M1200.8 408.661C1206.07 399.439 1199.08 392.386 1194.4 385.087C1180.92 378.541 1165.78 378.541 1159.13 392.349C1157.68 400.581 1153.71 408.936 1161.61 415.477C1176.06 420.398 1189.12 419.877 1200.8 408.666V408.661Z" fill="#00A0DF"/>
<path d="M1230.95 575.266C1230.26 573.381 1229.3 572.31 1227.55 571.069C1226.68 570.477 1224.49 568.639 1224.27 568.417C1221.46 566.082 1218.76 563.406 1216.18 560.602C1214.47 558.735 1212.63 557.357 1211.04 555.349C1209.44 553.321 1208.2 550.678 1206.71 548.509C1204.29 544.881 1202.95 543.209 1200.87 539.301C1199.97 537.534 1197.99 533.494 1197.14 531.68C1195.54 528.251 1194.05 524.272 1192.63 520.81C1191.9 518.981 1191.87 516.831 1191.26 515.007C1190.15 512.037 1190.02 510.512 1188.96 506.714C1188.2 504.099 1187.12 497.544 1186.61 494.896C1185.68 490.974 1185.42 481.444 1185.01 478.275C1184.33 473.212 1183.97 468.257 1184.05 463.554L1183.78 454.289L1182.64 447.445L1181.66 435.428C1179.08 429.242 1175.94 430.801 1173.74 435.656C1173.21 436.826 1172.76 438.18 1172.3 439.729C1172.05 440.743 1171.85 441.804 1171.65 442.974C1171.18 445.422 1170.9 447.625 1170.65 449.614C1170.21 454.213 1170.61 464.051 1170.61 464.26C1170.65 467.395 1170.4 470.479 1170.8 473.752C1171.53 480.345 1172.52 492.04 1173.18 495.18C1174.1 499.542 1174.32 506.088 1175.7 510.408C1176.61 513.184 1177.49 517.655 1178.67 521.288C1180.06 525.234 1182.92 531.609 1184.7 535.356C1186.18 538.231 1185.02 538.785 1186.62 541.584C1189.2 546.245 1190.84 548.594 1193.76 552.952C1195.22 555.102 1197.38 557.419 1198.95 559.465C1201.51 562.875 1203.51 563.964 1206.38 567.147C1208.09 569.615 1205.11 569.08 1205.11 569.08C1203.87 569.047 1202.17 568.417 1200.8 568.218C1196.32 567.645 1193.48 567.886 1188.76 566.394C1186.18 565.532 1184.26 565.059 1181.6 564.306C1177.95 563.226 1174.01 561.591 1170.36 560.829C1168.9 560.521 1167.55 560.388 1166.14 560.152C1166.04 560.066 1165.91 560.005 1165.78 559.858H1165.65C1164.25 559.176 1161.5 558.825 1159.86 558.825C1157.68 558.825 1155.56 557.779 1153.43 557.461C1149.19 556.751 1146.54 555.519 1142.38 555.027C1140.26 554.757 1136.83 554.363 1134.62 554.894C1134.26 555.027 1133.9 555.24 1133.57 555.51C1132.26 556.476 1131.5 558.347 1133.08 559.635C1134.44 560.744 1136.4 561.047 1138.14 561.506C1140.73 562.122 1143 562.946 1145.45 563.818C1147.77 564.59 1149.99 565.485 1152.29 565.94C1153.92 566.285 1154.43 566.167 1155.83 566.65C1156.59 566.925 1157.47 567.313 1158.29 567.588C1158.44 567.645 1162.07 568.677 1163.88 569.336C1165.14 569.819 1167.23 571.131 1168.55 571.614C1172.28 572.841 1176.19 574.096 1180.27 575.266C1183.27 576.114 1186.44 576.985 1189.46 577.918C1189.81 578.018 1194.05 579.155 1195.77 579.605C1197.73 580.135 1199.56 580.628 1201.56 581.125C1203.84 581.698 1205.96 582.214 1208.3 582.309C1212.69 582.456 1217.23 582.911 1221.69 582.702C1226 582.503 1233 580.524 1230.95 575.261V575.266Z" fill="#6F7271"/>
<path d="M942.983 255.178C945.208 253.89 946.732 253.198 948.678 251.446C952.456 247.917 956.675 244.194 960.501 240.698C963.052 238.411 964.861 236.066 967.138 233.707C969.96 230.79 973.213 227.867 975.878 224.684C978.885 221.065 980.334 215.827 981.29 211.218C981.915 208.187 982.753 202.777 980.944 200.04C979.562 197.951 971.693 196.156 970.954 199.353C965.5 199.244 959.535 201.911 955.103 204.786C952.3 206.652 950.35 209.11 948.015 211.616C946.969 212.724 945.894 213.875 944.99 215.145C944.299 216.154 943.12 216.968 942.557 217.939C942.031 218.811 942.031 220.014 941.444 220.966C940.951 221.747 940.213 222.292 939.82 223.102C938.892 225.025 938.475 226.394 937.173 228.237C935.152 231.168 932.131 232.921 929.707 235.469C928.447 236.758 927.524 238.406 926.653 239.941C924.925 242.839 922.913 245.198 920.967 247.912C920.152 249.021 920.285 249.954 919.92 251.119C918.476 255.434 916.204 258.053 913.903 261.909C913.799 262.558 912.307 264.827 912.236 265.689C912.236 266.773 914.589 269.928 914.959 270.458L915.006 270.435L919.707 268.957L927.851 265.835L939.517 258.712L940.994 257.897C940.729 257.679 940.672 257.177 942.978 255.169L942.983 255.178Z" fill="#CB007B"/>
<path d="M896.646 254.207C896.13 253.558 895.405 253.354 894.861 252.833C893.583 251.677 893.407 250.882 892.669 249.233C891.258 245.681 889.047 243.568 886.429 240.94C884.748 239.206 883.621 236.97 882.025 235.189C879.384 232.239 875.08 231.012 871.86 228.786C870.615 227.985 870.099 227.118 868.958 226.124C866.397 223.727 862.486 222.202 859.555 220.407C856.572 218.64 853.736 216.148 850.37 215.31C847.97 214.637 845.375 214.969 842.918 214.5C838.813 213.752 834.831 212.364 830.826 211.663C825.907 210.834 820.935 209.844 816.011 209.451C811.305 209.067 806.433 207.509 801.604 207.632C799.303 207.632 796.311 207.329 794.407 208.703C792.58 209.939 791.699 213.714 791.401 215.836C790.568 221.562 790.861 228.97 792.438 234.313C792.902 235.71 793.209 236.573 793.844 237.69C795.804 240.48 797.267 244.033 799.388 246.586C801.59 249.139 803.711 251.682 805.562 254.69C807.574 257.797 810.945 261.548 812.844 262.927C814.936 264.324 819.183 265.418 821.267 266.967C822.142 267.64 822.27 267.299 823.184 268.056C824.993 269.776 827.412 270.818 829.647 271.694C836.611 274.508 843.642 277.369 850.531 280.566C857.477 283.711 864.806 284.777 872.154 282.972C876.86 281.816 881.561 280.959 886.097 279.789C889.686 278.823 892.976 276.611 896.134 274.47C898.18 273.044 900.505 270.936 901.726 268.426C902.01 267.815 902.981 266.034 902.981 265.281L902.73 265.072C900.542 261.672 899.439 257.139 896.646 254.202V254.207Z" fill="#A8AD00"/>
<path d="M985.305 197.434C982.587 194.777 981.342 194.104 977.677 194.104C975.144 194.052 974.069 193.28 971.726 193.579C969.96 193.735 965.329 194.838 963.625 195.26C959.629 196.264 957.659 198.713 954.042 200.285C950.434 201.773 947.769 204.747 944.862 207.225C941.391 210.024 939.038 214.273 935.994 217.484C932.651 220.899 931.34 224.598 928.092 227.615C925.067 230.401 922.136 234.327 920.015 238.097C918.628 240.513 917.307 242.223 915.621 244.511C914.655 245.861 914.163 247.533 913.003 249.067C911.114 251.829 910.101 254.415 907.875 256.793C907.184 257.579 904.102 250.943 904.102 250.943C902.98 249.02 900.328 245.761 899.183 244.26C898.117 242.763 897.303 241.143 895.906 239.893C890.58 235.469 887.199 230.86 881.12 227.076C878.464 225.451 877.281 223.968 872.456 220.335C872.655 220.198 865.624 214.978 862.982 213.444C860.463 211.947 857.069 211.217 855.037 209.403C853.783 208.248 853.077 207.409 851.283 206.647C839.764 201.773 830.73 196.989 818.43 195.151C814.637 194.611 810.679 193.237 806.664 193.455C805.253 193.541 800.419 193.773 799.151 193.986C797.167 194.289 793.128 195.606 791.528 196.577C787.115 199.281 785.378 203.549 784.08 209.247C783.47 211.9 783.9 215.144 783.9 217.906C783.9 219.691 783.579 223.154 783.948 225.209C784.137 225.091 784.355 230.003 784.488 229.856C784.488 231.428 784.776 232.044 785.259 233.645C785.69 235.232 786.414 236.605 786.803 238.301C787.361 240.598 788.829 241.631 789.705 243.876C790.401 245.828 791.116 245.586 791.76 247.49C793.289 251.691 796.262 254.287 798.71 257.811C800.533 260.307 802.867 262.481 804.6 264.177C805.751 265.409 807.436 267.076 808.852 268.071C810.225 269.117 811.759 269.634 813.184 270.875C814.931 272.494 822.71 279.168 825.195 280.585C827.549 281.901 837.969 284.795 840.161 285.364C844.186 286.429 848.139 287.291 852.353 288.064C856.998 288.855 860.672 288.807 865.203 289.333C867.712 289.589 870.288 289.333 872.925 289.148C874.762 289.049 876.523 288.708 878.303 288.48C881.078 288.064 883.506 287.784 886.163 286.529C888.378 285.496 890.589 284.322 892.848 283.161C894.888 282.11 897.227 280.731 898.865 279.306C900.186 278.121 901.02 276.577 902.345 275.445C903.785 274.171 904.386 273.925 905.196 272.191C908.254 273.319 908.022 277.113 908.728 278.714C909.49 280.433 909.826 281.034 909.897 282.986C909.973 284.535 910.522 285.885 910.536 287.287C910.778 290.37 910.337 292.502 909.821 295.543C909.627 296.424 908.723 298.38 909.296 299.384C910.333 301.454 912.435 298.82 913.003 297.982C915.039 295.012 916.734 293.771 917.174 290.062C917.307 288.907 918.339 287.055 918.04 285.743C918.126 284.63 917.917 282.261 918.126 280.949L917.775 278.562C916.956 274.863 917.595 275.9 916.601 272.892C916.327 271.907 915.687 271.253 914.963 270.467C914.594 269.937 912.241 266.782 912.241 265.697C912.312 264.835 913.803 262.567 913.907 261.918C916.208 258.062 918.476 255.438 919.925 251.128C920.289 249.967 920.157 249.029 920.971 247.921C922.917 245.207 924.925 242.848 926.657 239.95C927.529 238.41 928.452 236.767 929.711 235.478C932.135 232.925 935.156 231.177 937.178 228.245C938.48 226.398 938.896 225.034 939.824 223.111C940.217 222.301 940.961 221.756 941.448 220.975C942.035 220.023 942.035 218.82 942.561 217.948C943.124 216.977 944.308 216.162 944.994 215.154C945.899 213.884 946.973 212.733 948.02 211.625C950.354 209.119 952.305 206.656 955.108 204.795C959.539 201.924 965.505 199.253 970.959 199.362C971.693 196.169 979.566 197.96 980.949 200.049C982.757 202.791 981.915 208.196 981.294 211.227C980.338 215.831 978.894 221.07 975.883 224.693C973.217 227.876 969.96 230.798 967.143 233.716C964.861 236.075 963.052 238.42 960.505 240.707C956.684 244.208 952.461 247.931 948.683 251.455C946.732 253.207 945.212 253.899 942.987 255.187C940.676 257.191 940.733 257.697 941.003 257.915C941.103 257.986 941.211 258.029 941.211 258.1C941.818 258.076 944.44 256.878 945.908 255.926C947.286 255.05 950.155 253.506 951.457 252.487C955.112 249.768 958.729 246.467 962.328 243.767C964.032 242.45 965.902 240.584 967.531 239.22C969.434 237.463 971.958 236.137 973.838 234.379C977.029 231.443 979.76 228.667 982.346 225.224C983.666 223.409 984.68 219.904 986.332 216.323C987.596 213.505 987.719 209.749 987.838 206.58C988.013 203.165 987.729 199.821 985.309 197.448L985.305 197.434ZM901.725 268.43C900.504 270.941 898.179 273.049 896.134 274.474C892.976 276.615 889.685 278.827 886.096 279.794C881.561 280.963 876.859 281.825 872.153 282.976C864.805 284.786 857.476 283.715 850.53 280.57C843.641 277.378 836.61 274.512 829.646 271.699C827.411 270.822 824.992 269.78 823.183 268.061C822.265 267.303 822.142 267.644 821.266 266.972C819.183 265.423 814.936 264.329 812.843 262.931C810.949 261.553 807.573 257.802 805.561 254.694C803.71 251.687 801.589 249.143 799.387 246.59C797.266 244.032 795.808 240.485 793.843 237.695C793.213 236.577 792.906 235.715 792.437 234.318C790.86 228.97 790.567 221.562 791.4 215.84C791.698 213.718 792.579 209.939 794.406 208.707C796.31 207.329 799.302 207.637 801.603 207.637C806.432 207.518 811.299 209.077 816.01 209.455C820.934 209.844 825.906 210.839 830.825 211.667C834.83 212.364 838.812 213.756 842.917 214.505C845.379 214.969 847.969 214.637 850.369 215.315C853.735 216.158 856.571 218.649 859.554 220.411C862.485 222.206 866.396 223.731 868.957 226.128C870.093 227.123 870.609 227.994 871.859 228.79C875.074 231.016 879.378 232.243 882.025 235.194C883.62 236.975 884.752 239.211 886.428 240.944C889.046 243.573 891.257 245.681 892.668 249.238C893.407 250.886 893.582 251.682 894.86 252.838C895.409 253.363 896.134 253.562 896.645 254.211C899.438 257.148 900.537 261.681 902.729 265.082L902.98 265.29C902.98 266.039 902.009 267.824 901.725 268.435V268.43Z" fill="#6F7271"/>
</svg>
