<?xml version="1.0" encoding="UTF-8"?>
<svg id="_레이어_2" data-name="레이어 2" xmlns="http://www.w3.org/2000/svg" viewBox="0 0 238.23 238.23">
  <defs>
    <style>
      .cls-1 {
        fill: #1aace5;
      }
    </style>
  </defs>
  <g id="_레이어_2-2" data-name="레이어 2">
    <g id="Artificial_20Intelligence_20Icons_005-artificial_20intelligence.eps" data-name="Artificial%20Intelligence%20Icons_005-artificial%20intelligence.eps">
      <rect class="cls-1" x="98.18" y="74.79" width="13.96" height="13.96"/>
      <path class="cls-1" d="M210.31,182.39c-12.98,0-23.93,8.91-27.03,20.94h-37.13c-2.53-9.8-10.26-17.52-20.06-20.05v-33.7h65.37c25.79,0,46.76-20.98,46.76-46.76,0-21.69-14.84-40.24-35.37-45.36C200.03,25.3,172.95,0,140.06,0c-15.76,0-30.56,5.71-42.15,16.16-4.5-1.34-9.16-2.01-13.91-2.01-25.06,0-45.78,18.96-48.56,43.29C14.87,62.54,0,81.1,0,102.81c0,25.78,20.98,46.76,46.76,46.76h65.37v33.7c-9.8,2.53-17.52,10.26-20.05,20.06h-37.13c-3.11-12.03-14.05-20.94-27.04-20.94-15.39,0-27.92,12.52-27.92,27.92s12.52,27.92,27.92,27.92c12.98,0,23.93-8.91,27.04-20.94h37.13c3.11,12.03,14.05,20.94,27.03,20.94s23.93-8.91,27.03-20.94h37.13c3.11,12.03,14.05,20.94,27.04,20.94,15.39,0,27.92-12.52,27.92-27.92s-12.52-27.92-27.92-27.92h0ZM98.18,102.71v13.96h-13.96v-55.83h41.88v55.83h-13.96v-13.96h-13.96ZM140.05,60.83h13.96v55.83h-13.96v-55.83Z"/>
    </g>
  </g>
</svg>