<?xml version="1.0" encoding="UTF-8"?>
<svg id="_레이어_2" data-name="레이어 2" xmlns="http://www.w3.org/2000/svg" xmlns:xlink="http://www.w3.org/1999/xlink" viewBox="0 0 246.53 246.53">
  <defs>
    <style>
      .cls-1 {
        fill: #3bf;
      }

      .cls-2 {
        fill: url(#_무제_그라디언트_38);
      }

      .cls-3 {
        fill: #fff;
      }

      .cls-4 {
        mask: url(#mask);
      }

      .cls-5 {
        filter: url(#luminosity-noclip);
      }
    </style>
    <filter id="luminosity-noclip" x="-20.42" y="-15.76" width="284.05" height="275.46" color-interpolation-filters="sRGB" filterUnits="userSpaceOnUse">
      <feFlood flood-color="#fff" result="bg"/>
      <feBlend in="SourceGraphic" in2="bg"/>
    </filter>
    <linearGradient id="_무제_그라디언트_38" data-name="무제 그라디언트 38" x1="243.85" y1="250.89" x2="86.63" y2="85.08" gradientUnits="userSpaceOnUse">
      <stop offset="0" stop-color="#000"/>
      <stop offset="1" stop-color="#fff"/>
    </linearGradient>
    <mask id="mask" x="-20.42" y="-15.76" width="284.05" height="275.46" maskUnits="userSpaceOnUse">
      <g class="cls-5">
        <rect class="cls-2" x="-20.42" y="-15.76" width="284.05" height="275.46"/>
      </g>
    </mask>
  </defs>
  <g id="_레이어_2-2" data-name="레이어 2">
    <g>
      <path class="cls-1" d="M246.53,123.27c0,10.5-1.31,20.7-3.79,30.43-11.08,43.64-45.43,77.99-89.07,89.05-9.73,2.48-19.91,3.79-30.41,3.79s-20.7-1.31-30.43-3.79C49.21,231.68,14.86,197.32,3.79,153.69c-2.48-9.73-3.79-19.92-3.79-30.43s1.31-20.68,3.79-30.41C14.85,49.22,49.2,14.87,92.84,3.79c9.73-2.48,19.92-3.79,30.43-3.79s20.68,1.31,30.41,3.79c43.64,11.07,77.99,45.42,89.07,89.05,2.48,9.73,3.79,19.92,3.79,30.43Z"/>
      <g class="cls-4">
        <path class="cls-3" d="M242.75,92.84c-6.53-10.57-16.51-20.22-29.58-28.37-6.36-3.98-13.29-7.46-20.64-10.46-3-7.35-6.49-14.27-10.46-20.64-8.16-13.07-17.81-23.06-28.39-29.58-9.73-2.48-19.91-3.79-30.41-3.79s-20.7,1.31-30.43,3.79c-10.57,6.53-20.22,16.51-28.38,29.58-3.97,6.36-7.46,13.29-10.46,20.64-7.35,3-14.27,6.49-20.64,10.46-13.07,8.16-23.05,17.81-29.57,28.39-2.48,9.73-3.79,19.91-3.79,30.41s1.31,20.7,3.79,30.43c6.52,10.57,16.51,20.22,29.57,28.38,6.36,3.97,13.29,7.46,20.64,10.46,3,7.35,6.49,14.27,10.46,20.64,8.16,13.07,17.81,23.05,28.38,29.57,9.73,2.48,19.92,3.79,30.43,3.79s20.68-1.31,30.41-3.79c10.58-6.52,20.23-16.5,28.39-29.57,3.98-6.36,7.46-13.29,10.46-20.64,7.35-3,14.27-6.49,20.64-10.46,13.07-8.16,23.05-17.81,29.58-28.38,2.48-9.73,3.79-19.92,3.79-30.43s-1.31-20.7-3.79-30.43ZM38.84,173.3c-19.71-12.3-31.38-28.06-33.37-44.86h35.74c.45,17.78,3.18,34.93,7.98,50.59-3.6-1.79-7.06-3.68-10.35-5.74ZM41.22,118.09H5.48c1.99-16.78,13.66-32.55,33.37-44.85,3.29-2.05,6.75-3.96,10.35-5.74-4.8,15.66-7.53,32.81-7.98,50.58ZM118.09,241.06c-16.79-1.99-32.56-13.66-44.85-33.37-2.05-3.29-3.95-6.75-5.74-10.35,15.66,4.8,32.81,7.53,50.59,7.98v35.74ZM118.09,194.97c-20.09-.53-39.27-4.11-56.13-10.4-6.3-16.86-9.88-36.03-10.4-56.13h66.53v66.53ZM118.09,118.09H51.56c.53-20.09,4.1-39.26,10.4-56.12,16.86-6.3,36.03-9.88,56.13-10.4v66.52ZM118.09,41.22c-17.78.45-34.93,3.18-50.59,7.98,1.78-3.6,3.68-7.06,5.74-10.36,12.3-19.7,28.06-31.37,44.85-33.36v35.74ZM128.44,5.49c16.78,1.99,32.55,13.66,44.85,33.36,2.05,3.29,3.96,6.76,5.74,10.36-15.66-4.8-32.81-7.53-50.58-7.98V5.49ZM173.29,207.69c-12.3,19.71-28.06,31.38-44.85,33.37v-35.74c17.78-.45,34.92-3.18,50.58-7.98-1.78,3.6-3.68,7.06-5.74,10.35ZM184.56,184.57c-16.86,6.3-36.03,9.87-56.12,10.4v-66.53h66.52c-.53,20.09-4.11,39.27-10.4,56.13ZM128.44,118.09V51.57c20.09.53,39.26,4.11,56.12,10.4,6.3,16.86,9.87,36.03,10.4,56.12h-66.52ZM207.69,173.3c-3.29,2.05-6.76,3.95-10.36,5.74,4.79-15.66,7.54-32.81,7.98-50.59h35.74c-1.99,16.79-13.66,32.56-33.36,44.86ZM205.31,118.09c-.44-17.77-3.18-34.92-7.98-50.58,3.6,1.78,7.06,3.68,10.36,5.74,19.7,12.3,31.37,28.06,33.36,44.85h-35.74Z"/>
      </g>
    </g>
  </g>
</svg>