<svg width="269" height="193" viewBox="0 0 269 193" fill="none" xmlns="http://www.w3.org/2000/svg">
<path d="M228.16 86.29C231.97 86.28 235.64 86.77 239.14 87.7C230.11 36.81 186.24 0 134.37 0C82.4998 0 38.5398 37.51 29.5898 87.7C33.0898 86.78 36.7598 86.28 40.5798 86.28C40.6398 86.29 40.6898 86.28 40.7598 86.28H46.5998C55.8698 46.01 92.4598 16.39 134.37 16.39C176.28 16.39 212.87 45.48 222.15 86.28H227.99C228.05 86.28 228.11 86.29 228.17 86.29H228.16Z" fill="#1DB4FF"/>
<path d="M49.94 93.3398H40.76C40.7 93.3398 40.64 93.3498 40.58 93.3498C36.76 93.3398 33.09 93.8298 29.59 94.7598C12.53 99.2798 0 114.9 0 142.88C0 176.6 18.17 192.42 40.58 192.42C40.64 192.41 40.69 192.42 40.76 192.42H49.94C52.85 192.42 55.24 190.05 55.24 187.12V98.6498C55.24 95.7198 52.86 93.3398 49.94 93.3398Z" fill="#1DB4FF"/>
<path d="M239.14 94.7701C235.64 93.8501 231.97 93.3501 228.16 93.3501C228.1 93.3601 228.04 93.3501 227.98 93.3501H218.79C215.88 93.3501 213.49 95.7201 213.49 98.6601V187.13C213.49 190.05 215.87 192.43 218.79 192.43H227.98C228.04 192.43 228.1 192.42 228.16 192.42C250.57 192.43 268.73 176.61 268.73 142.89C268.73 114.92 256.2 99.3001 239.14 94.7801V94.7701Z" fill="#1DB4FF"/>
</svg>
