<?xml version="1.0" encoding="UTF-8"?>
<svg id="_레이어_2" data-name="레이어 2" xmlns="http://www.w3.org/2000/svg" xmlns:xlink="http://www.w3.org/1999/xlink" viewBox="0 0 203.85 226.23">
  <defs>
    <style>
      .cls-1 {
        fill: #1aace5;
      }

      .cls-2 {
        fill: none;
      }

      .cls-3 {
        clip-path: url(#clippath-1);
      }

      .cls-4 {
        clip-path: url(#clippath);
      }
    </style>
    <clipPath id="clippath">
      <rect class="cls-2" width="203.85" height="226.23"/>
    </clipPath>
    <clipPath id="clippath-1">
      <rect class="cls-2" width="203.85" height="226.23"/>
    </clipPath>
  </defs>
  <g id="_레이어_2-2" data-name="레이어 2">
    <g id="Artificial_20Intelligence_20Icons_026-network.eps" data-name="Artificial%20Intelligence%20Icons_026-network.eps">
      <g class="cls-4">
        <path class="cls-1" d="M190.18,133.46c-6.13-3.54-13.28-4.48-20.12-2.65-4.65,1.25-8.78,3.68-12.06,7.03l-16.76-9.68c.58-2.72.9-5.53.9-8.42v-13.26c0-2.89-.32-5.7-.9-8.42l16.76-9.68c3.28,3.35,7.41,5.78,12.06,7.03,2.28.61,4.6.91,6.9.91,4.59,0,9.13-1.21,13.21-3.56,6.13-3.54,10.52-9.26,12.35-16.1,1.83-6.84.89-13.99-2.65-20.12-3.54-6.13-9.26-10.52-16.1-12.35-6.84-1.83-13.99-.89-20.12,2.65-6.13,3.54-10.52,9.26-12.35,16.1-1.25,4.65-1.21,9.44.06,13.96l-15.1,8.72c-5.97-9.79-15.99-16.85-27.73-18.8v92.58c11.73-1.96,21.76-9.01,27.73-18.8l15.1,8.72c-1.26,4.52-1.31,9.31-.06,13.96,1.83,6.84,6.22,12.56,12.35,16.1,4.09,2.36,8.62,3.56,13.21,3.56,2.3,0,4.62-.3,6.9-.91,6.84-1.83,12.56-6.22,16.1-12.35,3.54-6.13,4.48-13.28,2.65-20.12-1.83-6.84-6.22-12.56-12.35-16.1h0Z"/>
      </g>
      <path class="cls-1" d="M95.3,159.4v14.65c-11.42,2.95-19.88,13.34-19.88,25.67,0,14.62,11.89,26.51,26.51,26.51s26.51-11.89,26.51-26.51c0-12.33-8.46-22.72-19.88-25.67v-14.65c-2.16.36-4.37.55-6.63.55s-4.47-.19-6.63-.55h0Z"/>
      <g class="cls-3">
        <path class="cls-1" d="M108.55,66.83v-14.65c11.42-2.95,19.88-13.34,19.88-25.67,0-14.62-11.89-26.51-26.51-26.51s-26.51,11.89-26.51,26.51c0,12.33,8.46,22.72,19.88,25.67v14.65c2.16-.36,4.37-.55,6.63-.55s4.47.19,6.63.55h0Z"/>
        <path class="cls-1" d="M67.57,85.63l-15.1-8.72c1.26-4.52,1.3-9.31.06-13.96-1.83-6.84-6.22-12.56-12.35-16.1-6.13-3.54-13.28-4.48-20.12-2.65-6.84,1.83-12.56,6.22-16.1,12.35-3.54,6.13-4.48,13.28-2.65,20.12,1.83,6.84,6.22,12.56,12.35,16.1,4.09,2.36,8.62,3.56,13.21,3.56,2.3,0,4.62-.3,6.9-.91,4.65-1.25,8.78-3.68,12.06-7.03l16.76,9.68c-.58,2.72-.9,5.53-.9,8.42v13.26c0,2.89.32,5.7.9,8.42l-16.76,9.68c-3.28-3.35-7.41-5.78-12.06-7.03-6.84-1.83-13.99-.89-20.12,2.65-6.13,3.54-10.52,9.26-12.35,16.1-1.83,6.84-.89,13.99,2.65,20.12,3.54,6.13,9.26,10.52,16.1,12.35,2.29.61,4.6.91,6.9.91,4.59,0,9.13-1.21,13.21-3.56,6.13-3.54,10.52-9.26,12.35-16.1,1.25-4.65,1.21-9.44-.06-13.96l15.1-8.72c5.97,9.79,15.99,16.85,27.73,18.8v-92.57c-11.73,1.95-21.76,9.01-27.73,18.8h0Z"/>
      </g>
    </g>
  </g>
</svg>