<svg width="1393" height="361" viewBox="0 0 1393 361" fill="none" xmlns="http://www.w3.org/2000/svg">
<g clip-path="url(#clip0_1_3345)">
<path d="M1076.28 -0.00488281C1062.99 -0.00488281 1053.97 10.5438 1053.95 27.4069V153.049C1053.95 171.733 1050.36 182.837 1042.79 188.199L1034.1 194.751C1030.67 196.848 1027.85 199.802 1025.91 203.322C1023.97 206.842 1022.98 210.808 1023.04 214.827C1023.01 218.269 1023.7 221.679 1025.05 224.844C1026.4 228.008 1028.39 230.859 1030.9 233.218C1033.4 235.577 1036.37 237.394 1039.61 238.553C1042.84 239.713 1046.29 240.191 1049.72 239.958C1069.99 239.958 1090.59 220.538 1096.65 196.392C1099.02 188.098 1099.02 184.938 1099.02 164.381V27.4122C1099.02 10.9514 1089.93 -0.00488281 1076.28 -0.00488281Z" fill="white"/>
<path d="M1164.1 -0.00488281C1150.83 -0.00488281 1141.99 10.5438 1141.46 27.4069V154.086C1141.46 170.574 1150.83 181.472 1164.57 181.472C1177.6 181.472 1186.35 170.955 1186.72 154.086V27.4122C1186.72 10.9514 1177.59 -0.00488281 1164.1 -0.00488281Z" fill="white"/>
<path d="M731.343 -0.00488281C683.477 -0.00488281 646.452 40.3744 646.452 92.9961V153.631C646.452 170.066 655.823 181.472 669.811 181.472C683.313 181.472 692.272 170.574 692.552 153.631V91.4347C693.144 67.5374 709.391 49.1341 731.349 49.1341C751.974 49.1341 768.627 67.5427 769.135 90.4184V153.658C769.135 170.092 778.268 181.498 792.204 181.498C805.832 181.498 814.622 170.6 815.209 153.658V91.784C815.161 40.4062 777.755 0.0216074 731.354 0.0216074" fill="white"/>
<path d="M1309.3 -0.00488281C1261.42 -0.00488281 1224.06 40.3797 1224.06 93.0014V153.636C1224.06 170.071 1233.79 181.477 1247.3 181.477C1261.12 181.477 1270.11 170.579 1270.42 153.636V91.4347C1270.53 67.5374 1287.19 49.1341 1309.27 49.1341C1329.9 49.1341 1346.35 67.5427 1346.96 90.4184V153.658C1346.96 170.092 1356.16 181.498 1370.16 181.498C1383.55 181.498 1392.55 170.6 1392.98 153.658V91.784C1392.71 40.4062 1355.51 0.0216074 1309.28 0.0216074" fill="white"/>
<path d="M223.419 -0.00537109C209.965 -0.00537109 201.207 10.5433 201.122 27.4064V100.326C201.122 118.206 188.879 132.21 173.342 132.21C168.004 132.059 162.822 130.373 158.414 127.355C154.007 124.337 150.561 120.113 148.486 115.189C145.768 106.967 144.728 98.2822 145.429 89.6505V27.4117C145.429 10.9509 136.348 -8.1134e-05 123.032 -8.1134e-05H122.54C109.319 -8.1134e-05 100.857 10.5486 100.371 27.4117V100.332C100.371 118.211 88.4451 132.216 73.0079 132.216C67.6505 132.089 62.444 130.414 58.0153 127.394C53.5866 124.374 50.1246 120.137 48.0462 115.194C45.661 108.8 45.1533 104.275 45.1533 89.6558V27.4117C45.1533 10.9509 36.0465 -8.1134e-05 22.1747 -8.1134e-05C8.83182 -0.005374 0.10577 10.5486 0 27.4117V93.9377C0 113.659 3.17311 130.877 9.65154 142.336C15.8682 153.897 25.0276 163.609 36.202 170.487C47.3764 177.366 60.1687 181.166 73.283 181.503C82.659 181.482 91.9267 179.495 100.489 175.671C109.051 171.847 116.718 166.27 122.995 159.299C129.532 166.196 137.383 171.714 146.084 175.527C154.785 179.34 164.161 181.372 173.659 181.503C184.748 181.303 195.639 178.521 205.466 173.376C215.294 168.231 223.789 160.865 230.278 151.863C241.22 136.387 245.879 119.698 245.879 95.3721V27.4117C245.879 10.9509 236.888 -8.1134e-05 223.392 -8.1134e-05" fill="white"/>
<path d="M460.048 116.311C469.916 155.102 502.224 182.472 540.486 182.472C587.972 182.472 625.462 141.786 625.462 89.6509C625.462 40.8242 587.099 -0.0102539 540.544 -0.0102539C502.219 -0.0102539 469.578 28.8676 459.725 67.0451H431.543C421.854 29.0423 388.521 0.190886 349.862 0.190886C303.852 0.190886 265.658 41.4752 265.658 91.0641C265.658 142.315 302.921 183.382 349.687 183.382C388.923 183.382 421.124 155.494 431.014 116.3L460.048 116.311ZM540.55 50.0127C550.978 50.3285 560.862 54.7436 568.06 62.3017C575.259 69.8597 579.192 79.952 579.008 90.3919C579.008 114.819 562.545 133.455 540.491 133.455C519.549 133.455 502.229 114.819 502.229 91.4293C502.229 68.4212 519.972 50.0127 540.55 50.0127ZM349.692 133.905C328.586 133.905 311.52 115.342 311.52 92.0909C311.52 68.8394 328.761 50.4943 349.872 50.4943C360.344 50.8141 370.27 55.2452 377.503 62.8297C384.737 70.4143 388.699 80.5431 388.531 91.0271C388.531 115.374 371.682 133.899 349.698 133.899" fill="white"/>
<path d="M948.759 192.978V167.668C968.333 161.683 985.117 148.881 996.073 131.58C1007.03 114.278 1011.43 93.6221 1008.48 73.3526C1005.53 53.0832 995.429 34.5407 980 21.0839C964.57 7.62707 944.834 0.145795 924.369 -0.00488281C879.416 -0.00488281 842.053 38.5537 842.053 85.4855C842.011 104.03 847.962 122.09 859.018 136.971C870.075 151.852 885.643 162.756 903.4 168.054V192.608C885.724 198.037 870.26 209.01 859.292 223.907C848.324 238.804 842.432 256.836 842.487 275.341C842.487 322.447 880.326 360.985 925.606 360.985C946.051 360.611 965.69 352.941 980.982 339.355C996.274 325.769 1006.21 307.162 1009.01 286.889C1011.8 266.616 1007.27 246.011 996.221 228.789C985.175 211.567 968.345 198.861 948.765 192.962M887.947 85.4749C888.089 77.939 890.455 70.6136 894.749 64.4209C899.042 58.2282 905.069 53.445 912.073 50.6735C919.076 47.902 926.742 47.266 934.106 48.8457C941.47 50.4254 948.202 54.1501 953.456 59.5509C958.709 64.9517 962.248 71.7871 963.628 79.1968C965.008 86.6065 964.167 94.2591 961.21 101.191C958.254 108.124 953.315 114.025 947.014 118.154C940.713 122.283 933.333 124.454 925.802 124.393C915.636 124.223 905.95 120.036 898.858 112.744C891.766 105.453 887.843 95.6501 887.947 85.4749ZM926.299 314.614C916.06 314.427 906.31 310.193 899.181 302.835C892.051 295.477 888.121 285.595 888.248 275.346C888.106 265.303 891.931 255.611 898.891 248.375C905.851 241.14 915.383 236.947 925.416 236.708C930.537 236.636 935.622 237.576 940.38 239.474C945.137 241.373 949.474 244.192 953.141 247.77C956.808 251.348 959.734 255.615 961.751 260.327C963.767 265.039 964.835 270.103 964.893 275.228C964.951 280.354 963.998 285.441 962.089 290.197C960.18 294.953 957.351 299.286 953.766 302.947C950.181 306.607 945.91 309.524 941.196 311.53C936.483 313.535 931.42 314.591 926.299 314.635" fill="white"/>
<path d="M1076.28 -0.00488281C1062.99 -0.00488281 1053.97 10.5438 1053.95 27.4069V153.049C1053.95 171.733 1050.36 182.837 1042.79 188.199L1034.1 194.751C1030.67 196.848 1027.85 199.802 1025.91 203.322C1023.97 206.842 1022.98 210.808 1023.04 214.827C1023.01 218.269 1023.7 221.679 1025.05 224.844C1026.4 228.008 1028.39 230.859 1030.9 233.218C1033.4 235.577 1036.37 237.394 1039.61 238.553C1042.84 239.713 1046.29 240.191 1049.72 239.958C1069.99 239.958 1090.59 220.538 1096.65 196.392C1099.02 188.098 1099.02 184.938 1099.02 164.381V27.4122C1099.02 10.9514 1089.93 -0.00488281 1076.28 -0.00488281Z" fill="white"/>
<path d="M1164.1 -0.00488281C1150.83 -0.00488281 1141.99 10.5438 1141.46 27.4069V154.086C1141.46 170.574 1150.83 181.472 1164.57 181.472C1177.6 181.472 1186.35 170.955 1186.72 154.086V27.4122C1186.72 10.9514 1177.59 -0.00488281 1164.1 -0.00488281Z" fill="white"/>
<path d="M731.343 -0.00488281C683.477 -0.00488281 646.452 40.3744 646.452 92.9961V153.631C646.452 170.066 655.823 181.472 669.811 181.472C683.313 181.472 692.272 170.574 692.552 153.631V91.4347C693.144 67.5374 709.391 49.1341 731.349 49.1341C751.974 49.1341 768.627 67.5427 769.135 90.4184V153.658C769.135 170.092 778.268 181.498 792.204 181.498C805.832 181.498 814.622 170.6 815.209 153.658V91.784C815.161 40.4062 777.755 0.0216074 731.354 0.0216074" fill="white"/>
<path d="M1309.3 -0.00488281C1261.42 -0.00488281 1224.06 40.3797 1224.06 93.0014V153.636C1224.06 170.071 1233.79 181.477 1247.3 181.477C1261.12 181.477 1270.11 170.579 1270.42 153.636V91.4347C1270.53 67.5374 1287.19 49.1341 1309.27 49.1341C1329.9 49.1341 1346.35 67.5427 1346.96 90.4184V153.658C1346.96 170.092 1356.16 181.498 1370.16 181.498C1383.55 181.498 1392.55 170.6 1392.98 153.658V91.784C1392.71 40.4062 1355.51 0.0216074 1309.28 0.0216074" fill="white"/>
<path d="M223.419 -0.00537109C209.965 -0.00537109 201.207 10.5433 201.122 27.4064V100.326C201.122 118.206 188.879 132.21 173.342 132.21C168.004 132.059 162.822 130.373 158.414 127.355C154.007 124.337 150.561 120.113 148.486 115.189C145.768 106.967 144.728 98.2822 145.429 89.6505V27.4117C145.429 10.9509 136.348 -8.1134e-05 123.032 -8.1134e-05H122.54C109.319 -8.1134e-05 100.857 10.5486 100.371 27.4117V100.332C100.371 118.211 88.4451 132.216 73.0079 132.216C67.6505 132.089 62.444 130.414 58.0153 127.394C53.5866 124.374 50.1246 120.137 48.0462 115.194C45.661 108.8 45.1533 104.275 45.1533 89.6558V27.4117C45.1533 10.9509 36.0465 -8.1134e-05 22.1747 -8.1134e-05C8.83182 -0.005374 0.10577 10.5486 0 27.4117V93.9377C0 113.659 3.17311 130.877 9.65154 142.336C15.8682 153.897 25.0276 163.609 36.202 170.487C47.3764 177.366 60.1687 181.166 73.283 181.503C82.659 181.482 91.9267 179.495 100.489 175.671C109.051 171.847 116.718 166.27 122.995 159.299C129.532 166.196 137.383 171.714 146.084 175.527C154.785 179.34 164.161 181.372 173.659 181.503C184.748 181.303 195.639 178.521 205.466 173.376C215.294 168.231 223.789 160.865 230.278 151.863C241.22 136.387 245.879 119.698 245.879 95.3721V27.4117C245.879 10.9509 236.888 -8.1134e-05 223.392 -8.1134e-05" fill="white"/>
<path d="M460.048 116.311C469.916 155.102 502.224 182.472 540.486 182.472C587.972 182.472 625.462 141.786 625.462 89.6509C625.462 40.8242 587.099 -0.0102539 540.544 -0.0102539C502.219 -0.0102539 469.578 28.8676 459.725 67.0451H431.543C421.854 29.0423 388.521 0.190886 349.862 0.190886C303.852 0.190886 265.658 41.4752 265.658 91.0641C265.658 142.315 302.921 183.382 349.687 183.382C388.923 183.382 421.124 155.494 431.014 116.3L460.048 116.311ZM540.55 50.0127C550.978 50.3285 560.862 54.7436 568.06 62.3017C575.259 69.8597 579.192 79.952 579.008 90.3919C579.008 114.819 562.545 133.455 540.491 133.455C519.549 133.455 502.229 114.819 502.229 91.4293C502.229 68.4212 519.972 50.0127 540.55 50.0127ZM349.692 133.905C328.586 133.905 311.52 115.342 311.52 92.0909C311.52 68.8394 328.761 50.4943 349.872 50.4943C360.344 50.8141 370.27 55.2452 377.503 62.8297C384.737 70.4143 388.699 80.5431 388.531 91.0271C388.531 115.374 371.682 133.899 349.698 133.899" fill="white"/>
<path d="M948.759 192.978V167.668C968.333 161.683 985.117 148.881 996.073 131.58C1007.03 114.278 1011.43 93.6221 1008.48 73.3526C1005.53 53.0832 995.429 34.5407 980 21.0839C964.57 7.62707 944.834 0.145795 924.369 -0.00488281C879.416 -0.00488281 842.053 38.5537 842.053 85.4855C842.011 104.03 847.962 122.09 859.018 136.971C870.075 151.852 885.643 162.756 903.4 168.054V192.608C885.724 198.037 870.26 209.01 859.292 223.907C848.324 238.804 842.432 256.836 842.487 275.341C842.487 322.447 880.326 360.985 925.606 360.985C946.051 360.611 965.69 352.941 980.982 339.355C996.274 325.769 1006.21 307.162 1009.01 286.889C1011.8 266.616 1007.27 246.011 996.221 228.789C985.175 211.567 968.345 198.861 948.765 192.962M887.947 85.4749C888.089 77.939 890.455 70.6136 894.749 64.4209C899.042 58.2282 905.069 53.445 912.073 50.6735C919.076 47.902 926.742 47.266 934.106 48.8457C941.47 50.4254 948.202 54.1501 953.456 59.5509C958.709 64.9517 962.248 71.7871 963.628 79.1968C965.008 86.6065 964.167 94.2591 961.21 101.191C958.254 108.124 953.315 114.025 947.014 118.154C940.713 122.283 933.333 124.454 925.802 124.393C915.636 124.223 905.95 120.036 898.858 112.744C891.766 105.453 887.843 95.6501 887.947 85.4749ZM926.299 314.614C916.06 314.427 906.31 310.193 899.181 302.835C892.051 295.477 888.121 285.595 888.248 275.346C888.106 265.303 891.931 255.611 898.891 248.375C905.851 241.14 915.383 236.947 925.416 236.708C930.537 236.636 935.622 237.576 940.38 239.474C945.137 241.373 949.474 244.192 953.141 247.77C956.808 251.348 959.734 255.615 961.751 260.327C963.767 265.039 964.835 270.103 964.893 275.228C964.951 280.354 963.998 285.441 962.089 290.197C960.18 294.953 957.351 299.286 953.766 302.947C950.181 306.607 945.91 309.524 941.196 311.53C936.483 313.535 931.42 314.591 926.299 314.635" fill="white"/>
</g>
<defs>
<clipPath id="clip0_1_3345">
<rect width="1393" height="361" fill="white"/>
</clipPath>
</defs>
</svg>
